<svg width="25" height="25" viewBox="0 0 25 25" fill="none" xmlns="http://www.w3.org/2000/svg">
<path d="M14.8542 20.5487V15.8611C14.8542 15.6539 14.7719 15.4552 14.6254 15.3087C14.4789 15.1622 14.2802 15.0799 14.073 15.0799H10.948C10.7408 15.0799 10.5421 15.1622 10.3956 15.3087C10.2491 15.4552 10.1667 15.6539 10.1667 15.8611V20.5487C10.1667 20.7559 10.0844 20.9546 9.93795 21.1011C9.79146 21.2476 9.59277 21.3299 9.38559 21.33L4.69866 21.3306C4.59606 21.3306 4.49446 21.3104 4.39966 21.2711C4.30486 21.2319 4.21873 21.1743 4.14617 21.1018C4.07361 21.0292 4.01606 20.9431 3.97679 20.8483C3.93752 20.7535 3.91731 20.6519 3.91731 20.5493V11.52C3.91731 11.4112 3.94006 11.3035 3.98408 11.204C4.02811 11.1044 4.09246 11.0152 4.17299 10.942L11.985 3.83896C12.1288 3.7082 12.3161 3.63575 12.5105 3.63574C12.7049 3.63574 12.8922 3.70818 13.0361 3.83892L20.8491 10.942C20.9296 11.0152 20.994 11.1044 21.038 11.204C21.0821 11.3035 21.1048 11.4112 21.1048 11.52V20.5493C21.1048 20.6519 21.0846 20.7535 21.0453 20.8483C21.0061 20.9431 20.9485 21.0293 20.876 21.1018C20.8034 21.1743 20.7173 21.2319 20.6225 21.2711C20.5277 21.3104 20.4261 21.3306 20.3235 21.3306L15.6354 21.33C15.4282 21.3299 15.2295 21.2476 15.083 21.1011C14.9365 20.9546 14.8542 20.7559 14.8542 20.5487V20.5487Z" stroke="black" stroke-width="2" stroke-linecap="round" stroke-linejoin="round"/>
</svg>
