<svg width="25" height="25" viewBox="0 0 25 25" fill="none" xmlns="http://www.w3.org/2000/svg">
<path fill-rule="evenodd" clip-rule="evenodd" d="M9.77542 3.89892C8.25322 3.80376 6.74864 4.26762 5.54426 5.20337C4.33988 6.13912 3.51857 7.48239 3.23457 8.98089C2.95058 10.4794 3.22344 12.03 4.00191 13.3416C4.11155 13.5263 4.14029 13.748 4.08139 13.9546L3.48491 16.0464L5.5768 15.45C5.78337 15.3911 6.00507 15.4198 6.18979 15.5294C7.50133 16.3079 9.05197 16.5808 10.5505 16.2968C12.049 16.0128 13.3922 15.1915 14.328 13.9871C15.2637 12.7827 15.7276 11.2781 15.6324 9.75593C15.5373 8.23373 14.8896 6.79863 13.8112 5.72017C12.7327 4.64171 11.2976 3.99408 9.77542 3.89892ZM4.58561 3.96952C6.09061 2.80019 7.97075 2.22056 9.87291 2.33947C11.7751 2.45838 13.5684 3.26766 14.916 4.61532C16.2637 5.96297 17.073 7.75628 17.1919 9.65844C17.3108 11.5606 16.7312 13.4407 15.5618 14.9457C14.3925 16.4507 12.714 17.4771 10.8414 17.832C9.08167 18.1655 7.2644 17.8844 5.69163 17.042L3.57361 17.6459L3.57084 17.6467C3.33707 17.7124 3.09 17.7147 2.85506 17.6533C2.62011 17.5919 2.40576 17.469 2.23405 17.2973C2.06234 17.1256 1.93946 16.9112 1.87805 16.6763C1.81664 16.4413 1.81891 16.1943 1.88464 15.9605L1.88543 15.9577L2.48936 13.8397C1.64693 12.267 1.36589 10.4497 1.6994 8.68994C2.05429 6.8174 3.08061 5.13884 4.58561 3.96952Z" fill="black"/>
<path fill-rule="evenodd" clip-rule="evenodd" d="M15.2257 7.78133C15.2483 7.35045 15.616 7.01949 16.0468 7.04211C17.389 7.11257 18.6902 7.52853 19.8244 8.24969C20.9586 8.97085 21.8873 9.97274 22.5204 11.1583C23.1536 12.3438 23.4698 13.6728 23.4384 15.0165C23.4096 16.2452 23.0911 17.4481 22.5109 18.5278L23.1154 20.6479C23.1811 20.8817 23.1834 21.1288 23.122 21.3637C23.0606 21.5987 22.9377 21.813 22.766 21.9847C22.5943 22.1564 22.3799 22.2793 22.145 22.3407C21.91 22.4021 21.663 22.3999 21.4292 22.3341L21.4264 22.3334L19.3087 21.7295C18.3937 22.2205 17.3887 22.5244 16.3525 22.6221C15.202 22.7306 14.0418 22.5822 12.9556 22.1876C11.8695 21.793 10.8845 21.1621 10.0719 20.3404C9.25934 19.5187 8.63942 18.5268 8.25694 17.4363C8.11413 17.0292 8.32843 16.5833 8.73558 16.4405C9.14274 16.2977 9.58857 16.512 9.73137 16.9192C10.0373 17.7913 10.533 18.5846 11.1829 19.2417C11.8328 19.8989 12.6205 20.4034 13.4892 20.719C14.3578 21.0346 15.2857 21.1533 16.2058 21.0665C17.126 20.9797 18.0153 20.6896 18.8097 20.2172C18.8097 20.2172 18.9832 20.1552 19.0909 20.1374C19.1987 20.1196 19.4232 20.1374 19.4232 20.1374L21.5151 20.7339L20.9186 18.642C20.8596 18.435 20.8886 18.2128 20.9988 18.0279C21.5489 17.1045 21.8512 16.0546 21.8763 14.98C21.9014 13.9054 21.6486 12.8425 21.1422 11.8944C20.6358 10.9462 19.8931 10.145 18.986 9.56822C18.079 8.99148 17.0383 8.65881 15.9649 8.60246C15.534 8.57984 15.2031 8.21221 15.2257 7.78133Z" fill="black"/>
</svg>
