<svg width="17" height="17" viewBox="0 0 17 17" fill="none" xmlns="http://www.w3.org/2000/svg">
<path fill-rule="evenodd" clip-rule="evenodd" d="M16.0837 2.02118C16.3888 1.71608 16.3888 1.22142 16.0837 0.916323C15.7786 0.611226 15.2839 0.611226 14.9788 0.916323L8.5 7.39514L2.02118 0.916323C1.71608 0.611226 1.22142 0.611226 0.916323 0.916323C0.611226 1.22142 0.611226 1.71608 0.916323 2.02118L7.39514 8.5L0.916323 14.9788C0.611226 15.2839 0.611226 15.7786 0.916323 16.0837C1.22142 16.3888 1.71608 16.3888 2.02118 16.0837L8.5 9.60485L14.9788 16.0837C15.2839 16.3888 15.7786 16.3888 16.0837 16.0837C16.3888 15.7786 16.3888 15.2839 16.0837 14.9788L9.60485 8.5L16.0837 2.02118Z" fill="black"/>
</svg>
