<svg width="25" height="25" viewBox="0 0 25 25" fill="none" xmlns="http://www.w3.org/2000/svg">
<path fill-rule="evenodd" clip-rule="evenodd" d="M4.17133 6.42964C2.80645 7.04384 2.34375 7.73123 2.34375 8.20312C2.34375 8.67502 2.80645 9.36241 4.17133 9.97661C4.79076 10.2554 5.53615 10.4878 6.37288 10.6541C6.39216 10.6572 6.4112 10.6609 6.42998 10.6654C7.32326 10.8389 8.31876 10.9375 9.375 10.9375C10.4312 10.9375 11.4267 10.8389 12.32 10.6654C12.3388 10.6609 12.3578 10.6572 12.3771 10.6541C13.2139 10.4878 13.9592 10.2554 14.5787 9.97661C15.9436 9.36241 16.4062 8.67502 16.4062 8.20312C16.4062 7.73123 15.9436 7.04384 14.5787 6.42964C13.2871 5.84845 11.4481 5.46875 9.375 5.46875C7.30195 5.46875 5.46287 5.84845 4.17133 6.42964ZM11.7188 12.3464C10.9715 12.4469 10.1846 12.5 9.375 12.5C8.56539 12.5 7.77854 12.4469 7.03125 12.3464V14.6749C7.76219 14.7837 8.55001 14.8438 9.375 14.8438C10.2 14.8438 10.9878 14.7837 11.7188 14.6749V12.3464ZM13.2812 14.3461V12.0541C13.9899 11.8811 14.6424 11.6613 15.2199 11.4015C15.6385 11.2131 16.0426 10.991 16.4062 10.7354V12.1094C16.4062 12.5824 15.9436 13.2697 14.5794 13.8835C14.1929 14.0573 13.7574 14.2131 13.2812 14.3461ZM11.7188 16.7424C11.2804 16.6361 10.864 16.5124 10.4742 16.3733C10.1137 16.3951 9.74675 16.4062 9.375 16.4062C9.11198 16.4062 8.85137 16.4007 8.59375 16.3897V16.7969C8.59375 17.2699 9.05642 17.9572 10.4206 18.571C10.8071 18.7448 11.2426 18.9006 11.7188 19.0336V16.7424ZM13.2812 19.3624V17.0336C14.0279 17.1339 14.8149 17.1875 15.625 17.1875C16.4347 17.1875 17.2215 17.1344 17.9688 17.0341V19.3624C17.2378 19.4712 16.45 19.5312 15.625 19.5312C14.8 19.5312 14.0122 19.4712 13.2812 19.3624ZM5.46875 12.0541C4.76011 11.8811 4.10759 11.6613 3.53013 11.4015C3.11155 11.2131 2.70742 10.991 2.34375 10.7354V12.1094C2.34375 12.5824 2.80642 13.2697 4.17064 13.8835C4.55708 14.0573 4.99257 14.2131 5.46875 14.3461V12.0541ZM3.53013 5.00476C2.06744 5.66297 0.78125 6.73339 0.78125 8.20312V12.1094C0.78125 13.5797 2.06663 14.6502 3.52955 15.3084C4.51087 15.7499 5.70906 16.0754 7.03125 16.2529V16.7969C7.03125 18.2672 8.31663 19.3377 9.77955 19.9959C11.3155 20.6869 13.3826 21.0938 15.625 21.0938C17.8674 21.0938 19.9345 20.6869 21.4704 19.9959C22.9334 19.3377 24.2188 18.2672 24.2188 16.7969V12.8906L24.2187 12.8881C24.2174 11.5971 23.2135 10.6162 22.0226 9.96807C20.9471 9.38272 19.5398 8.96001 17.9688 8.74647V8.20312C17.9688 6.73339 16.6826 5.66297 15.2199 5.00476C13.6838 4.31355 11.6167 3.90625 9.375 3.90625C7.13333 3.90625 5.06615 4.31355 3.53013 5.00476ZM22.6562 15.424C22.2928 15.6794 21.8889 15.9014 21.4704 16.0896C20.8929 16.3495 20.2402 16.5692 19.5312 16.7421V19.0336C20.0074 18.9006 20.4429 18.7448 20.8294 18.571C22.1936 17.9572 22.6562 17.2699 22.6562 16.7969V15.424ZM15.625 15.625C16.6784 15.625 17.6712 15.5271 18.5623 15.3547C18.5862 15.3488 18.6106 15.344 18.6353 15.3404C19.4691 15.1742 20.2119 14.9425 20.8294 14.6647C22.1936 14.0509 22.6562 13.3636 22.6562 12.8906C22.6562 12.4836 22.318 11.9077 21.2757 11.3405C20.4476 10.8898 19.3079 10.5266 17.9688 10.3249V12.1094C17.9688 13.5797 16.6834 14.6502 15.2204 15.3084C14.9995 15.4078 14.7676 15.5013 14.5257 15.5886C14.8837 15.6125 15.2508 15.625 15.625 15.625Z" fill="black"/>
</svg>
