<svg width="25" height="25" viewBox="0 0 25 25" fill="none" xmlns="http://www.w3.org/2000/svg">
<path fill-rule="evenodd" clip-rule="evenodd" d="M3.90625 14.0625C4.33772 14.0625 4.6875 14.4123 4.6875 14.8438V20.3125H20.3125V14.8438C20.3125 14.4123 20.6623 14.0625 21.0938 14.0625C21.5252 14.0625 21.875 14.4123 21.875 14.8438V20.3125C21.875 20.7269 21.7104 21.1243 21.4174 21.4174C21.1243 21.7104 20.7269 21.875 20.3125 21.875H4.6875C4.2731 21.875 3.87567 21.7104 3.58265 21.4174C3.28962 21.1243 3.125 20.7269 3.125 20.3125V14.8438C3.125 14.4123 3.47478 14.0625 3.90625 14.0625Z" fill="white"/>
<path fill-rule="evenodd" clip-rule="evenodd" d="M12.5 3.125C12.9315 3.125 13.2812 3.47478 13.2812 3.90625V14.8438C13.2812 15.2752 12.9315 15.625 12.5 15.625C12.0685 15.625 11.7188 15.2752 11.7188 14.8438V3.90625C11.7188 3.47478 12.0685 3.125 12.5 3.125Z" fill="white"/>
<path fill-rule="evenodd" clip-rule="evenodd" d="M7.84601 10.1898C8.15111 9.88466 8.64577 9.88466 8.95086 10.1898L12.5 13.7389L16.0491 10.1898C16.3542 9.88466 16.8489 9.88466 17.154 10.1898C17.4591 10.4949 17.4591 10.9895 17.154 11.2946L13.0524 15.3962C12.7473 15.7013 12.2527 15.7013 11.9476 15.3962L7.84601 11.2946C7.54091 10.9895 7.54091 10.4949 7.84601 10.1898Z" fill="white"/>
</svg>
