<svg width="25" height="25" viewBox="0 0 25 25" fill="none" xmlns="http://www.w3.org/2000/svg">
<path fill-rule="evenodd" clip-rule="evenodd" d="M3.90625 12.5C3.90625 7.7538 7.7538 3.90625 12.5 3.90625C17.2462 3.90625 21.0938 7.7538 21.0938 12.5C21.0938 16.9828 17.6613 20.664 13.2813 21.0587L13.2813 14.8438H15.625C16.0565 14.8438 16.4062 14.494 16.4062 14.0625C16.4062 13.631 16.0565 13.2812 15.625 13.2812H13.2813L13.2813 10.9375L13.2813 10.9342C13.2804 10.7292 13.3201 10.5261 13.3982 10.3365C13.4762 10.147 13.5911 9.97473 13.736 9.82977C13.881 9.68481 14.0532 9.56999 14.2428 9.49193C14.4323 9.41388 14.6355 9.37414 14.8405 9.375H16.4063C16.8377 9.375 17.1875 9.02522 17.1875 8.59375C17.1875 8.16228 16.8377 7.8125 16.4063 7.8125H14.8453C13.1185 7.8125 11.7188 9.2123 11.7188 10.939V13.2812H9.375C8.94353 13.2812 8.59375 13.631 8.59375 14.0625C8.59375 14.494 8.94353 14.8438 9.375 14.8438H11.7188V21.0587C7.33868 20.664 3.90625 16.9828 3.90625 12.5ZM12.5 22.6562C18.1091 22.6562 22.6562 18.1091 22.6562 12.5C22.6562 6.89086 18.1091 2.34375 12.5 2.34375C6.89086 2.34375 2.34375 6.89086 2.34375 12.5C2.34375 18.1091 6.89086 22.6562 12.5 22.6562Z" fill="white"/>
</svg>
