<svg width="83" height="69" viewBox="0 0 83 69" fill="none" xmlns="http://www.w3.org/2000/svg">
<path d="M0.460076 68.3097C0.440423 68.3101 0.420909 68.3064 0.402702 68.299C0.384496 68.2916 0.367971 68.2806 0.354116 68.2666C0.339952 68.2528 0.32876 68.2361 0.321223 68.2178C0.313685 68.1995 0.309959 68.1798 0.310271 68.1599V64.0933C0.309559 64.0726 0.313081 64.0521 0.320622 64.0328C0.328163 64.0136 0.339562 63.9961 0.354116 63.9815C0.367909 63.9674 0.384407 63.9563 0.402616 63.9487C0.420825 63.9412 0.440371 63.9374 0.460076 63.9376H3.20919C3.22991 63.9367 3.2506 63.9401 3.26994 63.9476C3.28929 63.955 3.30687 63.9665 3.32157 63.9811C3.33627 63.9957 3.34777 64.0133 3.35534 64.0326C3.36292 64.0519 3.3664 64.0726 3.36557 64.0933V64.5062C3.36579 64.5259 3.36201 64.5454 3.35448 64.5636C3.34694 64.5818 3.3358 64.5983 3.32173 64.6121C3.30696 64.6267 3.28936 64.6382 3.27 64.6457C3.25064 64.6532 3.22995 64.6567 3.20919 64.656H1.1543V65.7616H3.07181C3.11313 65.7598 3.15351 65.7742 3.18434 65.8018C3.19887 65.816 3.21028 65.8331 3.21783 65.852C3.22538 65.8708 3.22891 65.8911 3.22819 65.9114V66.2987C3.22891 66.319 3.22538 66.3393 3.21783 66.3581C3.21028 66.377 3.19887 66.3941 3.18434 66.4083C3.15351 66.4359 3.11313 66.4503 3.07181 66.4485H1.1543V67.5914H3.25961C3.28036 67.5907 3.30103 67.5943 3.32038 67.6018C3.33972 67.6093 3.35733 67.6207 3.37215 67.6353C3.38646 67.6502 3.39764 67.6679 3.40504 67.6872C3.41244 67.7065 3.41592 67.7271 3.41526 67.7478V68.1599C3.41567 68.1797 3.41206 68.1994 3.40465 68.2177C3.39724 68.236 3.38618 68.2527 3.37215 68.2666C3.3573 68.2811 3.33966 68.2923 3.32031 68.2998C3.30097 68.3072 3.28031 68.3106 3.25961 68.3097H0.460076ZM1.49118 63.6249C1.47761 63.627 1.46375 63.6258 1.4507 63.6216C1.43766 63.6173 1.42579 63.6101 1.41605 63.6004C1.40631 63.5908 1.39898 63.5789 1.39464 63.5659C1.3903 63.5529 1.38907 63.5391 1.39106 63.5255C1.39043 63.5104 1.39289 63.4954 1.3983 63.4813C1.4037 63.4672 1.41193 63.4544 1.42248 63.4436L1.92817 62.8254C1.95819 62.7886 1.99428 62.7572 2.03486 62.7326C2.07434 62.716 2.11705 62.7085 2.15982 62.7107H2.82846C2.84463 62.7088 2.86102 62.7107 2.87635 62.7162C2.89167 62.7217 2.90551 62.7306 2.91677 62.7424C2.92803 62.7542 2.93641 62.7684 2.94125 62.7839C2.94609 62.7995 2.94725 62.8159 2.94466 62.832C2.9447 62.8456 2.942 62.8591 2.93673 62.8716C2.93146 62.8842 2.92372 62.8956 2.91396 62.9051L2.14082 63.5437C2.11218 63.57 2.07932 63.5912 2.04363 63.6066C2.00443 63.6202 1.96305 63.6264 1.92159 63.6249H1.49118Z" fill="white"/>
<path d="M4.27092 68.3096C4.25126 68.3099 4.23175 68.3062 4.21354 68.2988C4.19534 68.2914 4.17881 68.2804 4.16496 68.2665C4.15079 68.2526 4.1396 68.236 4.13206 68.2176C4.12453 68.1993 4.1208 68.1796 4.12111 68.1598V65.2119C4.1208 65.1921 4.12453 65.1724 4.13206 65.1541C4.1396 65.1357 4.15079 65.1191 4.16496 65.1052C4.17875 65.0911 4.19525 65.08 4.21346 65.0725C4.23167 65.0649 4.25121 65.0612 4.27092 65.0614H4.75833C4.77816 65.0611 4.79785 65.0648 4.81619 65.0723C4.83453 65.0799 4.85115 65.0911 4.86502 65.1052C4.87906 65.1192 4.89011 65.1358 4.89752 65.1541C4.90493 65.1725 4.90855 65.1921 4.90814 65.2119V65.4238C5.00343 65.301 5.12374 65.1999 5.2611 65.1271C5.42426 65.0424 5.60556 64.9985 5.78943 64.9993C6.26345 64.9915 6.59449 65.1768 6.78253 65.5554C6.88144 65.3855 7.02499 65.246 7.19761 65.152C7.38186 65.0495 7.58966 64.9969 7.80048 64.9993C8.00702 64.9966 8.21064 65.0483 8.39093 65.1491C8.57281 65.2546 8.71871 65.4125 8.80966 65.6021C8.91936 65.8418 8.97165 66.1038 8.96239 66.3672V68.1598C8.9627 68.1796 8.95897 68.1993 8.95144 68.2176C8.9439 68.236 8.93271 68.2526 8.91854 68.2665C8.90469 68.2804 8.88816 68.2914 8.86996 68.2988C8.85175 68.3062 8.83224 68.3099 8.81258 68.3096H8.30105C8.2814 68.3099 8.26188 68.3062 8.24368 68.2988C8.22547 68.2914 8.20895 68.2804 8.19509 68.2665C8.18093 68.2526 8.16973 68.236 8.1622 68.2176C8.15466 68.1993 8.15093 68.1796 8.15125 68.1598V66.4169C8.15797 66.2639 8.13025 66.1113 8.07013 65.9704C8.02541 65.8701 7.94818 65.7877 7.8509 65.7366C7.75568 65.6899 7.65076 65.6664 7.54472 65.6679C7.44898 65.6687 7.3548 65.6923 7.26995 65.7366C7.17182 65.7884 7.09292 65.8704 7.04488 65.9704C6.98027 66.1101 6.95019 66.2632 6.95719 66.4169V68.1598C6.9575 68.1796 6.95377 68.1993 6.94623 68.2176C6.9387 68.236 6.9275 68.2526 6.91334 68.2665C6.89949 68.2804 6.88296 68.2914 6.86475 68.2988C6.84655 68.3062 6.82703 68.3099 6.80738 68.3096H6.29585C6.27556 68.3107 6.25526 68.3074 6.23635 68.3C6.21744 68.2925 6.20035 68.2811 6.18624 68.2665C6.15944 68.2375 6.14501 68.1992 6.14604 68.1598V66.4169C6.15304 66.2632 6.12296 66.1101 6.05835 65.9704C6.01031 65.8704 5.93141 65.7884 5.83328 65.7366C5.74264 65.6909 5.64247 65.6674 5.54098 65.6679C5.4426 65.6687 5.34595 65.6938 5.25963 65.741C5.16261 65.7943 5.0841 65.8758 5.03456 65.9748C4.97006 66.1134 4.94021 66.2657 4.9476 66.4184V68.1612C4.94809 68.1807 4.94467 68.2001 4.93754 68.2183C4.93042 68.2365 4.91973 68.253 4.90611 68.267C4.89249 68.2809 4.87621 68.292 4.85824 68.2996C4.84026 68.3072 4.82095 68.3111 4.80145 68.3111L4.27092 68.3096Z" fill="white"/>
<path d="M11.1927 68.3726C10.9027 68.382 10.6146 68.3221 10.3523 68.198C10.1337 68.0892 9.95289 67.917 9.83351 67.704C9.71013 67.475 9.64088 67.2207 9.63109 66.9608C9.6267 66.8877 9.62451 66.7942 9.62451 66.686C9.62451 66.5779 9.62451 66.4858 9.63109 66.4113C9.64021 66.1492 9.71187 65.8932 9.84009 65.6644C9.96377 65.4536 10.1461 65.2832 10.3648 65.1741C10.6254 65.0588 10.9073 64.9993 11.1924 64.9993C11.4774 64.9993 11.7593 65.0588 12.0199 65.1741C12.2387 65.2832 12.4209 65.4536 12.5446 65.6644C12.6728 65.8932 12.7446 66.1492 12.7544 66.4113C12.7544 66.4844 12.7602 66.5779 12.7602 66.686C12.7602 66.7942 12.7602 66.8863 12.7544 66.9608C12.7436 67.22 12.6742 67.4734 12.5512 67.7018C12.432 67.915 12.2511 68.0872 12.0324 68.1958C11.7705 68.3206 11.4827 68.3812 11.1927 68.3726ZM11.1927 67.7544C11.2882 67.7598 11.3837 67.7438 11.4722 67.7075C11.5607 67.6712 11.64 67.6156 11.7043 67.5447C11.8248 67.4051 11.8913 67.2005 11.9037 66.9294C11.9081 66.8675 11.9103 66.7864 11.9103 66.686C11.9103 66.5857 11.9081 66.5046 11.9037 66.4427C11.8911 66.1762 11.8246 65.9721 11.7043 65.8303C11.5686 65.6947 11.3846 65.6185 11.1927 65.6185C11.0009 65.6185 10.8169 65.6947 10.6812 65.8303C10.5599 65.9721 10.4931 66.1762 10.481 66.4427C10.4766 66.5048 10.4751 66.5888 10.4751 66.686C10.4751 66.7832 10.4751 66.8673 10.481 66.9294C10.4934 67.2005 10.5599 67.4051 10.6812 67.5447C10.7454 67.6156 10.8247 67.6712 10.9132 67.7075C11.0017 67.7438 11.0972 67.7598 11.1927 67.7544Z" fill="white"/>
<path d="M14.8969 68.3098C14.679 68.317 14.4626 68.2721 14.2655 68.179C14.0987 68.095 13.9647 67.9576 13.8848 67.7888C13.7953 67.5853 13.7526 67.3643 13.7598 67.1421V65.7237H13.2666C13.2471 65.7242 13.2277 65.7207 13.2095 65.7136C13.1914 65.7065 13.1748 65.6958 13.1609 65.6822C13.1469 65.6686 13.1358 65.6523 13.1282 65.6343C13.1207 65.6163 13.1168 65.597 13.1168 65.5775V65.2121C13.1162 65.1923 13.1196 65.1725 13.1269 65.154C13.1342 65.1355 13.1452 65.1187 13.1593 65.1046C13.1733 65.0905 13.19 65.0794 13.2085 65.072C13.2269 65.0646 13.2467 65.0611 13.2666 65.0616H13.7598V64.0247C13.759 63.9855 13.7734 63.9475 13.8 63.9187C13.8142 63.9042 13.8313 63.8928 13.8502 63.8852C13.8691 63.8777 13.8893 63.8741 13.9096 63.8748H14.4175C14.4371 63.8743 14.4566 63.8776 14.4748 63.8847C14.493 63.8918 14.5097 63.9024 14.5237 63.9161C14.5377 63.9297 14.5489 63.946 14.5565 63.964C14.5641 63.9821 14.5681 64.0014 14.5681 64.021V65.0579H15.3485C15.3683 65.0576 15.388 65.0614 15.4064 65.0689C15.4247 65.0764 15.4413 65.0876 15.4552 65.1018C15.4692 65.1157 15.4803 65.1324 15.4877 65.1507C15.4951 65.1691 15.4987 65.1887 15.4983 65.2085V65.5739C15.4987 65.5936 15.4951 65.6133 15.4877 65.6316C15.4803 65.65 15.4692 65.6666 15.4552 65.6806C15.4413 65.6946 15.4246 65.7056 15.4063 65.713C15.3879 65.7205 15.3683 65.7241 15.3485 65.7237H14.5637V67.0792C14.556 67.2185 14.5874 67.3572 14.6543 67.4797C14.7142 67.5771 14.8192 67.6258 14.9692 67.6258H15.4004C15.4202 67.6253 15.4399 67.6289 15.4583 67.6362C15.4767 67.6436 15.4934 67.6546 15.5074 67.6686C15.5214 67.6826 15.5325 67.6993 15.5398 67.7177C15.5472 67.7361 15.5507 67.7558 15.5502 67.7756V68.1629C15.5505 68.1828 15.5468 68.2024 15.5392 68.2208C15.5317 68.2391 15.5205 68.2558 15.5063 68.2696C15.4925 68.2836 15.476 68.2946 15.4578 68.302C15.4396 68.3094 15.42 68.313 15.4004 68.3127L14.8969 68.3098Z" fill="white"/>
<path d="M16.2335 64.5243C16.214 64.5253 16.1946 64.5223 16.1764 64.5153C16.1581 64.5083 16.1416 64.4976 16.1278 64.4838C16.114 64.47 16.1033 64.4535 16.0963 64.4353C16.0894 64.4171 16.0863 64.3976 16.0874 64.3781V63.9287C16.0863 63.8893 16.1008 63.851 16.1276 63.822C16.1418 63.8075 16.1589 63.7961 16.1777 63.7885C16.1966 63.781 16.2169 63.7775 16.2372 63.7782H16.8057C16.8264 63.7776 16.847 63.7813 16.8664 63.7888C16.8857 63.7963 16.9033 63.8076 16.9182 63.822C16.9323 63.836 16.9433 63.8526 16.9507 63.8709C16.9581 63.8893 16.9618 63.9089 16.9613 63.9287V64.3781C16.9622 64.3984 16.9587 64.4186 16.9513 64.4375C16.9439 64.4563 16.9326 64.4735 16.9182 64.4877C16.8873 64.5152 16.847 64.5296 16.8057 64.5279L16.2335 64.5243ZM16.2584 68.3096C16.2387 68.3099 16.2192 68.3062 16.201 68.2988C16.1828 68.2914 16.1663 68.2804 16.1524 68.2665C16.1382 68.2526 16.127 68.236 16.1195 68.2176C16.112 68.1993 16.1082 68.1796 16.1086 68.1598V65.2119C16.1082 65.1921 16.112 65.1724 16.1195 65.1541C16.127 65.1357 16.1382 65.1191 16.1524 65.1052C16.1662 65.0911 16.1827 65.08 16.2009 65.0725C16.2191 65.0649 16.2387 65.0612 16.2584 65.0614H16.7772C16.7974 65.0605 16.8176 65.0639 16.8364 65.0715C16.8552 65.0791 16.8721 65.0906 16.8861 65.1052C16.9131 65.1341 16.9278 65.1724 16.927 65.2119V68.1598C16.9278 68.1993 16.9131 68.2376 16.8861 68.2665C16.8721 68.281 16.8551 68.2924 16.8363 68.2999C16.8175 68.3073 16.7974 68.3106 16.7772 68.3096H16.2584Z" fill="white"/>
<path d="M19.2127 68.3726C18.923 68.3819 18.6352 68.322 18.3731 68.198C18.1532 68.0892 17.9715 67.9161 17.8521 67.7018C17.7288 67.4727 17.6593 67.2186 17.6489 66.9586C17.6445 66.8855 17.6431 66.792 17.6431 66.6838C17.6431 66.5757 17.6431 66.4836 17.6489 66.4091C17.6583 66.147 17.7302 65.8909 17.8586 65.6622C17.9823 65.4514 18.1646 65.2811 18.3833 65.1719C18.644 65.0566 18.9259 64.9971 19.2109 64.9971C19.4959 64.9971 19.7778 65.0566 20.0385 65.1719C20.2571 65.2813 20.4393 65.4516 20.5632 65.6622C20.6924 65.8915 20.7651 66.1483 20.7751 66.4113C20.7795 66.4844 20.7817 66.5779 20.7817 66.686C20.7817 66.7942 20.7817 66.8863 20.7751 66.9608C20.7645 67.2201 20.6948 67.4736 20.5712 67.7018C20.4521 67.9148 20.2715 68.087 20.0531 68.1958C19.791 68.3205 19.5029 68.3811 19.2127 68.3726ZM19.2127 67.7544C19.3082 67.7598 19.4038 67.7438 19.4923 67.7075C19.5808 67.6712 19.6601 67.6156 19.7243 67.5447C19.8448 67.4051 19.9121 67.2005 19.9245 66.9294C19.9281 66.8673 19.9303 66.7832 19.9303 66.686C19.9303 66.5888 19.9303 66.5048 19.9245 66.4427C19.9121 66.176 19.8448 65.9721 19.7243 65.8303C19.5886 65.6947 19.4046 65.6185 19.2127 65.6185C19.0209 65.6185 18.8369 65.6947 18.7012 65.8303C18.5804 65.9721 18.5139 66.1762 18.5017 66.4427C18.4973 66.5051 18.4951 66.5862 18.4951 66.686C18.4951 66.7859 18.4973 66.867 18.5017 66.9294C18.5141 67.2005 18.5806 67.4051 18.7012 67.5447C18.7654 67.6156 18.8447 67.6712 18.9332 67.7075C19.0217 67.7438 19.1172 67.7598 19.2127 67.7544Z" fill="white"/>
<path d="M21.6242 68.3098C21.6044 68.3103 21.5847 68.3067 21.5663 68.2994C21.5479 68.292 21.5312 68.281 21.5172 68.267C21.5032 68.253 21.4922 68.2363 21.4848 68.2179C21.4775 68.1995 21.4739 68.1798 21.4744 68.16V65.2121C21.4738 65.1922 21.4773 65.1724 21.4846 65.1539C21.4919 65.1355 21.5029 65.1186 21.5169 65.1046C21.5309 65.0905 21.5477 65.0794 21.5661 65.072C21.5846 65.0646 21.6044 65.061 21.6242 65.0615H22.1358C22.1555 65.0613 22.175 65.0651 22.1932 65.0726C22.2114 65.0802 22.2279 65.0913 22.2417 65.1054C22.2559 65.1193 22.2671 65.1359 22.2746 65.1542C22.2822 65.1726 22.2859 65.1923 22.2856 65.2121V65.4678C22.411 65.3129 22.5712 65.1896 22.7531 65.108C22.935 65.0263 23.1336 64.9886 23.3328 64.998C23.5652 64.9921 23.7945 65.0516 23.9948 65.1697C24.1836 65.2862 24.3344 65.455 24.4289 65.6557C24.5363 65.8904 24.5886 66.1466 24.5816 66.4047V68.1585C24.5819 68.1783 24.5782 68.198 24.5707 68.2164C24.5631 68.2347 24.5519 68.2513 24.5378 68.2652C24.5239 68.2791 24.5074 68.2901 24.4892 68.2976C24.471 68.305 24.4515 68.3086 24.4318 68.3083H23.8823C23.8624 68.3089 23.8426 68.3055 23.8241 68.2982C23.8057 68.2908 23.7888 68.2798 23.7748 68.2658C23.7607 68.2518 23.7496 68.2351 23.7422 68.2166C23.7348 68.1981 23.7312 68.1784 23.7317 68.1585V66.4412C23.7317 66.1976 23.6726 66.0081 23.5542 65.8727C23.4358 65.7373 23.2641 65.6686 23.039 65.6666C22.9428 65.6622 22.8468 65.6783 22.7574 65.7138C22.6679 65.7493 22.5871 65.8035 22.5201 65.8727C22.391 66.0101 22.3265 66.1996 22.3265 66.4412V68.1585C22.3268 68.1783 22.3231 68.198 22.3155 68.2164C22.308 68.2347 22.2968 68.2513 22.2827 68.2652C22.2688 68.2791 22.2523 68.2901 22.2341 68.2976C22.2159 68.305 22.1963 68.3086 22.1767 68.3083L21.6242 68.3098Z" fill="white"/>
<path d="M25.4841 68.3097C25.4645 68.31 25.445 68.3063 25.4268 68.2989C25.4086 68.2915 25.392 68.2805 25.3782 68.2666C25.364 68.2527 25.3528 68.2361 25.3453 68.2177C25.3377 68.1994 25.334 68.1797 25.3343 68.1599V67.5417C25.3336 67.5209 25.3371 67.5002 25.3446 67.4808C25.3521 67.4615 25.3636 67.4439 25.3782 67.4291C25.392 67.415 25.4085 67.4039 25.4267 67.3964C25.4449 67.3888 25.4644 67.3851 25.4841 67.3853H26.1097C26.1295 67.385 26.1492 67.3887 26.1675 67.3962C26.1859 67.4038 26.2025 67.415 26.2164 67.4291C26.2307 67.444 26.242 67.4617 26.2494 67.481C26.2568 67.5003 26.2602 67.521 26.2595 67.5417V68.1599C26.2599 68.1797 26.2563 68.1993 26.2489 68.2176C26.2414 68.236 26.2304 68.2526 26.2164 68.2666C26.2024 68.2806 26.1858 68.2917 26.1674 68.2991C26.1491 68.3065 26.1294 68.3101 26.1097 68.3097H25.4841Z" fill="white"/>
<path d="M28.7017 68.3097C28.6819 68.3101 28.6622 68.3064 28.6439 68.299C28.6255 68.2916 28.6089 68.2806 28.595 68.2665C28.5808 68.2527 28.5696 68.236 28.5621 68.2177C28.5545 68.1994 28.5508 68.1797 28.5511 68.1598V64.0932C28.5504 64.0725 28.5539 64.052 28.5615 64.0327C28.569 64.0135 28.5804 63.996 28.595 63.9814C28.6088 63.9672 28.6255 63.956 28.6438 63.9485C28.6621 63.9409 28.6818 63.9372 28.7017 63.9375H30.3188C30.823 63.9375 31.2208 64.054 31.5121 64.2868C31.8035 64.5197 31.9496 64.8593 31.9506 65.3055C31.961 65.5796 31.8809 65.8495 31.7226 66.0735C31.5685 66.2792 31.3562 66.4337 31.1132 66.5171L32.0251 68.1102C32.0367 68.1313 32.0432 68.1548 32.0441 68.1788C32.0445 68.1965 32.041 68.214 32.0339 68.2301C32.0269 68.2462 32.0164 68.2607 32.0032 68.2724C31.979 68.2961 31.9465 68.3095 31.9126 68.3097H31.3441C31.3146 68.3117 31.2851 68.3077 31.2572 68.2981C31.2293 68.2884 31.2037 68.2732 31.1818 68.2534C31.1478 68.2202 31.1183 68.1826 31.0942 68.1416L30.2903 66.6611H29.42V68.1598C29.4207 68.1994 29.4061 68.2376 29.3791 68.2665C29.365 68.2812 29.3479 68.2926 29.3289 68.3C29.31 68.3075 29.2897 68.3107 29.2694 68.3097H28.7017ZM29.42 65.9551H30.3006C30.5541 65.9551 30.7441 65.8981 30.8691 65.7834C30.9332 65.7208 30.9831 65.6451 31.0153 65.5615C31.0476 65.4779 31.0615 65.3884 31.0562 65.2989C31.0611 65.2089 31.0473 65.1188 31.0156 65.0344C30.9839 64.95 30.935 64.8731 30.872 64.8086C30.7492 64.6902 30.5588 64.631 30.3006 64.631H29.42V65.9551Z" fill="white"/>
<path d="M34.0421 68.3727C33.5803 68.3727 33.2149 68.2394 32.946 67.9729C32.6771 67.7065 32.5309 67.3274 32.5076 66.8359C32.5076 66.7942 32.5017 66.7416 32.5017 66.6766C32.5017 66.6115 32.5017 66.5611 32.5076 66.5238C32.5176 66.2398 32.5926 65.9618 32.7268 65.7112C32.8482 65.488 33.0317 65.3048 33.2551 65.1836C33.4977 65.0565 33.7684 64.9927 34.0421 64.998C34.3393 64.9878 34.6335 65.0601 34.892 65.207C35.1196 65.3454 35.3001 65.5491 35.4101 65.7916C35.5317 66.0615 35.5916 66.3551 35.5855 66.651V66.7818C35.5858 66.8016 35.5821 66.8213 35.5746 66.8397C35.567 66.858 35.5558 66.8746 35.5417 66.8885C35.5267 66.9028 35.5091 66.914 35.4897 66.9214C35.4704 66.9288 35.4498 66.9323 35.4291 66.9316H33.3552V66.982C33.3576 67.1203 33.3861 67.257 33.4393 67.3847C33.4877 67.503 33.5678 67.6057 33.6709 67.6814C33.7771 67.7579 33.9055 67.7975 34.0363 67.7939C34.2149 67.8001 34.3891 67.7376 34.523 67.6193C34.5621 67.5852 34.5978 67.5475 34.6297 67.5067C34.6526 67.47 34.6836 67.439 34.7203 67.4161C34.7532 67.4039 34.7883 67.3984 34.8233 67.4H35.3604C35.3984 67.3988 35.4354 67.4124 35.4635 67.438C35.4764 67.4496 35.4863 67.4642 35.4923 67.4805C35.4983 67.4968 35.5002 67.5143 35.4978 67.5316C35.4846 67.6201 35.4492 67.7038 35.3948 67.7749C35.318 67.8833 35.2239 67.9783 35.1164 68.0562C34.9789 68.1563 34.8262 68.2333 34.664 68.2842C34.4628 68.3466 34.2528 68.3765 34.0421 68.3727ZM33.3552 66.4047H34.7327V66.3865C34.736 66.2406 34.7084 66.0956 34.6516 65.9612C34.601 65.845 34.5187 65.7455 34.4141 65.674C34.3335 65.6177 34.2413 65.5803 34.1443 65.5644C34.0473 65.5485 33.9479 65.5546 33.8536 65.5821C33.7592 65.6097 33.6722 65.658 33.599 65.7236C33.5258 65.7892 33.4682 65.8704 33.4305 65.9612C33.3755 66.096 33.3489 66.2408 33.3523 66.3865L33.3552 66.4047Z" fill="white"/>
<path d="M36.4032 68.3098C36.3836 68.3101 36.3641 68.3064 36.3459 68.299C36.3277 68.2916 36.3111 68.2806 36.2973 68.2667C36.2831 68.2528 36.2719 68.2362 36.2644 68.2178C36.2569 68.1995 36.2531 68.1798 36.2534 68.16V64.0246C36.2534 64.0051 36.2573 63.9858 36.2649 63.9678C36.2725 63.9499 36.2836 63.9336 36.2975 63.92C36.3115 63.9063 36.328 63.8956 36.3462 63.8885C36.3643 63.8814 36.3837 63.878 36.4032 63.8785H36.925C36.9638 63.8785 37.0009 63.8939 37.0283 63.9213C37.0558 63.9487 37.0712 63.9859 37.0712 64.0246V68.16C37.0715 68.1798 37.0677 68.1995 37.0602 68.2178C37.0527 68.2362 37.0415 68.2528 37.0273 68.2667C37.0135 68.2806 36.9969 68.2916 36.9787 68.299C36.9605 68.3064 36.941 68.3101 36.9214 68.3098H36.4032Z" fill="white"/>
<path d="M38.8461 68.3726C38.644 68.3749 38.4441 68.3312 38.2614 68.2447C38.0963 68.1671 37.9535 68.049 37.8464 67.9012C37.7183 67.7175 37.6675 67.4908 37.7048 67.27C37.7421 67.0492 37.8646 66.8518 38.0459 66.7203C38.2812 66.5479 38.5925 66.428 38.9798 66.3739L39.8355 66.249V66.1174C39.8447 65.9704 39.7979 65.8252 39.7047 65.7111C39.617 65.6137 39.467 65.565 39.2545 65.565C39.1266 65.5592 38.9996 65.5907 38.8892 65.6556C38.7974 65.7134 38.7246 65.7971 38.6802 65.896C38.6657 65.9218 38.6444 65.943 38.6186 65.9573C38.5928 65.9716 38.5635 65.9785 38.534 65.9771H38.0408C38.0219 65.9786 38.003 65.976 37.9852 65.9696C37.9675 65.9632 37.9513 65.953 37.9377 65.9399C37.9136 65.9123 37.9013 65.8763 37.9034 65.8398C37.9135 65.754 37.9411 65.6711 37.9845 65.5964C38.0444 65.4888 38.1252 65.3941 38.222 65.318C38.3478 65.2191 38.4894 65.142 38.6407 65.09C38.8398 65.0232 39.049 64.9916 39.2589 64.9965C39.4844 64.9909 39.7093 65.0235 39.9239 65.0929C40.086 65.1462 40.2343 65.2348 40.358 65.3523C40.4657 65.4593 40.547 65.5899 40.5955 65.7338C40.6452 65.8826 40.6699 66.0387 40.6686 66.1956V68.157C40.6691 68.1769 40.6655 68.1966 40.6581 68.2151C40.6507 68.2335 40.6396 68.2503 40.6256 68.2643C40.6115 68.2783 40.5947 68.2893 40.5762 68.2966C40.5577 68.3039 40.5379 68.3074 40.518 68.3068H40.0123C39.9921 68.3079 39.9718 68.3046 39.9528 68.2972C39.9339 68.2897 39.9168 68.2783 39.9027 68.2637C39.8759 68.2347 39.8615 68.1964 39.8625 68.157V67.9136C39.8018 67.9981 39.7278 68.0721 39.6433 68.1329C39.5415 68.2067 39.4285 68.2636 39.3086 68.3017C39.1592 68.3499 39.003 68.3738 38.8461 68.3726ZM39.058 67.7792C39.1959 67.781 39.3322 67.7489 39.4548 67.6856C39.5765 67.6197 39.6748 67.5175 39.7361 67.3933C39.81 67.2387 39.8453 67.0684 39.8392 66.8972V66.7656L39.2144 66.8657C39.0202 66.8854 38.8326 66.9472 38.6648 67.047C38.611 67.0783 38.5661 67.1229 38.5344 67.1765C38.5027 67.2301 38.4852 67.2909 38.4836 67.3532C38.4814 67.4389 38.5114 67.5223 38.5676 67.587C38.6254 67.6539 38.6997 67.7043 38.7832 67.7331C38.8715 67.764 38.9644 67.7795 39.058 67.7792Z" fill="white"/>
<path d="M42.9061 68.3096C42.6885 68.3168 42.4723 68.272 42.2755 68.1788C42.1083 68.095 41.974 67.9576 41.894 67.7886C41.8046 67.5851 41.7619 67.3641 41.7691 67.1419V65.7235H41.2758C41.2561 65.7238 41.2366 65.7201 41.2184 65.7127C41.2002 65.7053 41.1837 65.6943 41.1698 65.6804C41.1557 65.6665 41.1445 65.6499 41.1369 65.6315C41.1294 65.6132 41.1257 65.5935 41.126 65.5737V65.2083C41.1257 65.1885 41.1294 65.1688 41.1369 65.1504C41.1445 65.1321 41.1557 65.1155 41.1698 65.1016C41.1836 65.0875 41.2001 65.0764 41.2183 65.0688C41.2366 65.0613 41.2561 65.0575 41.2758 65.0577H41.7691V64.0245C41.7684 63.9852 41.7831 63.9472 41.81 63.9185C41.8239 63.9038 41.8409 63.8923 41.8597 63.8848C41.8785 63.8772 41.8986 63.8738 41.9189 63.8746H42.4253C42.4448 63.8742 42.4642 63.8776 42.4823 63.8847C42.5005 63.8918 42.517 63.9025 42.531 63.9161C42.545 63.9298 42.5561 63.946 42.5636 63.964C42.5712 63.982 42.5751 64.0013 42.5751 64.0208V65.0577H43.3555C43.3754 65.0574 43.3951 65.0612 43.4134 65.0687C43.4317 65.0762 43.4484 65.0874 43.4622 65.1016C43.4764 65.1155 43.4876 65.1321 43.4951 65.1504C43.5027 65.1688 43.5064 65.1885 43.5061 65.2083V65.5737C43.5064 65.5935 43.5027 65.6132 43.4951 65.6315C43.4876 65.6499 43.4764 65.6665 43.4622 65.6804C43.4483 65.6944 43.4316 65.7054 43.4133 65.7129C43.395 65.7203 43.3753 65.7239 43.3555 65.7235H42.5751V67.079C42.5674 67.2183 42.5988 67.357 42.6657 67.4795C42.7256 67.5769 42.8309 67.6256 42.9814 67.6256H43.4118C43.4316 67.6251 43.4513 67.6287 43.4697 67.636C43.4881 67.6434 43.5048 67.6544 43.5189 67.6684C43.5329 67.6824 43.5439 67.6991 43.5512 67.7175C43.5586 67.7359 43.5621 67.7556 43.5616 67.7754V68.1627C43.562 68.1825 43.5584 68.2022 43.551 68.2205C43.5436 68.2389 43.5325 68.2555 43.5185 68.2694C43.5046 68.2835 43.4879 68.2945 43.4696 68.3019C43.4512 68.3093 43.4316 68.313 43.4118 68.3125L42.9061 68.3096Z" fill="white"/>
<path d="M44.2428 64.5243C44.2233 64.5253 44.2038 64.5223 44.1856 64.5153C44.1674 64.5083 44.1509 64.4976 44.1371 64.4838C44.1233 64.47 44.1126 64.4535 44.1056 64.4353C44.0986 64.4171 44.0956 64.3976 44.0966 64.3781V63.9287C44.0956 63.8893 44.11 63.851 44.1368 63.822C44.151 63.8075 44.1681 63.7961 44.187 63.7885C44.2059 63.781 44.2261 63.7775 44.2464 63.7782H44.815C44.8357 63.7776 44.8564 63.7811 44.8757 63.7887C44.895 63.7962 44.9126 63.8075 44.9275 63.822C44.9417 63.8359 44.9529 63.8525 44.9604 63.8708C44.9679 63.8892 44.9717 63.9089 44.9714 63.9287V64.3781C44.9724 64.3985 44.969 64.4188 44.9614 64.4377C44.9538 64.4566 44.9423 64.4737 44.9275 64.4877C44.8967 64.5153 44.8563 64.5297 44.815 64.5279L44.2428 64.5243ZM44.2676 68.3096C44.248 68.3099 44.2285 68.3062 44.2103 68.2988C44.1921 68.2914 44.1755 68.2804 44.1617 68.2665C44.1475 68.2526 44.1363 68.236 44.1288 68.2176C44.1212 68.1993 44.1175 68.1796 44.1178 68.1598V65.2119C44.1175 65.1921 44.1212 65.1724 44.1288 65.1541C44.1363 65.1357 44.1475 65.1191 44.1617 65.1052C44.1755 65.0911 44.192 65.08 44.2102 65.0725C44.2284 65.0649 44.2479 65.0612 44.2676 65.0614H44.7865C44.8067 65.0605 44.8269 65.0639 44.8457 65.0715C44.8645 65.0791 44.8814 65.0906 44.8954 65.1052C44.9224 65.1341 44.937 65.1724 44.9363 65.2119V68.1598C44.937 68.1993 44.9224 68.2376 44.8954 68.2665C44.8814 68.281 44.8644 68.2924 44.8456 68.2999C44.8268 68.3073 44.8067 68.3106 44.7865 68.3096H44.2676Z" fill="white"/>
<path d="M47.222 68.3726C46.9322 68.3819 46.6444 68.322 46.3824 68.198C46.1637 68.0892 45.9829 67.917 45.8635 67.704C45.7402 67.4749 45.6708 67.2207 45.6604 66.9608C45.6604 66.8877 45.6545 66.7942 45.6545 66.686C45.6545 66.5779 45.6545 66.4858 45.6604 66.4113C45.6701 66.1492 45.742 65.8932 45.8701 65.6644C45.9938 65.4536 46.1761 65.2832 46.3948 65.1741C46.6555 65.0588 46.9374 64.9993 47.2224 64.9993C47.5074 64.9993 47.7893 65.0588 48.05 65.1741C48.2687 65.2832 48.451 65.4536 48.5746 65.6644C48.7029 65.8932 48.7745 66.1492 48.7836 66.4113C48.788 66.4844 48.7902 66.5779 48.7902 66.686C48.7902 66.7942 48.7902 66.8863 48.7836 66.9608C48.7735 67.22 48.7043 67.4735 48.5812 67.7018C48.4618 67.9149 48.281 68.087 48.0624 68.1958C47.8002 68.3205 47.5122 68.3811 47.222 68.3726ZM47.222 67.7544C47.3175 67.7598 47.413 67.7438 47.5016 67.7075C47.5901 67.6712 47.6693 67.6156 47.7335 67.5447C47.8549 67.4051 47.9214 67.2005 47.9338 66.9294C47.9382 66.8673 47.9396 66.7832 47.9396 66.686C47.9396 66.5888 47.9396 66.5048 47.9338 66.4427C47.9216 66.1762 47.8549 65.9721 47.7335 65.8303C47.5979 65.6947 47.4139 65.6185 47.222 65.6185C47.0302 65.6185 46.8462 65.6947 46.7105 65.8303C46.5897 65.9721 46.5232 66.1762 46.511 66.4427C46.5066 66.5051 46.5044 66.5862 46.5044 66.686C46.5044 66.7859 46.5066 66.867 46.511 66.9294C46.5234 67.2005 46.5899 67.4051 46.7105 67.5447C46.7747 67.6156 46.854 67.6712 46.9425 67.7075C47.031 67.7438 47.1265 67.7598 47.222 67.7544Z" fill="white"/>
<path d="M49.6336 68.3096C49.6139 68.31 49.5944 68.3063 49.5762 68.2989C49.558 68.2915 49.5415 68.2805 49.5276 68.2665C49.5135 68.2526 49.5023 68.236 49.4947 68.2177C49.4872 68.1994 49.4835 68.1797 49.4838 68.1598V65.212C49.4835 65.1921 49.4872 65.1724 49.4947 65.1541C49.5023 65.1358 49.5135 65.1191 49.5276 65.1053C49.5414 65.0912 49.5579 65.0801 49.5761 65.0725C49.5943 65.065 49.6139 65.0612 49.6336 65.0614H50.1451C50.1648 65.0612 50.1844 65.065 50.2026 65.0725C50.2208 65.0801 50.2373 65.0912 50.2511 65.1053C50.2652 65.1191 50.2764 65.1358 50.284 65.1541C50.2915 65.1724 50.2952 65.1921 50.2949 65.212V65.4677C50.4201 65.3131 50.5798 65.1901 50.7611 65.1085C50.9425 65.0269 51.1405 64.989 51.3392 64.9978C51.5716 64.992 51.801 65.0515 52.0012 65.1696C52.1897 65.2858 52.3404 65.454 52.4353 65.6541C52.5428 65.8888 52.595 66.145 52.5881 66.4031V68.1569C52.5884 68.1767 52.5846 68.1964 52.5771 68.2148C52.5696 68.2331 52.5584 68.2497 52.5442 68.2636C52.5303 68.2775 52.5138 68.2886 52.4956 68.296C52.4774 68.3034 52.4579 68.307 52.4382 68.3067H51.8887C51.8689 68.3071 51.8493 68.3035 51.8309 68.2961C51.8126 68.2887 51.796 68.2776 51.782 68.2636C51.768 68.2497 51.7569 68.233 51.7495 68.2147C51.7421 68.1963 51.7385 68.1767 51.7389 68.1569V66.4396C51.7389 66.1977 51.679 66.0085 51.5606 65.8711C51.4422 65.7337 51.2683 65.665 51.0491 65.665C50.9529 65.6606 50.8569 65.6767 50.7675 65.7122C50.678 65.7477 50.5971 65.8019 50.5302 65.8711C50.3942 66.0282 50.3247 66.2321 50.3366 66.4396V68.1569C50.337 68.1767 50.3334 68.1963 50.326 68.2147C50.3186 68.233 50.3075 68.2497 50.2935 68.2636C50.2795 68.2776 50.2629 68.2887 50.2445 68.2961C50.2262 68.3035 50.2065 68.3071 50.1868 68.3067L49.6336 68.3096Z" fill="white"/>
<path d="M53.4941 68.3097C53.4743 68.3103 53.4545 68.3068 53.436 68.2995C53.4175 68.2922 53.4007 68.2812 53.3866 68.2672C53.3725 68.2532 53.3614 68.2364 53.3541 68.218C53.3467 68.1995 53.3431 68.1797 53.3436 68.1599V67.5417C53.3428 67.5209 53.3463 67.5002 53.3539 67.4808C53.3614 67.4615 53.3728 67.4439 53.3875 67.4291C53.4013 67.415 53.418 67.4038 53.4363 67.3962C53.4546 67.3887 53.4743 67.385 53.4941 67.3853H54.1182C54.138 67.385 54.1577 67.3887 54.1761 67.3962C54.1944 67.4038 54.211 67.415 54.2249 67.4291C54.2395 67.4439 54.2509 67.4615 54.2585 67.4808C54.266 67.5002 54.2695 67.5209 54.2688 67.5417V68.1599C54.2693 68.1797 54.2657 68.1995 54.2583 68.218C54.2509 68.2364 54.2398 68.2532 54.2257 68.2672C54.2117 68.2812 54.1948 68.2922 54.1764 68.2995C54.1579 68.3068 54.1381 68.3103 54.1182 68.3097H53.4941Z" fill="white"/>
<path d="M58.2477 68.3725C57.9082 68.3826 57.5711 68.313 57.2634 68.1694C57.004 68.0427 56.7894 67.84 56.6481 67.5884C56.4987 67.3079 56.4173 66.9963 56.4106 66.6786C56.4072 66.5081 56.4052 66.3249 56.4047 66.1291C56.4042 65.9332 56.4062 65.7459 56.4106 65.5671C56.4184 65.2503 56.501 64.9398 56.6517 64.661C56.7938 64.4079 57.0094 64.2041 57.27 64.0764C57.5754 63.933 57.9104 63.8634 58.2477 63.8732C58.5059 63.8697 58.763 63.9077 59.0092 63.9858C59.2183 64.0525 59.4133 64.1573 59.5843 64.2949C59.7369 64.4208 59.8614 64.5774 59.9496 64.7545C60.0379 64.9309 60.0849 65.1251 60.087 65.3223C60.0895 65.3396 60.0877 65.3573 60.0817 65.3738C60.0757 65.3902 60.0657 65.4049 60.0527 65.4166C60.0266 65.4411 59.992 65.4545 59.9562 65.4539H59.3628C59.3225 65.4555 59.2829 65.4434 59.2503 65.4195C59.2167 65.3894 59.1945 65.3486 59.1875 65.3041C59.1207 65.0293 59.0062 64.8417 58.844 64.7414C58.6596 64.6373 58.4498 64.5867 58.2382 64.5952C57.9932 64.5829 57.7532 64.6671 57.5696 64.8298C57.403 64.9862 57.3136 65.2434 57.3014 65.6015C57.2892 65.9425 57.2892 66.2923 57.3014 66.6508C57.3136 67.0094 57.403 67.2664 57.5696 67.4218C57.7532 67.5844 57.9932 67.6686 58.2382 67.6564C58.4505 67.6639 58.6606 67.6109 58.844 67.5036C59.0062 67.4013 59.1207 67.2147 59.1875 66.9439C59.1886 66.9223 59.1942 66.9013 59.2037 66.8819C59.2133 66.8626 59.2267 66.8454 59.2431 66.8314C59.2595 66.8174 59.2785 66.8069 59.2991 66.8004C59.3197 66.794 59.3414 66.7919 59.3628 66.7941H59.9562C59.974 66.7937 59.9917 66.7969 60.0082 66.8035C60.0248 66.81 60.0399 66.8197 60.0527 66.8321C60.0657 66.8436 60.0757 66.8581 60.0817 66.8745C60.0877 66.8908 60.0895 66.9084 60.087 66.9256C60.0848 67.1231 60.0378 67.3174 59.9496 67.4941C59.8612 67.6709 59.7367 67.8272 59.5843 67.953C59.4133 68.0907 59.2183 68.1955 59.0092 68.2622C58.763 68.3398 58.5058 68.3771 58.2477 68.3725Z" fill="white"/>
<path d="M62.1953 68.3724C61.9053 68.3816 61.6172 68.3218 61.3549 68.1978C61.1365 68.089 60.9559 67.9168 60.8368 67.7038C60.7132 67.4749 60.6437 67.2206 60.6337 66.9606C60.6293 66.8875 60.6271 66.794 60.6271 66.6859C60.6271 66.5777 60.6271 66.4856 60.6337 66.4111C60.6431 66.1491 60.7148 65.8931 60.8426 65.6643C60.9665 65.4536 61.1488 65.2833 61.3673 65.1739C61.6282 65.0588 61.9102 64.9993 62.1953 64.9993C62.4804 64.9993 62.7624 65.0588 63.0232 65.1739C63.2418 65.2833 63.424 65.4536 63.5479 65.6643C63.6758 65.8931 63.7474 66.1491 63.7569 66.4111C63.7613 66.4842 63.7628 66.5777 63.7628 66.6859C63.7628 66.794 63.7628 66.8861 63.7569 66.9606C63.7466 67.2199 63.6771 67.4733 63.5538 67.7016C63.4347 67.9146 63.2541 68.0868 63.0357 68.1956C62.7735 68.3203 62.4855 68.3809 62.1953 68.3724ZM62.1953 67.7542C62.2908 67.7597 62.3863 67.7436 62.4748 67.7074C62.5633 67.6711 62.6426 67.6154 62.7068 67.5445C62.8274 67.4049 62.8939 67.2003 62.9063 66.9292C62.9107 66.8673 62.9129 66.7862 62.9129 66.6859C62.9129 66.5855 62.9107 66.5044 62.9063 66.4425C62.8941 66.176 62.8276 65.9719 62.7068 65.8301C62.5711 65.6945 62.3871 65.6183 62.1953 65.6183C62.0034 65.6183 61.8194 65.6945 61.6838 65.8301C61.5634 65.9719 61.4967 66.176 61.4835 66.4425C61.4835 66.5046 61.4777 66.5887 61.4777 66.6859C61.4777 66.783 61.4777 66.8671 61.4835 66.9292C61.4967 67.2003 61.5632 67.4049 61.6838 67.5445C61.748 67.6154 61.8272 67.6711 61.9157 67.7074C62.0043 67.7436 62.0998 67.7597 62.1953 67.7542Z" fill="white"/>
<path d="M64.6126 68.3097C64.5929 68.31 64.5734 68.3064 64.5552 68.299C64.537 68.2916 64.5205 68.2806 64.5066 68.2666C64.4925 68.2527 64.4813 68.2361 64.4737 68.2178C64.4662 68.1994 64.4625 68.1798 64.4628 68.1599V64.0246C64.4628 63.9858 64.4782 63.9486 64.5056 63.9212C64.533 63.8938 64.5702 63.8784 64.6089 63.8784H65.1322C65.1709 63.8784 65.2081 63.8938 65.2355 63.9212C65.2629 63.9486 65.2783 63.9858 65.2783 64.0246V68.1599C65.2788 68.1794 65.2754 68.1988 65.2682 68.217C65.2611 68.2351 65.2504 68.2517 65.2368 68.2656C65.2232 68.2796 65.2069 68.2907 65.1889 68.2983C65.171 68.3058 65.1517 68.3097 65.1322 68.3097H64.6126Z" fill="white"/>
<path d="M66.2679 68.3098C66.2482 68.3101 66.2287 68.3064 66.2105 68.299C66.1923 68.2916 66.1758 68.2806 66.1619 68.2667C66.1477 68.2528 66.1366 68.2362 66.129 68.2178C66.1215 68.1995 66.1177 68.1798 66.1181 68.16V64.0246C66.1181 63.9859 66.1335 63.9487 66.1609 63.9213C66.1883 63.8939 66.2255 63.8785 66.2642 63.8785H66.7831C66.8026 63.878 66.8219 63.8814 66.8401 63.8885C66.8583 63.8956 66.8748 63.9063 66.8888 63.92C66.9027 63.9336 66.9138 63.9499 66.9214 63.9678C66.929 63.9858 66.9329 64.0051 66.9329 64.0246V68.16C66.9332 68.1798 66.9294 68.1995 66.9219 68.2178C66.9144 68.2362 66.9032 68.2528 66.889 68.2667C66.8752 68.2806 66.8586 68.2916 66.8404 68.299C66.8222 68.3064 66.8027 68.3101 66.7831 68.3098H66.2679Z" fill="white"/>
<path d="M69.1668 68.3726C68.7039 68.3726 68.3373 68.2394 68.067 67.9729C67.7966 67.7064 67.6504 67.3274 67.6285 66.8359C67.6236 66.7829 67.6214 66.7297 67.6219 66.6766C67.6213 66.6256 67.6235 66.5746 67.6285 66.5238C67.6382 66.2397 67.7132 65.9617 67.8477 65.7112C67.9687 65.4879 68.152 65.3046 68.3753 65.1836C68.6193 65.056 68.8915 64.9922 69.1668 64.998C69.4637 64.9879 69.7576 65.0602 70.0159 65.207C70.2437 65.3453 70.4245 65.549 70.5347 65.7916C70.6557 66.0616 70.7154 66.3551 70.7094 66.651V66.7818C70.7097 66.8016 70.706 66.8213 70.6984 66.8396C70.6909 66.858 70.6797 66.8746 70.6655 66.8885C70.6506 66.9028 70.633 66.9141 70.6137 66.9215C70.5943 66.9289 70.5737 66.9323 70.553 66.9316H68.4791V66.982C68.4817 67.1204 68.5105 67.257 68.5639 67.3847C68.612 67.503 68.6919 67.6057 68.7948 67.6813C68.901 67.7578 69.0294 67.7973 69.1602 67.7939C69.2603 67.7968 69.3599 67.7786 69.4525 67.7405C69.523 67.7105 69.5883 67.6696 69.6461 67.6192C69.685 67.5852 69.7205 67.5476 69.7521 67.5067C69.7752 67.4702 69.8062 67.4392 69.8427 67.4161C69.8756 67.4038 69.9107 67.3984 69.9457 67.4H70.4828C70.5208 67.3988 70.5578 67.4124 70.5859 67.438C70.5989 67.4495 70.6089 67.4641 70.6149 67.4804C70.6209 67.4968 70.6227 67.5143 70.6202 67.5315C70.6073 67.6202 70.5719 67.704 70.5172 67.7749C70.4407 67.8833 70.3469 67.9783 70.2395 68.0562C70.1018 68.1562 69.9488 68.2332 69.7864 68.2842C69.5859 68.3465 69.3767 68.3763 69.1668 68.3726ZM68.4791 66.4047H69.8595V66.3864C69.8628 66.2405 69.8351 66.0956 69.7784 65.9611C69.728 65.8449 69.6457 65.7453 69.5409 65.674C69.4601 65.6184 69.3679 65.5815 69.271 65.566C69.1742 65.5505 69.0751 65.5567 68.981 65.5841C68.8868 65.6116 68.7999 65.6597 68.7267 65.7249C68.6534 65.7901 68.5955 65.8708 68.5573 65.9611C68.5026 66.0961 68.476 66.2408 68.4791 66.3864V66.4047Z" fill="white"/>
<path d="M72.7767 68.3726C72.5038 68.3784 72.2334 68.3206 71.9867 68.2038C71.7649 68.0966 71.58 67.9259 71.4554 67.7134C71.3222 67.4757 71.2504 67.2084 71.2464 66.9359C71.2421 66.8731 71.2406 66.7898 71.2406 66.6889C71.2406 66.5881 71.2406 66.5026 71.2464 66.4361C71.2504 66.1636 71.3222 65.8963 71.4554 65.6586C71.58 65.4461 71.7649 65.2754 71.9867 65.1682C72.2334 65.0514 72.5038 64.9936 72.7767 64.9994C73.0088 64.9933 73.2399 65.0315 73.4577 65.1119C73.6279 65.1762 73.7847 65.2714 73.9203 65.3926C74.0315 65.4926 74.1234 65.6123 74.1914 65.7455C74.2464 65.8492 74.2795 65.9632 74.2886 66.0802C74.2916 66.1003 74.2894 66.1209 74.2822 66.1399C74.2751 66.159 74.2632 66.1759 74.2477 66.1891C74.2178 66.2159 74.1789 66.2305 74.1388 66.23H73.5893C73.554 66.2324 73.5192 66.2212 73.4921 66.1986C73.4648 66.1715 73.4425 66.1399 73.4263 66.105C73.3828 65.9647 73.2968 65.8413 73.18 65.7521C73.063 65.6793 72.9268 65.6434 72.7891 65.6491C72.6972 65.6447 72.6053 65.6599 72.5198 65.6938C72.4342 65.7277 72.3569 65.7795 72.2929 65.8456C72.1701 65.9772 72.1044 66.184 72.0963 66.4675C72.0875 66.6135 72.0875 66.7599 72.0963 66.906C72.1041 67.1929 72.1696 67.4012 72.2929 67.5308C72.3573 67.5962 72.4348 67.6473 72.5203 67.6806C72.6058 67.714 72.6974 67.7289 72.7891 67.7244C72.9278 67.7309 73.0652 67.695 73.183 67.6214C73.2983 67.5314 73.3832 67.4082 73.4263 67.2684C73.4425 67.2336 73.4648 67.2019 73.4921 67.1749C73.5192 67.1523 73.554 67.141 73.5893 67.1435H74.1388C74.1788 67.1427 74.2177 67.157 74.2477 67.1836C74.2632 67.197 74.2751 67.214 74.2822 67.2332C74.2894 67.2524 74.2916 67.273 74.2886 67.2933C74.2815 67.38 74.2616 67.4652 74.2294 67.5461C74.1878 67.6499 74.1309 67.747 74.0606 67.834C73.9771 67.9375 73.8785 68.0279 73.7683 68.1022C73.6387 68.1895 73.4962 68.2559 73.3459 68.2988C73.1608 68.3513 72.969 68.3762 72.7767 68.3726Z" fill="white"/>
<path d="M76.4064 68.3097C76.1886 68.3168 75.9721 68.2719 75.7751 68.1789C75.6082 68.0948 75.4743 67.9575 75.3943 67.7886C75.3049 67.5851 75.2622 67.3641 75.2694 67.1419V65.7235H74.7783C74.7395 65.7235 74.7024 65.7081 74.675 65.6807C74.6475 65.6533 74.6321 65.6161 74.6321 65.5773V65.212C74.6316 65.1924 74.6349 65.1729 74.642 65.1547C74.6491 65.1364 74.6597 65.1198 74.6734 65.1058C74.687 65.0917 74.7033 65.0806 74.7213 65.073C74.7394 65.0653 74.7587 65.0614 74.7783 65.0614H75.2716V64.0245C75.271 64.005 75.2743 63.9856 75.2813 63.9674C75.2883 63.9492 75.2989 63.9326 75.3125 63.9185C75.3264 63.9038 75.3433 63.8922 75.3621 63.8847C75.3809 63.8771 75.4011 63.8737 75.4214 63.8747H75.9278C75.9665 63.8747 76.0037 63.8901 76.0311 63.9175C76.0585 63.9449 76.0739 63.9821 76.0739 64.0208V65.0578H76.8544C76.8742 65.0575 76.8939 65.0612 76.9122 65.0687C76.9306 65.0763 76.9472 65.0875 76.9611 65.1016C76.9751 65.1156 76.9862 65.1322 76.9936 65.1505C77.001 65.1689 77.0046 65.1885 77.0042 65.2083V65.5737C77.0046 65.5935 77.001 65.6131 76.9936 65.6315C76.9862 65.6498 76.9751 65.6664 76.9611 65.6804C76.9471 65.6944 76.9305 65.7055 76.9122 65.7129C76.8938 65.7203 76.8742 65.7239 76.8544 65.7235H76.0739V67.0791C76.0664 67.2196 76.0985 67.3594 76.1667 67.4824C76.2267 67.5799 76.3316 67.6286 76.4817 67.6286H76.9128C76.9323 67.6286 76.9517 67.6325 76.9696 67.64C76.9876 67.6476 77.0039 67.6587 77.0175 67.6727C77.0311 67.6866 77.0418 67.7032 77.0489 67.7213C77.0561 67.7395 77.0595 67.7589 77.059 67.7784V68.1657C77.0594 68.1855 77.0558 68.2051 77.0484 68.2235C77.041 68.2418 77.0299 68.2584 77.0159 68.2724C77.0019 68.2864 76.9853 68.2975 76.967 68.3049C76.9486 68.3123 76.929 68.3159 76.9092 68.3155L76.4064 68.3097Z" fill="white"/>
<path d="M77.7429 64.5243C77.7234 64.5253 77.704 64.5223 77.6858 64.5153C77.6675 64.5083 77.651 64.4976 77.6372 64.4838C77.6234 64.47 77.6127 64.4535 77.6057 64.4353C77.5988 64.4171 77.5957 64.3976 77.5968 64.3781V63.9287C77.5957 63.8893 77.6102 63.851 77.637 63.822C77.6512 63.8075 77.6683 63.7961 77.6871 63.7885C77.706 63.781 77.7263 63.7775 77.7466 63.7782H78.3151C78.3358 63.7776 78.3564 63.7813 78.3758 63.7888C78.3951 63.7963 78.4127 63.8076 78.4276 63.822C78.4418 63.8359 78.453 63.8525 78.4605 63.8708C78.4681 63.8892 78.4718 63.9089 78.4715 63.9287V64.3781C78.4722 64.3984 78.4687 64.4187 78.4611 64.4375C78.4536 64.4564 78.4422 64.4735 78.4276 64.4877C78.3967 64.5152 78.3564 64.5296 78.3151 64.5279L77.7429 64.5243ZM77.7678 68.3096C77.7481 68.3099 77.7286 68.3062 77.7104 68.2988C77.6922 68.2914 77.6757 68.2804 77.6618 68.2665C77.6476 68.2526 77.6364 68.236 77.6289 68.2176C77.6214 68.1993 77.6176 68.1796 77.618 68.1598V65.2119C77.6176 65.1921 77.6214 65.1724 77.6289 65.1541C77.6364 65.1357 77.6476 65.1191 77.6618 65.1052C77.6756 65.0911 77.6921 65.08 77.7103 65.0725C77.7285 65.0649 77.7481 65.0612 77.7678 65.0614H78.2866C78.3068 65.0605 78.327 65.0639 78.3458 65.0715C78.3646 65.0791 78.3815 65.0906 78.3955 65.1052C78.4225 65.1341 78.4372 65.1724 78.4364 65.2119V68.1598C78.4372 68.1993 78.4225 68.2376 78.3955 68.2665C78.3815 68.281 78.3645 68.2924 78.3457 68.2999C78.3269 68.3073 78.3068 68.3106 78.2866 68.3096H77.7678Z" fill="white"/>
<path d="M79.7664 68.3098C79.7467 68.3101 79.7272 68.3064 79.709 68.299C79.6908 68.2916 79.6743 68.2806 79.6604 68.2666C79.6463 68.2528 79.6351 68.2361 79.6275 68.2178C79.62 68.1995 79.6163 68.1798 79.6166 68.1599V65.7236H79.1109C79.0912 65.7239 79.0717 65.7202 79.0535 65.7128C79.0353 65.7054 79.0188 65.6944 79.0049 65.6805C78.9908 65.6666 78.9796 65.65 78.972 65.6316C78.9645 65.6133 78.9608 65.5936 78.9611 65.5738V65.2084C78.9608 65.1886 78.9645 65.1689 78.972 65.1506C78.9796 65.1322 78.9908 65.1156 79.0049 65.1017C79.0187 65.0876 79.0352 65.0765 79.0534 65.069C79.0716 65.0614 79.0912 65.0577 79.1109 65.0579H79.6166V64.8021C79.6089 64.5865 79.6561 64.3725 79.754 64.1802C79.846 64.0161 79.9885 63.8859 80.1603 63.809C80.3756 63.7187 80.6079 63.6761 80.8413 63.6841H81.2659C81.2862 63.6833 81.3065 63.6869 81.3253 63.6944C81.3442 63.702 81.3613 63.7134 81.3755 63.7279C81.3889 63.742 81.3994 63.7586 81.4063 63.7768C81.4132 63.795 81.4164 63.8144 81.4157 63.8339V64.1992C81.4164 64.2187 81.4132 64.2381 81.4063 64.2563C81.3994 64.2745 81.3889 64.2911 81.3755 64.3052C81.3613 64.3197 81.3442 64.3311 81.3253 64.3387C81.3065 64.3462 81.2862 64.3498 81.2659 64.349H80.8662C80.6996 64.349 80.5851 64.3907 80.5227 64.474C80.4527 64.5824 80.4198 64.7107 80.4292 64.8394V65.0637H81.2038C81.224 65.0628 81.2442 65.0663 81.263 65.0738C81.2818 65.0814 81.2987 65.0929 81.3127 65.1076C81.3397 65.1365 81.3543 65.1747 81.3536 65.2143V65.5796C81.3543 65.6192 81.3397 65.6574 81.3127 65.6863C81.2987 65.7009 81.2817 65.7123 81.2629 65.7197C81.2441 65.7272 81.224 65.7305 81.2038 65.7294H80.4292V68.1658C80.4297 68.1857 80.4261 68.2054 80.4187 68.2239C80.4113 68.2423 80.4003 68.2591 80.3862 68.2731C80.3721 68.2871 80.3553 68.2981 80.3368 68.3054C80.3183 68.3127 80.2985 68.3162 80.2786 68.3156L79.7664 68.3098Z" fill="white"/>
<path d="M81.7278 68.3097C81.7081 68.31 81.6886 68.3063 81.6704 68.2989C81.6522 68.2915 81.6357 68.2805 81.6218 68.2666C81.6077 68.2527 81.5965 68.2361 81.5889 68.2177C81.5814 68.1994 81.5777 68.1797 81.578 68.1599V67.5417C81.5772 67.5209 81.5807 67.5002 81.5882 67.4808C81.5958 67.4615 81.6072 67.4439 81.6218 67.4291C81.6356 67.415 81.6521 67.4039 81.6703 67.3964C81.6885 67.3888 81.7081 67.3851 81.7278 67.3853H82.3526C82.3724 67.385 82.3921 67.3887 82.4104 67.3962C82.4288 67.4038 82.4454 67.415 82.4593 67.4291C82.4737 67.444 82.4849 67.4617 82.4923 67.481C82.4997 67.5003 82.5031 67.521 82.5024 67.5417V68.1599C82.5028 68.1797 82.4992 68.1993 82.4918 68.2176C82.4844 68.236 82.4733 68.2526 82.4593 68.2666C82.4453 68.2806 82.4287 68.2917 82.4104 68.2991C82.392 68.3065 82.3724 68.3101 82.3526 68.3097H81.7278Z" fill="white"/>
<path d="M48.9113 36.5857C48.8594 36.5858 48.8081 36.5757 48.7602 36.5559C48.7123 36.5361 48.6688 36.507 48.6322 36.4704C48.5955 36.4337 48.5665 36.3902 48.5467 36.3423C48.5269 36.2944 48.5168 36.2431 48.5168 36.1913V25.4974C48.5149 25.4428 48.5242 25.3884 48.5441 25.3375C48.564 25.2866 48.594 25.2404 48.6325 25.2015C48.6685 25.1643 48.7119 25.1348 48.7599 25.115C48.8079 25.0953 48.8594 25.0856 48.9113 25.0866H50.1754C50.3286 25.0866 50.442 25.1222 50.5154 25.1934C50.5661 25.2415 50.613 25.2936 50.6555 25.3491L55.3857 32.7082V25.4974C55.3813 25.3886 55.4196 25.2824 55.4925 25.2015C55.5294 25.1629 55.5741 25.1326 55.6238 25.1128C55.6734 25.0929 55.7267 25.084 55.7801 25.0866H57.1599C57.214 25.0846 57.2679 25.0938 57.3183 25.1136C57.3687 25.1334 57.4145 25.1634 57.4528 25.2017C57.4911 25.24 57.5211 25.2857 57.5409 25.3362C57.5607 25.3866 57.5699 25.4405 57.5679 25.4946V36.1736C57.5698 36.2281 57.5606 36.2825 57.5408 36.3333C57.5211 36.3842 57.4912 36.4305 57.453 36.4694C57.4166 36.5066 57.3731 36.536 57.3251 36.5557C57.277 36.5755 57.2254 36.5852 57.1735 36.5843H55.8923C55.7386 36.5843 55.6291 36.546 55.5639 36.4694C55.5206 36.4144 55.4708 36.3649 55.4156 36.3219L50.7017 29.1286V36.1913C50.7027 36.2433 50.693 36.2949 50.6732 36.3429C50.6535 36.391 50.6241 36.4345 50.5868 36.4708C50.5479 36.5091 50.5017 36.539 50.4508 36.5588C50.3999 36.5786 50.3455 36.5877 50.291 36.5857H48.9113Z" fill="white"/>
<path d="M44.4539 35.3954C44.4579 35.5779 44.4331 35.7599 44.3804 35.9347C44.3404 36.0663 44.278 36.19 44.1961 36.3005C44.1353 36.3832 44.0605 36.4545 43.9751 36.5113C43.9202 36.5498 43.8571 36.5749 43.7908 36.5848C43.7739 36.5872 43.7567 36.5854 43.7406 36.5794C43.7246 36.5735 43.7103 36.5636 43.699 36.5508C43.6771 36.5271 43.6647 36.4961 43.6644 36.4637V36.0482C43.6642 36.0356 43.6661 36.023 43.6698 36.0108C43.6776 35.995 43.6884 35.9809 43.7018 35.9694L43.8228 35.8245C43.8674 35.7696 43.9036 35.7084 43.9302 35.643C43.9653 35.5443 43.98 35.4397 43.9737 35.3352C43.9674 35.2308 43.9401 35.1287 43.8935 35.035C43.871 34.9928 43.8372 34.9578 43.7959 34.9337C43.7546 34.9097 43.7074 34.8977 43.6596 34.899C43.5945 34.8962 43.5307 34.9178 43.4808 34.9595C43.4217 35.0228 43.3792 35.0996 43.357 35.1833C43.3094 35.3342 43.2701 35.4877 43.2393 35.643C43.2035 35.813 43.145 35.9775 43.0653 36.1319C43.0055 36.2506 42.9145 36.3507 42.8021 36.4216C42.6853 36.4882 42.5522 36.5208 42.4178 36.5157C42.2834 36.5105 42.1532 36.4678 42.0418 36.3923C41.9084 36.2993 41.8023 36.1723 41.7345 36.0244C41.6479 35.8338 41.6064 35.6258 41.6134 35.4165C41.6095 35.2491 41.6325 35.0822 41.6814 34.9221C41.7213 34.7967 41.781 34.6785 41.8582 34.5719C41.9173 34.49 41.9891 34.4181 42.0711 34.3591C42.1254 34.3172 42.1895 34.29 42.2574 34.2802C42.2742 34.2776 42.2914 34.2791 42.3075 34.2846C42.3236 34.29 42.3381 34.2992 42.3499 34.3115C42.3719 34.334 42.3842 34.3643 42.3839 34.3958V34.7855C42.3842 34.8017 42.3807 34.8178 42.3737 34.8324C42.3662 34.8473 42.3574 34.8614 42.3472 34.8745C42.3125 34.9133 42.2751 34.9555 42.237 35.001C42.1953 35.0513 42.1608 35.1072 42.1343 35.1669C42.1013 35.2478 42.086 35.3347 42.0894 35.4219C42.0821 35.5307 42.1129 35.6387 42.1765 35.7273C42.2022 35.7605 42.2354 35.7873 42.2732 35.8056C42.3111 35.8239 42.3527 35.8332 42.3948 35.8327C42.4506 35.8336 42.5052 35.8159 42.5498 35.7824C42.6081 35.7263 42.6508 35.656 42.6736 35.5784C42.7254 35.4272 42.7658 35.2724 42.7946 35.1153C42.8234 34.9189 42.8867 34.7292 42.9816 34.5549C43.0477 34.4329 43.1457 34.3311 43.2652 34.2605C43.3746 34.2021 43.4969 34.1721 43.6208 34.1734C43.7738 34.1709 43.9234 34.2187 44.0465 34.3094C44.1822 34.4147 44.2854 34.5561 44.3444 34.7175C44.4232 34.9345 44.4603 35.1646 44.4539 35.3954Z" fill="white"/>
<path d="M44.4538 32.8413C44.4562 33.0121 44.4195 33.1812 44.3464 33.3357C44.281 33.475 44.1813 33.5955 44.0567 33.6859C43.9018 33.7933 43.711 33.8359 43.5252 33.8043C43.3394 33.7728 43.1733 33.6698 43.0625 33.5172C42.9027 33.2826 42.8024 33.0126 42.7701 32.7305L42.6647 32.0096H42.5545C42.4312 32.0021 42.3097 32.0418 42.2145 32.1205C42.1338 32.1939 42.0935 32.3202 42.0935 32.4993C42.0887 32.6069 42.1151 32.7137 42.1697 32.8066C42.219 32.8842 42.2899 32.9456 42.3737 32.9834C42.3948 32.9956 42.4123 33.0133 42.4243 33.0346C42.4362 33.0559 42.4422 33.08 42.4417 33.1045V33.52C42.4428 33.5359 42.4405 33.5519 42.435 33.5669C42.4295 33.5819 42.4209 33.5956 42.4097 33.607C42.3863 33.627 42.3561 33.6372 42.3254 33.6356C42.2535 33.627 42.184 33.6039 42.1214 33.5676C42.0307 33.5172 41.9509 33.4492 41.8868 33.3676C41.8033 33.2617 41.7385 33.1424 41.695 33.0147C41.6384 32.847 41.6117 32.6707 41.6161 32.4938C41.6114 32.3038 41.639 32.1143 41.6977 31.9335C41.7423 31.7968 41.8169 31.6718 41.916 31.5676C42.0061 31.4771 42.116 31.4086 42.237 31.3677C42.3624 31.325 42.4941 31.3037 42.6266 31.3045H44.2784C44.2951 31.3041 44.3118 31.3073 44.3272 31.3137C44.3427 31.3201 44.3566 31.3297 44.3681 31.3419C44.38 31.3534 44.3894 31.3673 44.3957 31.3826C44.402 31.3979 44.4051 31.4144 44.4049 31.431V31.8573C44.4057 31.8744 44.4029 31.8914 44.3966 31.9072C44.3902 31.9231 44.3805 31.9374 44.3681 31.9491C44.344 31.9721 44.3117 31.9846 44.2784 31.9838H44.0744C44.1463 32.0344 44.2095 32.0964 44.2614 32.1674C44.3235 32.2531 44.3714 32.3481 44.4035 32.4489C44.441 32.5762 44.458 32.7087 44.4538 32.8413ZM43.954 32.6625C43.9555 32.5462 43.9284 32.4313 43.8751 32.3279C43.8202 32.2254 43.7346 32.1427 43.6303 32.0912C43.5 32.0289 43.3565 31.999 43.2121 32.0042H43.1033L43.187 32.5305C43.2038 32.6942 43.256 32.8522 43.34 32.9936C43.3662 33.039 43.4037 33.0769 43.4489 33.1035C43.494 33.1302 43.5453 33.1448 43.5977 33.146C43.6696 33.1486 43.7399 33.1244 43.7949 33.078C43.8503 33.029 43.8921 32.9664 43.9159 32.8964C43.9425 32.8204 43.9554 32.7403 43.954 32.6597V32.6625Z" fill="white"/>
<path d="M44.4015 30.502C44.4016 30.5187 44.3985 30.5352 44.3922 30.5507C44.3859 30.5661 44.3766 30.5801 44.3648 30.5919C44.353 30.6037 44.339 30.613 44.3236 30.6193C44.3082 30.6256 44.2916 30.6287 44.275 30.6285H41.7915C41.7749 30.6287 41.7584 30.6256 41.7429 30.6193C41.7275 30.613 41.7135 30.6037 41.7017 30.5919C41.6899 30.5801 41.6806 30.5661 41.6743 30.5507C41.668 30.5352 41.6649 30.5187 41.6651 30.502V30.0709C41.6649 30.0542 41.668 30.0377 41.6743 30.0223C41.6806 30.0069 41.6899 29.9928 41.7017 29.9811C41.7135 29.9693 41.7275 29.96 41.7429 29.9537C41.7584 29.9474 41.7749 29.9442 41.7915 29.9444H42.0071C41.8771 29.8391 41.7737 29.7047 41.7052 29.5521C41.6367 29.3995 41.605 29.233 41.6127 29.0658C41.6079 28.8701 41.658 28.6769 41.7575 28.5082C41.8549 28.3491 41.9967 28.2219 42.1656 28.1424C42.3635 28.0517 42.5796 28.0075 42.7973 28.0132H44.2756C44.2923 28.013 44.3088 28.0161 44.3243 28.0224C44.3397 28.0287 44.3537 28.038 44.3655 28.0498C44.3773 28.0616 44.3866 28.0756 44.3929 28.091C44.3992 28.1065 44.4023 28.123 44.4021 28.1397V28.6028C44.4024 28.6193 44.3993 28.6358 44.393 28.6511C44.3866 28.6664 44.3773 28.6803 44.3654 28.6918C44.3539 28.704 44.3399 28.7136 44.3245 28.72C44.309 28.7264 44.2924 28.7296 44.2756 28.7292H42.8313C42.6597 28.7197 42.4906 28.7729 42.3553 28.8788C42.296 28.9337 42.2496 29.0012 42.2196 29.0762C42.1896 29.1512 42.1767 29.232 42.1819 29.3127C42.1781 29.3937 42.1916 29.4746 42.2215 29.55C42.2514 29.6254 42.297 29.6935 42.3553 29.7499C42.4868 29.864 42.6575 29.9225 42.8313 29.9131H44.2784C44.295 29.913 44.3114 29.9161 44.3268 29.9223C44.3422 29.9286 44.3562 29.9378 44.368 29.9495C44.3797 29.9613 44.3891 29.9752 44.3954 29.9905C44.4017 30.0059 44.4049 30.0223 44.4049 30.0389L44.4015 30.502Z" fill="white"/>
<path d="M44.4537 26.3085C44.4577 26.491 44.4329 26.6729 44.3802 26.8477C44.3402 26.9793 44.2779 27.103 44.196 27.2136C44.1352 27.2962 44.0604 27.3675 43.975 27.4244C43.92 27.4628 43.857 27.4879 43.7907 27.4978C43.7737 27.5002 43.7565 27.4984 43.7405 27.4925C43.7244 27.4865 43.7101 27.4767 43.6989 27.4638C43.6769 27.4401 43.6645 27.4091 43.6642 27.3768V26.9613C43.664 26.9488 43.6659 26.9364 43.6696 26.9246C43.6771 26.9084 43.688 26.894 43.7016 26.8824L43.8226 26.7375C43.8672 26.6827 43.9034 26.6215 43.9301 26.556C43.9651 26.4574 43.9799 26.3527 43.9736 26.2483C43.9673 26.1438 43.94 26.0417 43.8934 25.948C43.8713 25.9052 43.8377 25.8695 43.7964 25.8448C43.755 25.8202 43.7076 25.8076 43.6594 25.8086C43.5943 25.8058 43.5306 25.8274 43.4806 25.8692C43.4215 25.9324 43.379 26.0093 43.3568 26.0929C43.3089 26.245 43.2694 26.3996 43.2385 26.556C43.2027 26.726 43.1441 26.8905 43.0644 27.0449C43.0046 27.1636 42.9137 27.2638 42.8012 27.3346C42.6844 27.4011 42.5514 27.4337 42.417 27.4287C42.2827 27.4236 42.1525 27.3812 42.041 27.306C41.9077 27.2126 41.8016 27.0854 41.7336 26.9375C41.647 26.7468 41.6056 26.5388 41.6126 26.3295C41.6086 26.1622 41.6316 25.9953 41.6806 25.8352C41.7204 25.7097 41.7801 25.5915 41.8574 25.485C41.9164 25.403 41.9883 25.3311 42.0702 25.2721C42.1245 25.2302 42.1887 25.203 42.2565 25.1932C42.2743 25.1897 42.2928 25.1908 42.31 25.1963C42.3273 25.2019 42.3428 25.2119 42.3552 25.2252C42.3772 25.2477 42.3894 25.278 42.3892 25.3095V25.7012C42.3895 25.7174 42.386 25.7335 42.379 25.7481C42.3715 25.763 42.3626 25.7771 42.3524 25.7903C42.3178 25.829 42.2804 25.8712 42.2423 25.9168C42.2006 25.9671 42.166 26.0229 42.1396 26.0827C42.1066 26.1635 42.0913 26.2505 42.0947 26.3377C42.0874 26.4465 42.1181 26.5545 42.1817 26.643C42.2075 26.6763 42.2406 26.7031 42.2785 26.7214C42.3164 26.7397 42.358 26.7489 42.4 26.7484C42.4559 26.7494 42.5104 26.7317 42.5551 26.6981C42.6134 26.642 42.6561 26.5717 42.6788 26.4941C42.7306 26.343 42.7711 26.1882 42.7999 26.031C42.8287 25.8347 42.892 25.645 42.9869 25.4707C43.053 25.3486 43.151 25.2468 43.2705 25.1762C43.3798 25.1178 43.5021 25.0879 43.6261 25.0892C43.779 25.0869 43.9285 25.1347 44.0518 25.2252C44.1875 25.3305 44.2907 25.4719 44.3496 25.6332C44.4263 25.8498 44.4616 26.0788 44.4537 26.3085Z" fill="white"/>
<path d="M27.5758 23.7564C28.5782 23.7564 29.3908 22.9438 29.3908 21.9414C29.3908 20.9391 28.5782 20.1265 27.5758 20.1265C26.5735 20.1265 25.7609 20.9391 25.7609 21.9414C25.7609 22.9438 26.5735 23.7564 27.5758 23.7564Z" fill="white"/>
<path d="M35.7346 23.7564C36.737 23.7564 37.5496 22.9438 37.5496 21.9414C37.5496 20.9391 36.737 20.1265 35.7346 20.1265C34.7323 20.1265 33.9197 20.9391 33.9197 21.9414C33.9197 22.9438 34.7323 23.7564 35.7346 23.7564Z" fill="white"/>
<path d="M26.6795 36.5854C26.6249 36.5874 26.5706 36.5782 26.5197 36.5585C26.4688 36.5387 26.4226 36.5088 26.3837 36.4705C26.3463 36.4343 26.3168 36.3908 26.2969 36.3427C26.2771 36.2946 26.2672 36.243 26.2681 36.191V25.4971C26.2661 25.4427 26.2755 25.3885 26.2955 25.3379C26.3156 25.2873 26.3459 25.2414 26.3845 25.203C26.4231 25.1647 26.4693 25.1348 26.5201 25.1152C26.5708 25.0956 26.6251 25.0867 26.6795 25.089H27.9763C28.0392 25.084 28.1025 25.0925 28.162 25.1138C28.2214 25.1352 28.2756 25.1689 28.321 25.2128C28.3783 25.2692 28.4283 25.3325 28.47 25.4012L31.6395 31.3139L34.8424 25.4012C34.8832 25.3323 34.9328 25.2689 34.99 25.2128C35.0354 25.169 35.0897 25.1354 35.1491 25.114C35.2085 25.0927 35.2718 25.0842 35.3347 25.089H36.6166C36.6707 25.087 36.7246 25.0962 36.775 25.116C36.8254 25.1358 36.8712 25.1658 36.9095 25.2041C36.9478 25.2424 36.9778 25.2882 36.9976 25.3386C37.0174 25.389 37.0266 25.4429 37.0246 25.4971V36.191C37.0254 36.2429 37.0156 36.2945 36.9959 36.3426C36.9761 36.3906 36.9468 36.4341 36.9097 36.4705C36.8708 36.5086 36.8246 36.5384 36.7739 36.5582C36.7231 36.5779 36.6689 36.5872 36.6145 36.5854H35.2341C35.1808 36.5878 35.1277 36.5787 35.0782 36.5589C35.0287 36.5391 34.984 36.5089 34.9471 36.4705C34.876 36.3951 34.8376 36.2946 34.8404 36.191V29.0787L32.5412 33.4648C32.4867 33.5625 32.414 33.6488 32.327 33.7191C32.2282 33.7941 32.1062 33.8319 31.9823 33.8259H31.3084C31.1816 33.8344 31.0562 33.7964 30.9554 33.7191C30.8729 33.6471 30.8038 33.561 30.7514 33.4648L28.4516 29.0787V36.191C28.4519 36.2429 28.4419 36.2943 28.4221 36.3422C28.4024 36.3902 28.3734 36.4338 28.3367 36.4705C28.3 36.5072 28.2564 36.5362 28.2084 36.5559C28.1605 36.5757 28.1091 36.5857 28.0572 36.5854H26.6795Z" fill="white"/>
<path d="M41.6643 56.71C26.0301 56.71 13.311 43.9937 13.311 28.3533C13.311 12.7129 26.0273 0 41.6677 0C57.3081 0 70.0244 12.7163 70.0244 28.3567C70.0244 43.9971 57.2979 56.71 41.6643 56.71ZM41.6643 3.01519C27.6907 3.01451 16.3221 14.3824 16.3221 28.3533C16.3221 42.3242 27.6907 53.6982 41.6643 53.6982C55.638 53.6982 67.0058 42.3297 67.0058 28.3533C67.0058 14.3769 55.638 3.01451 41.6643 3.01451V3.01519Z" fill="white"/>
</svg>
