<svg width="25" height="25" viewBox="0 0 25 25" fill="none" xmlns="http://www.w3.org/2000/svg">
<path fill-rule="evenodd" clip-rule="evenodd" d="M16.3763 1.45592C15.6621 1.32999 14.9271 1.49293 14.3331 1.90889C13.9751 2.15958 13.6859 2.4898 13.4851 2.86897C13.1316 2.58795 12.7108 2.3962 12.2581 2.31637C11.5439 2.19044 10.8089 2.35338 10.2149 2.76934C9.62084 3.1853 9.21636 3.82021 9.09043 4.53439L7.81185 11.7855L7.34671 10.5045L7.3467 10.5044C7.09894 9.82216 6.5903 9.26625 5.93267 8.95901C5.27504 8.65176 4.52229 8.61834 3.84002 8.8661C3.15775 9.11385 2.60185 9.6225 2.2946 10.2801C1.99212 10.9276 1.95503 11.6672 2.19037 12.341C3.17088 15.9007 4.06451 18.4655 5.2994 20.2339C6.58511 22.0752 8.21607 23.0228 10.5186 23.4288C11.63 23.6248 12.7692 23.5999 13.871 23.3557C14.9728 23.1114 16.0156 22.6525 16.9401 22.0052C17.8646 21.3579 18.6525 20.5349 19.2588 19.583C19.8652 18.6312 20.2781 17.5693 20.4741 16.4579L21.8986 8.37942C22.0245 7.66523 21.8616 6.93027 21.4456 6.33622C21.0297 5.74217 20.3947 5.33769 19.6806 5.21176C19.2775 5.1407 18.8679 5.16163 18.4807 5.26811L18.5943 4.62357C18.7202 3.90939 18.5573 3.17443 18.1413 2.58038C17.7254 1.98633 17.0905 1.58185 16.3763 1.45592ZM16.512 7.43479C16.5123 7.43311 16.5126 7.43144 16.5129 7.42977L17.0555 4.35225C17.1095 4.04617 17.0397 3.73119 16.8614 3.4766C16.6831 3.222 16.411 3.04865 16.105 2.99468C15.7989 2.94071 15.4839 3.01054 15.2293 3.18881C14.9747 3.36708 14.8014 3.63918 14.7474 3.94526L14.4778 5.47448C14.4772 5.47766 14.4767 5.48084 14.4761 5.48403L13.323 12.0238C13.248 12.4487 12.8428 12.7324 12.4179 12.6575C11.993 12.5826 11.7093 12.1774 11.7842 11.7524L12.9364 5.218C12.9367 5.21623 12.937 5.21446 12.9373 5.2127L12.9384 5.20628C12.9903 4.90222 12.9202 4.58986 12.7432 4.33705C12.5649 4.08246 12.2928 3.90911 11.9868 3.85514C11.6807 3.80117 11.3657 3.871 11.1111 4.04926C10.8565 4.22753 10.6832 4.49964 10.6292 4.80571L8.84353 14.9327C8.78211 15.281 8.49431 15.5446 8.14194 15.5753C7.78956 15.606 7.46052 15.3961 7.33981 15.0637L5.87803 11.0378L5.87802 11.0377C5.77171 10.745 5.55346 10.5065 5.27129 10.3746C4.9891 10.2428 4.6661 10.2284 4.37335 10.3348C4.08059 10.4411 3.84206 10.6593 3.71022 10.9415C3.57838 11.2237 3.56404 11.5467 3.67035 11.8394C3.67744 11.859 3.68376 11.8788 3.68927 11.8988C4.676 15.4846 5.51467 17.8131 6.58047 19.3394C7.59863 20.7975 8.84171 21.5465 10.79 21.8901C11.6993 22.0504 12.6313 22.0301 13.5328 21.8302C14.4342 21.6304 15.2875 21.2549 16.0439 20.7253C16.8003 20.1957 17.4449 19.5223 17.941 18.7435C18.4371 17.9648 18.775 17.0959 18.9354 16.1866L20.3598 8.10809C20.4138 7.80201 20.344 7.48703 20.1657 7.23244C19.9874 6.97784 19.7153 6.8045 19.4092 6.75053C19.1032 6.69656 18.7882 6.76638 18.5336 6.94465C18.279 7.12292 18.1056 7.39502 18.0517 7.7011L17.1699 12.7021C17.0949 13.127 16.6897 13.4107 16.2648 13.3358C15.8399 13.2609 15.5562 12.8557 15.6311 12.4308L16.512 7.43479Z" fill="black"/>
</svg>
