<svg width="280" height="68" viewBox="0 0 280 68" fill="none" xmlns="http://www.w3.org/2000/svg">
<path d="M88.0727 40.4511C88.0268 40.4511 87.9813 40.442 87.9389 40.4244C87.8965 40.4068 87.858 40.381 87.8256 40.3486C87.7932 40.3161 87.7675 40.2775 87.75 40.2351C87.7325 40.1926 87.7235 40.1471 87.7236 40.1012V30.6225C87.7218 30.5741 87.7299 30.5258 87.7474 30.4807C87.765 30.4355 87.7916 30.3944 87.8256 30.3599C87.8573 30.3273 87.8954 30.3014 87.9375 30.2839C87.9795 30.2664 88.0247 30.2576 88.0702 30.258H94.4772C94.5256 30.2559 94.5739 30.2639 94.619 30.2815C94.6641 30.2991 94.7051 30.3259 94.7393 30.3602C94.7735 30.3945 94.8002 30.4355 94.8177 30.4806C94.8352 30.5258 94.8431 30.5741 94.8409 30.6225V31.5831C94.8414 31.6287 94.8326 31.6739 94.8151 31.7159C94.7976 31.758 94.7717 31.796 94.7389 31.8277C94.7045 31.8616 94.6636 31.8882 94.6186 31.9057C94.5736 31.9232 94.5255 31.9314 94.4772 31.9297H89.6864V34.5065H94.1567C94.2532 34.5029 94.3473 34.5368 94.4193 34.6011C94.4533 34.634 94.48 34.6737 94.4974 34.7178C94.5148 34.7618 94.5227 34.809 94.5204 34.8563V35.759C94.523 35.8062 94.5153 35.8534 94.4978 35.8973C94.4804 35.9413 94.4536 35.9809 94.4193 36.0134C94.3475 36.0781 94.2532 36.112 94.1567 36.108H89.6864V38.7729H94.5938C94.6421 38.7708 94.6903 38.7788 94.7354 38.7963C94.7805 38.8139 94.8214 38.8406 94.8556 38.8748C94.8898 38.909 94.9165 38.9499 94.934 38.995C94.9516 39.04 94.9596 39.0883 94.9575 39.1366V40.098C94.9579 40.1435 94.9491 40.1887 94.9316 40.2307C94.9141 40.2728 94.8882 40.3108 94.8555 40.3426C94.8213 40.3768 94.7804 40.4036 94.7354 40.4212C94.6903 40.4389 94.6421 40.4471 94.5938 40.4454L88.0727 40.4511ZM90.475 29.5298C90.4434 29.5343 90.4112 29.5314 90.381 29.5213C90.3507 29.5112 90.3232 29.4942 90.3007 29.4717C90.2782 29.4491 90.2612 29.4216 90.2511 29.3914C90.241 29.3611 90.2381 29.329 90.2426 29.2974C90.241 29.2626 90.2466 29.2278 90.2591 29.1952C90.2716 29.1627 90.2907 29.1331 90.3151 29.1082L91.4951 27.6665C91.5639 27.5826 91.6466 27.5111 91.7397 27.4553C91.8316 27.4164 91.9312 27.3988 92.0308 27.4039H93.5892C93.7734 27.4039 93.8656 27.4969 93.8656 27.6812C93.866 27.7137 93.8598 27.7459 93.8473 27.7759C93.8348 27.8059 93.8163 27.8331 93.793 27.8557L91.9876 29.3406C91.9209 29.4014 91.8446 29.4508 91.7617 29.4866C91.6707 29.5185 91.5744 29.5332 91.478 29.5298H90.475Z" fill="#7221BF"/>
<path d="M96.9545 40.4509C96.9086 40.4509 96.8631 40.4419 96.8207 40.4243C96.7783 40.4067 96.7398 40.3809 96.7074 40.3484C96.675 40.3159 96.6493 40.2773 96.6318 40.2349C96.6143 40.1925 96.6054 40.147 96.6055 40.1011V33.2285C96.6053 33.1826 96.6141 33.1371 96.6316 33.0946C96.649 33.0521 96.6747 33.0135 96.7072 32.981C96.7396 32.9484 96.7782 32.9227 96.8206 32.9051C96.863 32.8876 96.9086 32.8786 96.9545 32.8787H98.0904C98.1364 32.8785 98.182 32.8874 98.2245 32.9049C98.2671 32.9224 98.3057 32.9481 98.3382 32.9807C98.3708 33.0132 98.3965 33.0519 98.414 33.0944C98.4315 33.1369 98.4404 33.1825 98.4402 33.2285V33.7235C98.6617 33.4367 98.9423 33.2009 99.263 33.032C99.6425 32.834 100.065 32.7315 100.493 32.7335C101.6 32.714 102.372 33.1459 102.809 34.0293C103.039 33.6335 103.374 33.3085 103.777 33.0899C104.206 32.8506 104.69 32.7278 105.182 32.7335C105.663 32.7277 106.138 32.848 106.558 33.0826C106.983 33.3281 107.324 33.6961 107.537 34.1386C107.775 34.6088 107.893 35.2033 107.893 35.9219V40.1011C107.893 40.147 107.884 40.1925 107.867 40.2349C107.849 40.2773 107.823 40.3159 107.791 40.3484C107.759 40.3809 107.72 40.4067 107.678 40.4243C107.635 40.4419 107.59 40.4509 107.544 40.4509H106.347C106.301 40.451 106.255 40.4421 106.213 40.4245C106.17 40.407 106.132 40.3812 106.099 40.3487C106.067 40.3162 106.041 40.2776 106.023 40.2351C106.006 40.1926 105.997 40.1471 105.997 40.1011V36.0353C105.997 35.6004 105.934 35.2533 105.808 34.994C105.704 34.7603 105.524 34.5683 105.298 34.4484C105.076 34.3387 104.832 34.2828 104.585 34.2853C104.361 34.2886 104.142 34.3445 103.944 34.4484C103.716 34.5703 103.532 34.7613 103.419 34.994C103.284 35.2516 103.216 35.5987 103.216 36.0353V40.0978C103.216 40.1438 103.207 40.1893 103.19 40.2318C103.172 40.2743 103.147 40.3129 103.114 40.3454C103.082 40.3779 103.043 40.4037 103 40.4212C102.958 40.4388 102.912 40.4478 102.866 40.4477H101.673C101.625 40.4498 101.578 40.4418 101.534 40.4241C101.49 40.4063 101.45 40.3793 101.417 40.3449C101.355 40.2787 101.322 40.191 101.323 40.1003V36.0353C101.323 35.6004 101.255 35.2533 101.119 34.994C101.006 34.7613 100.823 34.5703 100.595 34.4484C100.383 34.3408 100.148 34.2849 99.9105 34.2853C99.6826 34.2872 99.4586 34.3449 99.2581 34.4533C99.0319 34.5776 98.849 34.7679 98.7338 34.9989C98.5979 35.2516 98.5299 35.5963 98.5299 36.0328V40.0954C98.53 40.1414 98.5211 40.1869 98.5035 40.2294C98.486 40.2719 98.4602 40.3105 98.4277 40.343C98.3952 40.3755 98.3566 40.4013 98.3141 40.4188C98.2716 40.4363 98.2261 40.4453 98.1801 40.4452L96.9545 40.4509Z" fill="#7221BF"/>
<path d="M113.088 40.5961C112.311 40.5961 111.658 40.4602 111.131 40.1884C110.621 39.9353 110.2 39.5343 109.922 39.0378C109.635 38.504 109.473 37.9116 109.449 37.3058C109.44 37.1304 109.435 36.9176 109.435 36.6648C109.435 36.412 109.44 36.1984 109.449 36.0239C109.472 35.4132 109.64 34.8166 109.939 34.2837C110.227 33.7923 110.652 33.3956 111.162 33.1421C111.691 32.8703 112.335 32.7344 113.091 32.7344C113.848 32.7344 114.491 32.8703 115.021 33.1421C115.531 33.3956 115.956 33.7923 116.244 34.2837C116.543 34.8167 116.71 35.4132 116.733 36.0239C116.743 36.1984 116.748 36.4129 116.748 36.6648C116.748 36.9168 116.743 37.1304 116.733 37.3058C116.709 37.9115 116.547 38.5039 116.26 39.0378C115.982 39.5339 115.561 39.9349 115.052 40.1884C114.519 40.4596 113.865 40.5955 113.088 40.5961ZM113.088 39.1544C113.603 39.1544 114.001 38.9913 114.282 38.6651C114.563 38.3389 114.718 37.8608 114.747 37.2307C114.757 37.0856 114.762 36.8953 114.762 36.6599C114.762 36.4245 114.757 36.2343 114.747 36.0891C114.719 35.4677 114.563 34.9921 114.282 34.6621C114 34.3321 113.602 34.1668 113.088 34.1663C112.574 34.1663 112.176 34.3316 111.894 34.6621C111.613 34.9926 111.457 35.4683 111.428 36.0891C111.418 36.2343 111.413 36.4245 111.413 36.6599C111.413 36.8953 111.418 37.0856 111.428 37.2307C111.457 37.8619 111.613 38.34 111.894 38.6651C112.176 38.9902 112.574 39.1533 113.088 39.1544Z" fill="#7221BF"/>
<path d="M121.723 40.4509C121.14 40.4509 120.65 40.349 120.255 40.1451C119.866 39.9496 119.553 39.6291 119.367 39.2351C119.173 38.8322 119.076 38.3296 119.076 37.7273V34.4223H117.925C117.879 34.4224 117.834 34.4134 117.792 34.3959C117.749 34.3784 117.711 34.3527 117.678 34.3203C117.646 34.2879 117.62 34.2494 117.603 34.207C117.585 34.1646 117.576 34.1191 117.576 34.0733V33.2285C117.576 33.1825 117.585 33.137 117.602 33.0945C117.62 33.0521 117.646 33.0134 117.678 32.9809C117.71 32.9484 117.749 32.9226 117.791 32.9051C117.834 32.8875 117.879 32.8785 117.925 32.8787H119.076V30.4617C119.074 30.3709 119.108 30.283 119.17 30.217C119.203 30.1828 119.243 30.156 119.287 30.1384C119.331 30.1209 119.378 30.1129 119.425 30.1151H120.605C120.651 30.115 120.696 30.124 120.739 30.1415C120.781 30.159 120.819 30.1847 120.852 30.2171C120.884 30.2495 120.91 30.288 120.928 30.3304C120.945 30.3728 120.954 30.4183 120.954 30.4641V32.8811H122.774C122.82 32.8809 122.866 32.8898 122.908 32.9073C122.951 32.9248 122.989 32.9506 123.022 32.9831C123.054 33.0156 123.08 33.0543 123.098 33.0968C123.115 33.1393 123.124 33.1849 123.124 33.2309V34.0757C123.124 34.1217 123.115 34.1672 123.097 34.2096C123.08 34.2521 123.054 34.2906 123.021 34.323C122.989 34.3555 122.95 34.3812 122.908 34.3986C122.865 34.4161 122.82 34.425 122.774 34.4247H120.954V37.5846C120.954 37.9825 121.024 38.2932 121.165 38.5166C121.306 38.7401 121.55 38.8515 121.899 38.851H122.904C122.95 38.8507 122.995 38.8595 123.038 38.877C123.08 38.8944 123.119 38.9202 123.151 38.9528C123.184 38.9853 123.21 39.024 123.227 39.0666C123.244 39.1092 123.253 39.1548 123.253 39.2008V40.1035C123.253 40.1494 123.244 40.195 123.226 40.2374C123.209 40.2799 123.183 40.3185 123.151 40.3511C123.118 40.3836 123.08 40.4094 123.037 40.4269C122.995 40.4445 122.95 40.4534 122.904 40.4533L121.723 40.4509Z" fill="#7221BF"/>
<path d="M124.839 31.627C124.792 31.6306 124.745 31.6239 124.701 31.6076C124.657 31.5913 124.617 31.5656 124.583 31.5324C124.55 31.4992 124.525 31.4592 124.508 31.4151C124.492 31.3711 124.485 31.324 124.489 31.2772V30.2285C124.488 30.1378 124.522 30.0502 124.583 29.9839C124.616 29.9496 124.656 29.9228 124.7 29.9052C124.744 29.8876 124.791 29.8797 124.839 29.882H126.163C126.211 29.8803 126.26 29.8885 126.305 29.906C126.35 29.9235 126.391 29.95 126.426 29.9839C126.458 30.0157 126.484 30.0538 126.501 30.0958C126.519 30.1378 126.528 30.183 126.527 30.2285V31.2772C126.53 31.3245 126.522 31.3718 126.504 31.4158C126.486 31.4598 126.46 31.4996 126.426 31.5324C126.354 31.5967 126.259 31.6306 126.163 31.627H124.839ZM124.897 40.451C124.851 40.4511 124.805 40.4421 124.763 40.4246C124.72 40.407 124.681 40.3812 124.649 40.3487C124.616 40.3162 124.591 40.2776 124.573 40.2351C124.556 40.1926 124.547 40.1471 124.547 40.1011V33.2286C124.547 33.1826 124.555 33.137 124.573 33.0944C124.59 33.0519 124.616 33.0132 124.649 32.9807C124.681 32.9482 124.72 32.9224 124.762 32.9049C124.805 32.8874 124.851 32.8785 124.897 32.8787H126.105C126.152 32.8765 126.199 32.8845 126.243 32.9021C126.287 32.9196 126.327 32.9465 126.359 32.9807C126.422 33.0468 126.456 33.1345 126.455 33.2253V40.0979C126.456 40.1888 126.422 40.2766 126.359 40.3425C126.327 40.3771 126.288 40.4042 126.244 40.4219C126.2 40.4397 126.152 40.4476 126.105 40.4453L124.897 40.451Z" fill="#7221BF"/>
<path d="M131.784 40.5961C131.006 40.5961 130.354 40.4602 129.827 40.1884C129.317 39.9353 128.896 39.5343 128.618 39.0378C128.331 38.504 128.169 37.9116 128.145 37.3058C128.136 37.1304 128.131 36.9176 128.131 36.6648C128.131 36.412 128.136 36.1984 128.145 36.0239C128.168 35.4132 128.335 34.8166 128.635 34.2837C128.923 33.7923 129.348 33.3956 129.858 33.1421C130.386 32.8703 131.029 32.7344 131.787 32.7344C132.545 32.7344 133.188 32.8703 133.716 33.1421C134.226 33.3959 134.651 33.7926 134.94 34.2837C135.238 34.8169 135.406 35.4133 135.429 36.0239C135.438 36.1984 135.443 36.4129 135.443 36.6648C135.443 36.9168 135.438 37.1304 135.429 37.3058C135.405 37.9117 135.243 38.5041 134.955 39.0378C134.677 39.5343 134.256 39.9353 133.747 40.1884C133.214 40.4596 132.56 40.5955 131.784 40.5961ZM131.784 39.1544C132.298 39.1544 132.695 38.9913 132.978 38.6651C133.26 38.3389 133.415 37.8608 133.443 37.2307C133.453 37.0856 133.458 36.8953 133.458 36.6599C133.458 36.4245 133.453 36.2343 133.443 36.0891C133.414 35.4677 133.259 34.9921 132.978 34.6621C132.697 34.3321 132.299 34.1668 131.784 34.1663C131.269 34.1663 130.871 34.3316 130.589 34.6621C130.308 34.9926 130.152 35.4683 130.124 36.0891C130.114 36.2343 130.109 36.4245 130.109 36.6599C130.109 36.8953 130.114 37.0856 130.124 37.2307C130.153 37.8619 130.308 38.34 130.589 38.6651C130.87 38.9902 131.268 39.1533 131.784 39.1544Z" fill="#7221BF"/>
<path d="M137.404 40.4509C137.311 40.4507 137.222 40.4138 137.157 40.3482C137.091 40.2827 137.054 40.1938 137.054 40.1011V33.2285C137.054 33.1826 137.063 33.137 137.08 33.0945C137.098 33.0521 137.124 33.0134 137.156 32.9809C137.189 32.9484 137.227 32.9227 137.27 32.9051C137.312 32.8876 137.358 32.8786 137.404 32.8787H138.598C138.644 32.8785 138.689 32.8874 138.732 32.9049C138.774 32.9224 138.813 32.9482 138.845 32.9807C138.878 33.0132 138.904 33.0519 138.921 33.0944C138.939 33.137 138.948 33.1825 138.947 33.2285V33.8254C139.214 33.5031 139.543 33.2382 139.915 33.0467C140.308 32.8379 140.798 32.7336 141.383 32.7336C141.925 32.72 142.46 32.8588 142.927 33.134C143.366 33.4038 143.718 33.796 143.938 34.2625C144.176 34.7474 144.295 35.3297 144.295 36.0092V40.1011C144.295 40.1471 144.286 40.1926 144.269 40.2351C144.251 40.2776 144.225 40.3162 144.193 40.3487C144.16 40.3812 144.122 40.407 144.079 40.4245C144.037 40.4421 143.991 40.451 143.945 40.4509H142.659C142.566 40.4507 142.477 40.4138 142.411 40.3482C142.346 40.2827 142.309 40.1938 142.309 40.1011V36.0973C142.309 35.5341 142.171 35.0924 141.894 34.7722C141.618 34.452 141.218 34.2916 140.692 34.2911C140.187 34.2911 139.785 34.4514 139.484 34.7722C139.183 35.0929 139.033 35.5346 139.033 36.0973V40.1011C139.033 40.1471 139.024 40.1926 139.007 40.2351C138.989 40.2776 138.963 40.3162 138.931 40.3487C138.898 40.3812 138.86 40.407 138.817 40.4245C138.775 40.4421 138.729 40.451 138.683 40.4509H137.404Z" fill="#7221BF"/>
<path d="M146.402 40.4509C146.356 40.4509 146.311 40.4418 146.269 40.4242C146.226 40.4067 146.188 40.3809 146.155 40.3484C146.123 40.3159 146.097 40.2773 146.08 40.2349C146.062 40.1924 146.053 40.147 146.053 40.1011V38.6594C146.051 38.6111 146.059 38.5629 146.077 38.5179C146.094 38.4728 146.121 38.4319 146.155 38.3976C146.187 38.3649 146.225 38.3391 146.267 38.3216C146.309 38.304 146.354 38.2952 146.4 38.2957H147.856C147.902 38.2952 147.947 38.304 147.989 38.3216C148.031 38.3391 148.069 38.3649 148.101 38.3976C148.135 38.432 148.161 38.473 148.179 38.518C148.196 38.563 148.205 38.6111 148.203 38.6594V40.1011C148.203 40.147 148.194 40.1924 148.176 40.2349C148.159 40.2773 148.133 40.3159 148.101 40.3484C148.068 40.3809 148.03 40.4067 147.988 40.4242C147.945 40.4418 147.9 40.4509 147.854 40.4509H146.402Z" fill="#7221BF"/>
<path d="M153.901 40.4509C153.855 40.451 153.81 40.442 153.767 40.4245C153.725 40.4069 153.686 40.3812 153.653 40.3487C153.621 40.3162 153.595 40.2776 153.578 40.2351C153.56 40.1926 153.551 40.147 153.551 40.1011V30.6223C153.55 30.5739 153.558 30.5257 153.575 30.4806C153.593 30.4355 153.619 30.3944 153.653 30.3598C153.685 30.3271 153.723 30.3012 153.765 30.2837C153.807 30.2662 153.852 30.2574 153.898 30.2578H157.668C158.844 30.2578 159.771 30.5296 160.45 31.0733C161.129 31.6169 161.469 32.4082 161.469 33.447C161.469 34.1657 161.292 34.7637 160.938 35.241C160.578 35.7199 160.084 36.0801 159.518 36.275L161.644 39.9877C161.671 40.0378 161.686 40.0937 161.688 40.1508C161.689 40.1918 161.681 40.2325 161.664 40.27C161.648 40.3076 161.624 40.3412 161.593 40.3685C161.537 40.4243 161.461 40.4559 161.382 40.4566H160.06C159.991 40.4613 159.923 40.4521 159.858 40.4295C159.793 40.407 159.733 40.3715 159.682 40.3253C159.601 40.2479 159.533 40.1595 159.477 40.0627L157.602 36.6118H155.575V40.1068C155.576 40.1975 155.543 40.2852 155.481 40.3514C155.448 40.3858 155.408 40.4127 155.365 40.4305C155.321 40.4482 155.273 40.4563 155.226 40.4542L153.901 40.4509ZM155.575 34.9613H157.628C158.22 34.9613 158.662 34.8279 158.954 34.5609C159.245 34.294 159.39 33.9178 159.39 33.4324C159.39 32.9469 159.247 32.5664 158.961 32.2907C158.675 32.0151 158.231 31.877 157.628 31.8765H155.575V34.9613Z" fill="#7221BF"/>
<path d="M166.35 40.5962C165.272 40.5962 164.418 40.2855 163.788 39.6641C163.157 39.0427 162.817 38.1593 162.768 37.0139C162.759 36.9177 162.754 36.7937 162.754 36.6429C162.752 36.5239 162.757 36.405 162.768 36.2865C162.806 35.5581 162.974 34.9269 163.271 34.3931C163.553 33.8729 163.981 33.4458 164.501 33.1634C165.025 32.8763 165.641 32.7331 166.35 32.7336C167.136 32.7336 167.797 32.8967 168.33 33.2229C168.86 33.5429 169.281 34.0149 169.539 34.5774C169.811 35.1547 169.947 35.822 169.947 36.5793V36.8851C169.947 36.9306 169.938 36.9758 169.921 37.0178C169.903 37.0599 169.877 37.0979 169.845 37.1297C169.81 37.1637 169.77 37.1904 169.724 37.2079C169.679 37.2254 169.631 37.2335 169.583 37.2316H164.748V37.3482C164.754 37.671 164.821 37.9898 164.946 38.2876C165.058 38.5633 165.244 38.8026 165.484 38.9791C165.732 39.1571 166.031 39.2493 166.336 39.2417C166.753 39.2572 167.16 39.1111 167.472 38.834C167.561 38.7542 167.643 38.6663 167.716 38.5714C167.771 38.4864 167.843 38.4143 167.928 38.3602C168.006 38.3316 168.089 38.3191 168.172 38.3235H169.424C169.513 38.3205 169.599 38.3521 169.665 38.4116C169.695 38.4383 169.719 38.4721 169.733 38.5101C169.747 38.5482 169.752 38.5891 169.746 38.6293C169.736 38.7848 169.656 38.9751 169.506 39.2001C169.327 39.4516 169.108 39.672 168.858 39.8525C168.537 40.0862 168.181 40.2658 167.802 40.3842C167.333 40.5327 166.842 40.6043 166.35 40.5962ZM164.748 36.0093H167.967V35.9661C167.973 35.6259 167.908 35.2883 167.774 34.9753C167.656 34.7044 167.464 34.4721 167.221 34.305C167.032 34.1753 166.817 34.0891 166.591 34.0528C166.366 34.0165 166.134 34.031 165.915 34.0952C165.695 34.1594 165.493 34.2717 165.322 34.4239C165.151 34.5761 165.017 34.7645 164.928 34.9753C164.8 35.2893 164.738 35.6263 164.745 35.9653L164.748 36.0093Z" fill="#7221BF"/>
<path d="M171.852 40.451C171.806 40.4511 171.76 40.4421 171.718 40.4246C171.675 40.407 171.637 40.3813 171.604 40.3487C171.572 40.3162 171.546 40.2776 171.529 40.2351C171.511 40.1926 171.502 40.1471 171.503 40.1012V30.4618C171.502 30.4163 171.511 30.3712 171.528 30.3291C171.545 30.2871 171.571 30.249 171.604 30.2172C171.636 30.1847 171.674 30.1589 171.716 30.1414C171.758 30.1239 171.803 30.115 171.848 30.1152H173.057C173.103 30.115 173.148 30.1239 173.191 30.1414C173.233 30.1588 173.272 30.1845 173.304 30.2169C173.337 30.2494 173.363 30.2879 173.38 30.3304C173.398 30.3728 173.407 30.4183 173.407 30.4643V40.1012C173.407 40.1472 173.398 40.1927 173.38 40.2352C173.363 40.2777 173.337 40.3163 173.304 40.3488C173.272 40.3813 173.233 40.4071 173.191 40.4246C173.148 40.4421 173.103 40.4511 173.057 40.451H171.852Z" fill="#7221BF"/>
<path d="M177.547 40.5962C177.074 40.6032 176.606 40.5011 176.178 40.2978C175.793 40.1173 175.46 39.8417 175.21 39.497C174.912 39.0686 174.794 38.5404 174.881 38.0259C174.968 37.5113 175.254 37.0514 175.676 36.7449C176.224 36.3421 176.95 36.0727 177.853 35.9368L179.848 35.6457V35.3399C179.848 34.9322 179.746 34.6166 179.542 34.3931C179.338 34.1697 178.989 34.0583 178.493 34.0588C178.144 34.0588 177.861 34.1292 177.642 34.27C177.428 34.4048 177.257 34.5996 177.153 34.8302C177.12 34.8894 177.071 34.9383 177.012 34.9717C176.953 35.005 176.885 35.0215 176.818 35.0194H175.667C175.623 35.0228 175.579 35.0167 175.538 35.0017C175.496 34.9866 175.459 34.9629 175.427 34.9322C175.371 34.8681 175.341 34.7844 175.346 34.6989C175.369 34.4977 175.433 34.3034 175.535 34.1281C175.674 33.8773 175.862 33.6569 176.088 33.4798C176.381 33.2485 176.712 33.069 177.066 32.949C177.53 32.7927 178.018 32.7187 178.507 32.7304C179.119 32.7304 179.635 32.8055 180.057 32.9555C180.435 33.0795 180.78 33.2862 181.069 33.5606C181.319 33.8099 181.509 34.1138 181.622 34.4486C181.739 34.7956 181.798 35.1596 181.797 35.5258V40.098C181.797 40.144 181.788 40.1895 181.77 40.232C181.753 40.2745 181.727 40.3131 181.694 40.3456C181.662 40.3781 181.623 40.4039 181.581 40.4214C181.538 40.439 181.493 40.4479 181.447 40.4478H180.268C180.22 40.45 180.173 40.4419 180.129 40.4242C180.085 40.4065 180.045 40.3795 180.013 40.3451C179.951 40.2788 179.917 40.1912 179.918 40.1004V39.5296C179.778 39.729 179.605 39.9039 179.408 40.0474C179.171 40.2195 178.909 40.3522 178.63 40.4405C178.279 40.5498 177.914 40.6023 177.547 40.5962ZM178.042 39.21C178.364 39.2142 178.682 39.1391 178.967 38.9914C179.249 38.8388 179.477 38.6023 179.619 38.3146C179.783 38.0091 179.863 37.6231 179.86 37.1567V36.8509L178.404 37.0841C177.831 37.1716 177.404 37.3124 177.123 37.5065C176.841 37.7006 176.7 37.9382 176.7 38.2192C176.695 38.4195 176.765 38.6143 176.897 38.7656C177.032 38.9192 177.205 39.0348 177.399 39.1007C177.605 39.176 177.823 39.2149 178.042 39.2157V39.21Z" fill="#7221BF"/>
<path d="M187.011 40.4509C186.429 40.4509 185.94 40.349 185.544 40.1451C185.154 39.9498 184.84 39.6294 184.654 39.2351C184.459 38.8322 184.362 38.3296 184.363 37.7273V34.4223H183.212C183.166 34.4226 183.121 34.4138 183.078 34.3964C183.036 34.379 182.997 34.3533 182.965 34.3208C182.932 34.2883 182.907 34.2497 182.889 34.2072C182.872 34.1647 182.863 34.1192 182.863 34.0733V33.2285C182.863 33.1825 182.872 33.1369 182.889 33.0943C182.906 33.0517 182.932 33.013 182.964 32.9804C182.997 32.9479 183.036 32.9221 183.078 32.9046C183.121 32.8872 183.166 32.8783 183.212 32.8787H184.363V30.4617C184.361 30.3709 184.395 30.283 184.457 30.217C184.49 30.1828 184.53 30.156 184.574 30.1384C184.618 30.1209 184.665 30.1129 184.712 30.1151H185.891C185.937 30.1149 185.982 30.1238 186.025 30.1412C186.067 30.1587 186.106 30.1844 186.139 30.2168C186.171 30.2492 186.197 30.2878 186.214 30.3302C186.232 30.3727 186.241 30.4182 186.241 30.4641V32.8811H188.061C188.107 32.8809 188.153 32.8898 188.195 32.9073C188.238 32.9248 188.276 32.9506 188.309 32.9831C188.341 33.0156 188.367 33.0543 188.385 33.0968C188.402 33.1393 188.411 33.1849 188.411 33.2309V34.0757C188.411 34.1217 188.402 34.1672 188.384 34.2096C188.367 34.2521 188.341 34.2906 188.308 34.323C188.276 34.3555 188.237 34.3812 188.195 34.3986C188.152 34.4161 188.107 34.425 188.061 34.4247H186.241V37.5846C186.241 37.9825 186.311 38.2932 186.452 38.5166C186.593 38.7401 186.838 38.8515 187.186 38.851H188.191C188.237 38.8509 188.282 38.8599 188.324 38.8774C188.367 38.895 188.405 38.9207 188.438 38.9533C188.47 38.9858 188.496 39.0244 188.513 39.0669C188.531 39.1094 188.54 39.1549 188.54 39.2008V40.1035C188.54 40.1494 188.531 40.1949 188.513 40.2373C188.496 40.2798 188.47 40.3183 188.438 40.3508C188.405 40.3833 188.367 40.4091 188.324 40.4267C188.282 40.4443 188.237 40.4533 188.191 40.4533L187.011 40.4509Z" fill="#7221BF"/>
<path d="M190.127 31.627C190.081 31.6304 190.034 31.6237 189.99 31.6073C189.946 31.5909 189.906 31.5653 189.873 31.5321C189.84 31.4989 189.814 31.4589 189.798 31.4149C189.781 31.3709 189.775 31.324 189.778 31.2772V30.2285C189.777 30.1378 189.811 30.05 189.873 29.9839C189.906 29.9497 189.945 29.9229 189.989 29.9053C190.033 29.8877 190.08 29.8797 190.127 29.882H191.452C191.501 29.8803 191.549 29.8885 191.594 29.906C191.639 29.9235 191.68 29.95 191.715 29.9839C191.748 30.0157 191.774 30.0537 191.791 30.0958C191.809 30.1378 191.817 30.183 191.817 30.2285V31.2772C191.819 31.3245 191.811 31.3718 191.794 31.4158C191.776 31.4598 191.749 31.4996 191.715 31.5324C191.643 31.5967 191.549 31.6306 191.452 31.627H190.127ZM190.186 40.4509C190.14 40.4511 190.095 40.4421 190.052 40.4245C190.01 40.407 189.971 40.3812 189.938 40.3487C189.906 40.3162 189.88 40.2776 189.863 40.2351C189.845 40.1926 189.836 40.1471 189.836 40.1011V33.2285C189.836 33.1825 189.845 33.137 189.862 33.0944C189.88 33.0519 189.906 33.0132 189.938 32.9807C189.971 32.9482 190.009 32.9224 190.052 32.9049C190.095 32.8874 190.14 32.8785 190.186 32.8787H191.395C191.442 32.8765 191.489 32.8845 191.533 32.902C191.577 32.9196 191.616 32.9464 191.649 32.9806C191.711 33.0468 191.745 33.1346 191.744 33.2253V40.0979C191.745 40.1886 191.711 40.2765 191.649 40.3425C191.617 40.3771 191.577 40.4042 191.533 40.4219C191.489 40.4397 191.442 40.4476 191.395 40.4452L190.186 40.4509Z" fill="#7221BF"/>
<path d="M197.073 40.5961C196.296 40.5961 195.643 40.4602 195.116 40.1884C194.607 39.9353 194.185 39.5343 193.908 39.0378C193.62 38.5041 193.458 37.9116 193.435 37.3058C193.425 37.1304 193.42 36.9176 193.42 36.6648C193.42 36.412 193.425 36.1984 193.435 36.0239C193.457 35.4131 193.624 34.8165 193.924 34.2837C194.212 33.7923 194.637 33.3956 195.147 33.1421C195.676 32.8703 196.319 32.7344 197.077 32.7344C197.834 32.7344 198.477 32.8703 199.005 33.1421C199.515 33.3956 199.94 33.7923 200.228 34.2837C200.527 34.8168 200.695 35.4132 200.717 36.0239C200.726 36.1984 200.731 36.4129 200.731 36.6648C200.731 36.9168 200.726 37.1304 200.717 37.3058C200.693 37.9116 200.531 38.5039 200.244 39.0378C199.966 39.5343 199.545 39.9353 199.035 40.1884C198.504 40.4596 197.85 40.5955 197.073 40.5961ZM197.073 39.1544C197.587 39.1544 197.985 38.9913 198.267 38.6651C198.549 38.3389 198.704 37.8608 198.733 37.2307C198.742 37.0856 198.747 36.8953 198.747 36.6599C198.747 36.4245 198.742 36.2343 198.733 36.0891C198.703 35.4677 198.548 34.9921 198.267 34.6621C197.986 34.3321 197.588 34.1668 197.073 34.1663C196.558 34.1663 196.16 34.3316 195.879 34.6621C195.598 34.9926 195.442 35.4683 195.413 36.0891C195.403 36.2343 195.398 36.4245 195.398 36.6599C195.398 36.8953 195.403 37.0856 195.413 37.2307C195.442 37.8619 195.598 38.34 195.879 38.6651C196.16 38.9902 196.558 39.1533 197.073 39.1544Z" fill="#7221BF"/>
<path d="M202.693 40.451C202.647 40.4511 202.602 40.4421 202.559 40.4245C202.517 40.407 202.478 40.3812 202.446 40.3487C202.413 40.3162 202.387 40.2776 202.37 40.2351C202.352 40.1926 202.343 40.1471 202.344 40.1011V33.2286C202.343 33.1826 202.352 33.137 202.37 33.0944C202.387 33.0519 202.413 33.0132 202.445 32.9807C202.478 32.9482 202.517 32.9224 202.559 32.9049C202.602 32.8874 202.647 32.8785 202.693 32.8787H203.887C203.933 32.8785 203.979 32.8874 204.021 32.9049C204.064 32.9224 204.102 32.9482 204.135 32.9807C204.168 33.0132 204.193 33.0519 204.211 33.0944C204.228 33.137 204.237 33.1826 204.237 33.2286V33.8255C204.504 33.5031 204.833 33.2382 205.205 33.0467C205.598 32.838 206.086 32.7336 206.669 32.7336C207.21 32.72 207.745 32.8587 208.211 33.134C208.651 33.4036 209.003 33.7958 209.223 34.2625C209.462 34.7475 209.581 35.3297 209.581 36.0092V40.1011C209.581 40.1471 209.572 40.1926 209.554 40.2351C209.537 40.2776 209.511 40.3162 209.478 40.3487C209.446 40.3812 209.407 40.407 209.365 40.4245C209.322 40.4421 209.277 40.4511 209.231 40.451H207.95C207.904 40.4511 207.858 40.4421 207.816 40.4245C207.773 40.407 207.735 40.3812 207.702 40.3487C207.67 40.3162 207.644 40.2776 207.626 40.2351C207.609 40.1926 207.6 40.1471 207.6 40.1011V36.0973C207.6 35.5341 207.462 35.0924 207.186 34.7722C206.909 34.452 206.509 34.2916 205.984 34.2911C205.479 34.2911 205.076 34.4515 204.775 34.7722C204.475 35.0929 204.324 35.5346 204.324 36.0973V40.1011C204.324 40.1471 204.315 40.1926 204.298 40.2351C204.28 40.2776 204.255 40.3162 204.222 40.3487C204.189 40.3812 204.151 40.407 204.108 40.4245C204.066 40.4421 204.02 40.4511 203.974 40.451H202.693Z" fill="#7221BF"/>
<path d="M211.692 40.4509C211.646 40.451 211.6 40.442 211.558 40.4245C211.515 40.4069 211.477 40.3812 211.444 40.3487C211.412 40.3162 211.386 40.2776 211.368 40.2351C211.351 40.1926 211.342 40.147 211.342 40.1011V38.6594C211.34 38.6111 211.348 38.563 211.366 38.518C211.384 38.4729 211.41 38.432 211.444 38.3976C211.476 38.365 211.514 38.3392 211.556 38.3217C211.598 38.3042 211.643 38.2953 211.689 38.2957H213.145C213.19 38.2953 213.236 38.3041 213.278 38.3216C213.32 38.3391 213.358 38.365 213.39 38.3976C213.424 38.432 213.45 38.4729 213.468 38.518C213.485 38.563 213.493 38.6111 213.492 38.6594V40.1011C213.492 40.147 213.483 40.1924 213.465 40.2349C213.448 40.2773 213.422 40.3159 213.39 40.3484C213.357 40.3809 213.319 40.4067 213.276 40.4242C213.234 40.4418 213.188 40.4509 213.143 40.4509H211.692Z" fill="#7221BF"/>
<path d="M222.772 40.5962C221.87 40.5962 221.105 40.4385 220.479 40.1232C219.874 39.8281 219.374 39.3556 219.045 38.7688C218.715 38.1816 218.53 37.4749 218.491 36.6486C218.481 36.2507 218.476 35.8236 218.476 35.3675C218.476 34.9114 218.481 34.4746 218.491 34.0571C218.53 33.2417 218.717 32.5379 219.052 31.9459C219.384 31.3566 219.886 30.8818 220.494 30.5841C221.119 30.2683 221.878 30.1106 222.772 30.1112C223.374 30.1025 223.974 30.1908 224.548 30.3729C225.036 30.5276 225.49 30.7721 225.888 31.0938C226.246 31.3863 226.539 31.7508 226.747 32.1637C226.952 32.5757 227.062 33.0286 227.068 33.4888C227.073 33.5291 227.069 33.5702 227.055 33.6084C227.04 33.6465 227.017 33.6805 226.986 33.7073C226.925 33.7645 226.845 33.7958 226.761 33.7945H225.375C225.281 33.7984 225.188 33.7696 225.113 33.713C225.035 33.6427 224.983 33.5477 224.967 33.4439C224.812 32.803 224.545 32.3662 224.166 32.1335C223.787 31.9008 223.317 31.7842 222.754 31.7837C222.102 31.7837 221.582 31.9658 221.197 32.33C220.811 32.6942 220.602 33.2922 220.57 34.124C220.541 34.9199 220.541 35.7353 220.57 36.5703C220.6 37.4053 220.808 38.0047 221.197 38.3684C221.585 38.7321 222.104 38.9142 222.754 38.9147C223.317 38.9147 223.788 38.7957 224.166 38.5576C224.545 38.3195 224.812 37.8845 224.967 37.2529C224.97 37.2026 224.982 37.1534 225.004 37.1083C225.026 37.0631 225.057 37.023 225.096 36.9903C225.134 36.9576 225.178 36.9331 225.226 36.9182C225.274 36.9033 225.325 36.8984 225.375 36.9038H226.761C226.845 36.9021 226.926 36.9335 226.986 36.9911C227.017 37.0179 227.04 37.0519 227.055 37.09C227.069 37.1282 227.073 37.1693 227.068 37.2096C227.062 37.6695 226.952 38.1222 226.747 38.5339C226.539 38.9471 226.246 39.3118 225.888 39.6046C225.49 39.926 225.035 40.1704 224.548 40.3254C223.974 40.5106 223.375 40.602 222.772 40.5962Z" fill="#7221BF"/>
<path d="M231.974 40.5961C231.198 40.5961 230.546 40.4602 230.017 40.1884C229.507 39.9354 229.086 39.5343 228.808 39.0378C228.52 38.504 228.359 37.9116 228.335 37.3058C228.325 37.1304 228.32 36.9176 228.32 36.6648C228.32 36.412 228.325 36.1984 228.335 36.0239C228.357 35.4132 228.525 34.8166 228.824 34.2837C229.112 33.7923 229.537 33.3956 230.047 33.1421C230.577 32.8703 231.22 32.7344 231.977 32.7344C232.734 32.7344 233.377 32.8703 233.906 33.1421C234.416 33.3956 234.841 33.7923 235.129 34.2837C235.428 34.8167 235.596 35.4132 235.619 36.0239C235.628 36.1984 235.633 36.4129 235.633 36.6648C235.633 36.9168 235.628 37.1304 235.619 37.3058C235.595 37.9115 235.433 38.5039 235.146 39.0378C234.868 39.5341 234.447 39.9351 233.937 40.1884C233.405 40.4596 232.751 40.5955 231.974 40.5961ZM231.974 39.1544C232.489 39.1544 232.887 38.9913 233.168 38.6651C233.449 38.3389 233.605 37.8608 233.635 37.2307C233.644 37.0856 233.649 36.8964 233.649 36.6599C233.649 36.4235 233.644 36.2375 233.635 36.0891C233.605 35.4677 233.45 34.9921 233.168 34.6621C232.887 34.3321 232.489 34.1668 231.974 34.1663C231.46 34.1663 231.062 34.3316 230.781 34.6621C230.499 34.9926 230.344 35.4683 230.315 36.0891C230.304 36.2343 230.3 36.4235 230.3 36.6599C230.3 36.8964 230.304 37.0823 230.315 37.2307C230.344 37.8619 230.499 38.34 230.781 38.6651C231.062 38.9902 231.46 39.1533 231.974 39.1544Z" fill="#7221BF"/>
<path d="M237.609 40.451C237.563 40.451 237.518 40.442 237.475 40.4244C237.433 40.4068 237.394 40.381 237.362 40.3485C237.33 40.316 237.304 40.2774 237.286 40.235C237.269 40.1926 237.26 40.1471 237.26 40.1012V30.4618C237.26 30.4159 237.269 30.3705 237.286 30.3281C237.304 30.2857 237.33 30.2472 237.362 30.2148C237.394 30.1823 237.433 30.1566 237.475 30.1391C237.518 30.1216 237.563 30.1127 237.609 30.1128H238.818C238.863 30.1126 238.909 30.1215 238.951 30.1389C238.994 30.1564 239.033 30.1821 239.065 30.2145C239.098 30.2469 239.123 30.2855 239.141 30.3279C239.158 30.3704 239.167 30.4159 239.167 30.4618V40.1012C239.167 40.1472 239.158 40.1927 239.141 40.2352C239.123 40.2777 239.098 40.3163 239.065 40.3488C239.033 40.3813 238.994 40.4071 238.952 40.4246C238.909 40.4421 238.863 40.4511 238.818 40.451H237.609Z" fill="#7221BF"/>
<path d="M241.468 40.451C241.422 40.451 241.376 40.442 241.334 40.4244C241.292 40.4068 241.253 40.381 241.221 40.3485C241.188 40.316 241.162 40.2774 241.145 40.235C241.128 40.1926 241.119 40.1471 241.119 40.1012V30.4618C241.119 30.4159 241.128 30.3705 241.145 30.3281C241.163 30.2857 241.188 30.2472 241.221 30.2148C241.253 30.1823 241.292 30.1566 241.334 30.1391C241.376 30.1216 241.422 30.1127 241.468 30.1128H242.676C242.722 30.1126 242.768 30.1215 242.81 30.1389C242.853 30.1564 242.891 30.1821 242.924 30.2145C242.956 30.2469 242.982 30.2855 243 30.3279C243.017 30.3704 243.026 30.4159 243.026 30.4618V40.1012C243.026 40.1472 243.017 40.1927 243 40.2352C242.982 40.2777 242.956 40.3163 242.924 40.3488C242.891 40.3813 242.853 40.4071 242.81 40.4246C242.768 40.4421 242.722 40.4511 242.676 40.451H241.468Z" fill="#7221BF"/>
<path d="M248.224 40.5962C247.146 40.5962 246.292 40.2855 245.662 39.6641C245.031 39.0427 244.691 38.1593 244.642 37.0139C244.632 36.9177 244.628 36.7937 244.628 36.6429C244.626 36.5239 244.631 36.405 244.642 36.2865C244.68 35.5581 244.848 34.9269 245.145 34.3931C245.427 33.8729 245.855 33.4458 246.375 33.1634C246.899 32.8763 247.515 32.7331 248.224 32.7336C249.01 32.7336 249.671 32.8967 250.204 33.2229C250.734 33.5429 251.155 34.0149 251.413 34.5774C251.685 35.1547 251.821 35.822 251.821 36.5793V36.8851C251.821 36.9306 251.812 36.9758 251.795 37.0178C251.777 37.0599 251.751 37.0979 251.719 37.1297C251.684 37.1637 251.643 37.1902 251.598 37.2078C251.553 37.2253 251.505 37.2334 251.457 37.2316H246.622V37.3482C246.628 37.6709 246.695 37.9896 246.819 38.2876C246.932 38.5632 247.118 38.8024 247.358 38.9791C247.606 39.1571 247.905 39.2493 248.21 39.2417C248.627 39.2574 249.033 39.1113 249.345 38.834C249.435 38.7544 249.516 38.6665 249.59 38.5714C249.644 38.4864 249.716 38.4143 249.801 38.3602C249.877 38.3322 249.959 38.3197 250.04 38.3235H251.293C251.382 38.3205 251.468 38.3521 251.534 38.4116C251.564 38.4383 251.588 38.4721 251.602 38.5101C251.616 38.5482 251.621 38.5891 251.615 38.6293C251.605 38.7848 251.525 38.9751 251.375 39.2001C251.196 39.4516 250.977 39.672 250.727 39.8525C250.406 40.0862 250.05 40.2658 249.671 40.3842C249.203 40.5322 248.714 40.6037 248.224 40.5962ZM246.622 36.0093H249.841V35.9661C249.848 35.6264 249.783 35.2889 249.651 34.9761C249.533 34.7051 249.342 34.4727 249.098 34.3058C248.909 34.1761 248.694 34.0899 248.468 34.0536C248.242 34.0173 248.011 34.0318 247.792 34.096C247.572 34.1602 247.369 34.2724 247.199 34.4247C247.028 34.5769 246.893 34.7653 246.804 34.9761C246.677 35.2903 246.615 35.6272 246.622 35.9661V36.0093Z" fill="#7221BF"/>
<path d="M256.64 40.5961C256.004 40.6096 255.373 40.4751 254.798 40.203C254.282 39.9531 253.851 39.5558 253.561 39.0614C253.264 38.5613 253.101 37.957 253.072 37.2487C253.062 37.1035 253.057 36.9119 253.057 36.6738C253.057 36.4357 253.062 36.2392 253.072 36.0842C253.1 35.3775 253.263 34.7733 253.561 34.2715C253.851 33.7771 254.282 33.3798 254.798 33.1299C255.327 32.8673 255.941 32.7363 256.64 32.7368C257.261 32.7368 257.791 32.8241 258.228 32.9986C258.624 33.1481 258.989 33.3692 259.305 33.6509C259.564 33.8844 259.779 34.1632 259.938 34.4737C260.066 34.7151 260.143 34.9802 260.163 35.2525C260.171 35.2994 260.166 35.3474 260.149 35.3919C260.132 35.4364 260.105 35.4759 260.069 35.5069C259.999 35.5694 259.908 35.6035 259.814 35.6023H258.533C258.452 35.6075 258.371 35.5813 258.308 35.5289C258.244 35.466 258.192 35.392 258.155 35.3104C258.01 34.9222 257.817 34.6482 257.584 34.4876C257.312 34.3182 256.995 34.2347 256.674 34.2478C256.188 34.2478 255.802 34.4006 255.516 34.7061C255.23 35.0116 255.078 35.4947 255.058 36.1552C255.038 36.4947 255.038 36.835 255.058 37.1745C255.078 37.8437 255.23 38.3289 255.516 38.63C255.802 38.9312 256.188 39.0818 256.674 39.0818C257.055 39.0818 257.361 39.0003 257.592 38.8372C257.823 38.6741 258.013 38.4001 258.162 38.0152C258.2 37.9336 258.252 37.8595 258.316 37.7967C258.379 37.7443 258.459 37.718 258.541 37.7233H259.823C259.916 37.7221 260.007 37.7558 260.077 37.8179C260.112 37.8499 260.138 37.8901 260.153 37.9348C260.168 37.9795 260.172 38.0273 260.164 38.0739C260.148 38.2763 260.102 38.475 260.026 38.6635C259.93 38.9056 259.798 39.1316 259.633 39.3338C259.44 39.5745 259.211 39.7852 258.956 39.9592C258.654 40.163 258.323 40.3179 257.973 40.4183C257.54 40.5427 257.091 40.6026 256.64 40.5961Z" fill="#7221BF"/>
<path d="M265.1 40.4509C264.517 40.4509 264.028 40.349 263.632 40.1451C263.243 39.9496 262.93 39.6291 262.744 39.2351C262.55 38.8322 262.453 38.3296 262.453 37.7273V34.4223H261.303C261.257 34.4224 261.211 34.4134 261.169 34.3959C261.127 34.3784 261.088 34.3527 261.056 34.3203C261.023 34.2879 260.997 34.2494 260.98 34.207C260.962 34.1646 260.954 34.1191 260.954 34.0733V33.2285C260.953 33.1825 260.962 33.137 260.98 33.0945C260.997 33.0521 261.023 33.0134 261.055 32.9809C261.088 32.9484 261.126 32.9226 261.169 32.9051C261.211 32.8875 261.257 32.8785 261.303 32.8787H262.448V30.4617C262.446 30.3709 262.48 30.283 262.542 30.217C262.575 30.1828 262.614 30.156 262.658 30.1384C262.702 30.1209 262.749 30.1129 262.797 30.1151H263.976C264.022 30.115 264.068 30.124 264.11 30.1415C264.153 30.159 264.191 30.1847 264.224 30.2171C264.256 30.2495 264.282 30.288 264.299 30.3304C264.317 30.3728 264.326 30.4183 264.325 30.4641V32.8811H266.146C266.192 32.8809 266.237 32.8898 266.28 32.9073C266.322 32.9248 266.361 32.9506 266.393 32.9831C266.426 33.0156 266.452 33.0543 266.469 33.0968C266.487 33.1393 266.496 33.1849 266.495 33.2309V34.0757C266.495 34.1217 266.487 34.1672 266.469 34.2096C266.451 34.2521 266.426 34.2906 266.393 34.323C266.361 34.3555 266.322 34.3812 266.28 34.3986C266.237 34.4161 266.192 34.425 266.146 34.4247H264.325V37.5846C264.325 37.9825 264.396 38.2932 264.537 38.5166C264.678 38.7401 264.922 38.8515 265.271 38.851H266.28C266.326 38.8507 266.372 38.8595 266.414 38.877C266.457 38.8944 266.495 38.9202 266.528 38.9528C266.56 38.9853 266.586 39.024 266.603 39.0666C266.621 39.1092 266.63 39.1548 266.629 39.2008V40.1035C266.629 40.1494 266.62 40.195 266.603 40.2374C266.586 40.2799 266.56 40.3185 266.527 40.3511C266.495 40.3836 266.456 40.4094 266.414 40.4269C266.372 40.4445 266.326 40.4534 266.28 40.4533L265.1 40.4509Z" fill="#7221BF"/>
<path d="M268.216 31.627C268.169 31.6306 268.122 31.6239 268.078 31.6076C268.034 31.5913 267.994 31.5656 267.961 31.5324C267.928 31.4992 267.902 31.4592 267.886 31.4151C267.869 31.3711 267.863 31.324 267.866 31.2772V30.2285C267.865 30.1378 267.899 30.0502 267.961 29.9839C267.994 29.9496 268.033 29.9228 268.077 29.9052C268.121 29.8876 268.169 29.8797 268.216 29.882H269.542C269.59 29.8803 269.639 29.8885 269.684 29.906C269.729 29.9235 269.77 29.95 269.805 29.9839C269.837 30.0157 269.863 30.0538 269.88 30.0958C269.898 30.1378 269.907 30.183 269.906 30.2285V31.2772C269.909 31.3245 269.901 31.3718 269.883 31.4158C269.865 31.4598 269.839 31.4996 269.805 31.5324C269.732 31.5967 269.638 31.6306 269.542 31.627H268.216ZM268.274 40.451C268.228 40.4511 268.182 40.4421 268.14 40.4246C268.097 40.407 268.059 40.3812 268.026 40.3487C267.994 40.3162 267.968 40.2776 267.95 40.2351C267.933 40.1926 267.924 40.1471 267.924 40.1011V33.2286C267.924 33.1826 267.933 33.137 267.95 33.0944C267.968 33.0519 267.994 33.0132 268.026 32.9807C268.059 32.9482 268.097 32.9224 268.14 32.9049C268.182 32.8874 268.228 32.8785 268.274 32.8787H269.482C269.53 32.8765 269.577 32.8845 269.621 32.9021C269.665 32.9196 269.704 32.9465 269.737 32.9807C269.799 33.0468 269.833 33.1345 269.832 33.2253V40.0979C269.834 40.1888 269.799 40.2766 269.737 40.3425C269.704 40.3771 269.665 40.4042 269.621 40.4219C269.577 40.4397 269.53 40.4476 269.482 40.4453L268.274 40.451Z" fill="#7221BF"/>
<path d="M272.933 40.4509C272.887 40.451 272.842 40.442 272.799 40.4245C272.757 40.407 272.718 40.3812 272.686 40.3487C272.653 40.3162 272.627 40.2776 272.61 40.2351C272.592 40.1926 272.583 40.1471 272.584 40.1011V34.4223H271.404C271.358 34.4225 271.313 34.4137 271.27 34.3962C271.228 34.3788 271.189 34.3531 271.157 34.3206C271.124 34.2882 271.099 34.2496 271.081 34.2072C271.063 34.1647 271.054 34.1192 271.055 34.0733V33.2285C271.054 33.1825 271.063 33.1369 271.081 33.0944C271.098 33.0518 271.124 33.0132 271.157 32.9807C271.189 32.9481 271.228 32.9224 271.27 32.9049C271.313 32.8874 271.358 32.8785 271.404 32.8787H272.584V32.2842C272.584 31.702 272.69 31.2193 272.904 30.836C273.117 30.4522 273.45 30.148 273.851 29.9692C274.267 29.7751 274.796 29.6781 275.438 29.6781H276.428C276.475 29.6759 276.522 29.6839 276.566 29.7015C276.61 29.7191 276.65 29.7459 276.683 29.78C276.745 29.8463 276.779 29.934 276.777 30.0246V30.8686C276.779 30.9593 276.745 31.0469 276.683 31.1133C276.65 31.1474 276.61 31.1742 276.566 31.1917C276.522 31.2093 276.475 31.2173 276.428 31.2152H275.495C275.105 31.2152 274.838 31.3122 274.693 31.5063C274.548 31.7004 274.475 31.982 274.475 32.3511V32.8746H276.281C276.328 32.8724 276.375 32.8804 276.419 32.8979C276.463 32.9155 276.503 32.9423 276.535 32.9765C276.597 33.043 276.631 33.1305 276.63 33.2212V34.066C276.631 34.1567 276.597 34.2444 276.535 34.3106C276.503 34.345 276.463 34.372 276.419 34.3896C276.375 34.4072 276.328 34.415 276.281 34.4125H274.475V40.0913C274.475 40.1372 274.466 40.1828 274.448 40.2252C274.431 40.2677 274.405 40.3063 274.373 40.3389C274.34 40.3714 274.302 40.3972 274.259 40.4147C274.217 40.4323 274.171 40.4412 274.126 40.4411L272.933 40.4509Z" fill="#7221BF"/>
<path d="M277.505 40.4509C277.459 40.4509 277.413 40.4418 277.371 40.4242C277.329 40.4067 277.29 40.3809 277.258 40.3484C277.225 40.3159 277.199 40.2773 277.182 40.2349C277.165 40.1924 277.156 40.147 277.156 40.1011V38.6594C277.154 38.6111 277.162 38.5629 277.179 38.5179C277.197 38.4728 277.224 38.4319 277.258 38.3976C277.289 38.3649 277.327 38.3391 277.369 38.3216C277.412 38.304 277.457 38.2952 277.502 38.2957H278.959C279.004 38.2954 279.049 38.3043 279.091 38.3218C279.133 38.3393 279.171 38.3651 279.203 38.3976C279.237 38.432 279.264 38.473 279.281 38.518C279.299 38.563 279.307 38.6111 279.305 38.6594V40.1011C279.305 40.147 279.296 40.1926 279.279 40.2351C279.261 40.2776 279.235 40.3162 279.203 40.3487C279.17 40.3812 279.132 40.4069 279.089 40.4245C279.047 40.442 279.001 40.451 278.955 40.4509H277.505Z" fill="#7221BF"/>
<path d="M42.6877 43.8692C42.6256 43.8693 42.564 43.8572 42.5066 43.8334C42.4492 43.8097 42.397 43.7749 42.3531 43.7309C42.3091 43.687 42.2743 43.6348 42.2506 43.5774C42.2268 43.52 42.2147 43.4584 42.2148 43.3963V30.5733C42.2125 30.5079 42.2236 30.4427 42.2474 30.3817C42.2713 30.3207 42.3073 30.2652 42.3534 30.2187C42.3967 30.1739 42.4487 30.1386 42.5062 30.1149C42.5637 30.0912 42.6255 30.0796 42.6877 30.0808H44.2035C44.3873 30.0808 44.5232 30.1235 44.6112 30.2089C44.672 30.2666 44.7282 30.329 44.7792 30.3956L50.4511 39.2198V30.5733C50.4458 30.4429 50.4918 30.3156 50.5791 30.2187C50.6234 30.1723 50.6771 30.136 50.7366 30.1122C50.7961 30.0884 50.86 30.0777 50.924 30.0808H52.5785C52.6434 30.0784 52.708 30.0895 52.7685 30.1132C52.8289 30.1369 52.8838 30.1729 52.9297 30.2188C52.9757 30.2647 53.0116 30.3196 53.0354 30.3801C53.0591 30.4405 53.0701 30.5052 53.0677 30.5701V43.3751C53.07 43.4405 53.059 43.5056 53.0353 43.5666C53.0116 43.6276 52.9757 43.6831 52.9299 43.7298C52.8864 43.7744 52.8342 43.8096 52.7766 43.8333C52.7189 43.857 52.6571 43.8686 52.5948 43.8676H51.0586C50.8743 43.8676 50.743 43.8216 50.6647 43.7298C50.6128 43.6638 50.5531 43.6044 50.487 43.5528L44.8346 34.9276V43.3963C44.8358 43.4586 44.8242 43.5205 44.8005 43.5781C44.7768 43.6358 44.7415 43.6879 44.6968 43.7314C44.6502 43.7773 44.5947 43.8132 44.5337 43.8369C44.4727 43.8606 44.4075 43.8716 44.3421 43.8692H42.6877Z" fill="#7221BF"/>
<path d="M37.3429 42.4422C37.3476 42.661 37.3179 42.8792 37.2548 43.0888C37.2068 43.2466 37.132 43.395 37.0338 43.5275C36.9609 43.6266 36.8712 43.7121 36.7688 43.7803C36.703 43.8263 36.6273 43.8565 36.5478 43.8683C36.5276 43.8712 36.5069 43.869 36.4876 43.8619C36.4684 43.8548 36.4513 43.843 36.4378 43.8275C36.4114 43.7991 36.3966 43.7619 36.3962 43.7232V43.225C36.396 43.2098 36.3982 43.1946 36.4027 43.1801C36.412 43.1611 36.425 43.1442 36.441 43.1304L36.5862 42.9567C36.6396 42.8909 36.683 42.8175 36.715 42.739C36.757 42.6208 36.7747 42.4953 36.7671 42.37C36.7596 42.2448 36.7269 42.1224 36.671 42.01C36.644 41.9595 36.6035 41.9174 36.5539 41.8886C36.5044 41.8598 36.4478 41.8454 36.3905 41.847C36.3124 41.8435 36.236 41.8694 36.176 41.9195C36.1052 41.9954 36.0543 42.0875 36.0276 42.1878C35.9705 42.3688 35.9234 42.5528 35.8866 42.739C35.8436 42.9429 35.7734 43.1401 35.6778 43.3253C35.6062 43.4676 35.4971 43.5877 35.3623 43.6726C35.2222 43.7526 35.0626 43.7917 34.9014 43.7855C34.7403 43.7793 34.5841 43.728 34.4506 43.6376C34.2906 43.526 34.1634 43.3737 34.0821 43.1964C33.9782 42.9679 33.9286 42.7184 33.9369 42.4675C33.9322 42.2668 33.9598 42.0666 34.0185 41.8747C34.0663 41.7243 34.1378 41.5825 34.2305 41.4547C34.3013 41.3565 34.3875 41.2703 34.4857 41.1995C34.5508 41.1493 34.6277 41.1167 34.7091 41.1049C34.7293 41.1019 34.7498 41.1037 34.7691 41.1102C34.7884 41.1167 34.8059 41.1278 34.82 41.1424C34.8465 41.1694 34.8611 41.2058 34.8608 41.2436V41.7108C34.8612 41.7302 34.857 41.7495 34.8486 41.767C34.8396 41.7849 34.829 41.8018 34.8168 41.8176C34.7752 41.8641 34.7303 41.9146 34.6847 41.9693C34.6347 42.0296 34.5932 42.0966 34.5615 42.1682C34.522 42.2651 34.5036 42.3694 34.5077 42.474C34.4989 42.6044 34.5358 42.7339 34.6121 42.8401C34.643 42.88 34.6827 42.9121 34.7281 42.9341C34.7735 42.956 34.8234 42.9671 34.8738 42.9665C34.9408 42.9676 35.0062 42.9464 35.0597 42.9062C35.1297 42.8389 35.1808 42.7546 35.2081 42.6615C35.2703 42.4803 35.3188 42.2947 35.3533 42.1062C35.3878 41.8708 35.4637 41.6433 35.5775 41.4344C35.6567 41.288 35.7743 41.166 35.9175 41.0813C36.0487 41.0113 36.1953 40.9754 36.344 40.9769C36.5274 40.9738 36.7068 41.0311 36.8544 41.14C37.0171 41.2663 37.1409 41.4358 37.2116 41.6292C37.3061 41.8896 37.3506 42.1654 37.3429 42.4422Z" fill="#0F681D"/>
<path d="M37.3428 39.3794C37.3457 39.5843 37.3016 39.7871 37.214 39.9722C37.1356 40.1393 37.0161 40.2838 36.8667 40.3922C36.681 40.521 36.4522 40.572 36.2294 40.5342C36.0065 40.4964 35.8074 40.3728 35.6745 40.19C35.4829 39.9086 35.3626 39.5848 35.3239 39.2465L35.1975 38.3822H35.0654C34.9176 38.3732 34.7719 38.4207 34.6577 38.5151C34.561 38.6032 34.5126 38.7546 34.5126 38.9693C34.5068 39.0984 34.5386 39.2264 34.6039 39.3379C34.6631 39.4308 34.7481 39.5045 34.8485 39.5499C34.8739 39.5645 34.8949 39.5857 34.9092 39.6112C34.9236 39.6368 34.9308 39.6657 34.9301 39.695V40.1932C34.9315 40.2123 34.9287 40.2315 34.9221 40.2495C34.9155 40.2675 34.9052 40.2839 34.8918 40.2976C34.8637 40.3215 34.8275 40.3338 34.7907 40.3318C34.7044 40.3216 34.6212 40.2939 34.546 40.2503C34.4373 40.1899 34.3416 40.1084 34.2647 40.0106C34.1647 39.8835 34.0869 39.7404 34.0348 39.5874C33.9669 39.3863 33.9349 39.1749 33.9402 38.9628C33.9345 38.7349 33.9676 38.5077 34.038 38.2909C34.0915 38.127 34.1809 37.9771 34.2998 37.8522C34.4078 37.7436 34.5396 37.6616 34.6847 37.6125C34.8351 37.5613 34.993 37.5357 35.1519 37.5367H37.1325C37.1526 37.5362 37.1725 37.54 37.191 37.5477C37.2096 37.5554 37.2263 37.5669 37.2401 37.5815C37.2543 37.5954 37.2656 37.612 37.2731 37.6304C37.2807 37.6487 37.2845 37.6685 37.2841 37.6883V38.1996C37.2852 38.22 37.2818 38.2404 37.2742 38.2594C37.2666 38.2784 37.255 38.2956 37.2401 38.3096C37.2112 38.3372 37.1724 38.3522 37.1325 38.3512H36.8879C36.9741 38.4119 37.0499 38.4863 37.1121 38.5714C37.1865 38.6741 37.2441 38.7881 37.2825 38.909C37.3275 39.0616 37.3478 39.2204 37.3428 39.3794ZM36.7435 39.165C36.7453 39.0255 36.7129 38.8878 36.6489 38.7638C36.5831 38.6409 36.4804 38.5417 36.3554 38.4801C36.1991 38.4053 36.0271 38.3695 35.8539 38.3757H35.7235L35.8238 39.0068C35.8439 39.203 35.9065 39.3925 36.0072 39.5621C36.0387 39.6165 36.0837 39.6619 36.1378 39.6939C36.1919 39.7259 36.2534 39.7434 36.3163 39.7447C36.4025 39.7479 36.4868 39.7189 36.5527 39.6632C36.6192 39.6045 36.6692 39.5294 36.6979 39.4455C36.7298 39.3544 36.7452 39.2583 36.7435 39.1617V39.165Z" fill="#0F681D"/>
<path d="M37.28 36.5745C37.2802 36.5945 37.2764 36.6143 37.2689 36.6328C37.2613 36.6513 37.2502 36.6681 37.2361 36.6823C37.2219 36.6964 37.2051 36.7076 37.1866 36.7151C37.1681 36.7226 37.1483 36.7264 37.1283 36.7262H34.1505C34.1305 36.7264 34.1107 36.7226 34.0922 36.7151C34.0737 36.7076 34.0569 36.6964 34.0428 36.6823C34.0286 36.6681 34.0175 36.6513 34.0099 36.6328C34.0024 36.6143 33.9986 36.5945 33.9988 36.5745V36.0576C33.9986 36.0376 34.0024 36.0178 34.0099 35.9993C34.0175 35.9808 34.0286 35.964 34.0428 35.9498C34.0569 35.9357 34.0737 35.9245 34.0922 35.917C34.1107 35.9095 34.1305 35.9057 34.1505 35.9059H34.409C34.2531 35.7796 34.1291 35.6185 34.047 35.4355C33.9648 35.2525 33.9268 35.0528 33.936 34.8524C33.9302 34.6177 33.9904 34.386 34.1097 34.1838C34.2265 33.9929 34.3965 33.8404 34.599 33.7451C34.8363 33.6364 35.0955 33.5834 35.3565 33.5902H37.1291C37.1491 33.59 37.1689 33.5937 37.1874 33.6013C37.2059 33.6088 37.2227 33.62 37.2369 33.6341C37.251 33.6482 37.2622 33.665 37.2697 33.6835C37.2772 33.702 37.281 33.7219 37.2808 33.7418V34.2971C37.2811 34.317 37.2774 34.3367 37.2698 34.3551C37.2622 34.3734 37.251 34.3901 37.2368 34.4039C37.2229 34.4185 37.2062 34.43 37.1877 34.4377C37.1692 34.4454 37.1492 34.4492 37.1291 34.4488H35.3972C35.1915 34.4374 34.9887 34.5012 34.8265 34.6282C34.7553 34.694 34.6998 34.7748 34.6638 34.8648C34.6278 34.9548 34.6124 35.0517 34.6185 35.1484C34.614 35.2455 34.6302 35.3425 34.6661 35.4329C34.7019 35.5233 34.7566 35.605 34.8265 35.6727C34.9841 35.8095 35.1888 35.8797 35.3972 35.8684H37.1324C37.1523 35.8682 37.1721 35.8719 37.1905 35.8794C37.209 35.8869 37.2257 35.898 37.2398 35.912C37.254 35.9261 37.2651 35.9428 37.2727 35.9612C37.2803 35.9796 37.2842 35.9993 37.2841 36.0192L37.28 36.5745Z" fill="#0F681D"/>
<path d="M37.3427 31.5461C37.3475 31.7649 37.3178 31.9831 37.2546 32.1927C37.2066 32.3505 37.1319 32.4989 37.0337 32.6314C36.9608 32.7305 36.8711 32.816 36.7687 32.8841C36.7028 32.9302 36.6272 32.9604 36.5477 32.9722C36.5274 32.9751 36.5067 32.9729 36.4875 32.9658C36.4683 32.9587 36.4511 32.9469 36.4376 32.9314C36.4112 32.903 36.3964 32.8658 36.396 32.8271V32.3289C36.3958 32.3139 36.398 32.2991 36.4025 32.2848C36.4115 32.2654 36.4246 32.2482 36.4409 32.2343L36.586 32.0606C36.6395 31.9948 36.6829 31.9214 36.7148 31.8429C36.7568 31.7246 36.7745 31.5992 36.767 31.4739C36.7594 31.3487 36.7267 31.2262 36.6708 31.1139C36.6444 31.0626 36.6041 31.0197 36.5545 30.9901C36.5049 30.9606 36.448 30.9456 36.3903 30.9468C36.3123 30.9434 36.2358 30.9692 36.1759 31.0193C36.1051 31.0952 36.0541 31.1873 36.0275 31.2876C35.97 31.4699 35.9226 31.6553 35.8856 31.8429C35.8426 32.0468 35.7724 32.244 35.6768 32.4292C35.6052 32.5715 35.4961 32.6916 35.3613 32.7765C35.2212 32.8563 35.0617 32.8954 34.9006 32.8893C34.7395 32.8833 34.5833 32.8323 34.4497 32.7423C34.2898 32.6302 34.1626 32.4777 34.0811 32.3003C33.9773 32.0717 33.9276 31.8223 33.936 31.5714C33.9312 31.3707 33.9588 31.1705 34.0175 30.9786C34.0653 30.8282 34.1369 30.6864 34.2295 30.5586C34.3003 30.4604 34.3865 30.3742 34.4847 30.3034C34.5498 30.2532 34.6268 30.2206 34.7081 30.2088C34.7295 30.2046 34.7516 30.2059 34.7723 30.2126C34.793 30.2193 34.8116 30.2312 34.8264 30.2472C34.8528 30.2741 34.8675 30.3105 34.8672 30.3483V30.8179C34.8675 30.8374 34.8634 30.8567 34.8549 30.8742C34.846 30.892 34.8353 30.909 34.8231 30.9248C34.7815 30.9712 34.7367 31.0218 34.691 31.0764C34.641 31.1368 34.5996 31.2037 34.5679 31.2754C34.5284 31.3723 34.51 31.4765 34.5141 31.5811C34.5053 31.7116 34.5422 31.8411 34.6185 31.9473C34.6493 31.9871 34.6891 32.0193 34.7345 32.0412C34.7799 32.0631 34.8298 32.0742 34.8802 32.0736C34.9472 32.0748 35.0126 32.0535 35.0661 32.0133C35.136 31.9461 35.1872 31.8618 35.2145 31.7687C35.2766 31.5875 35.3251 31.4018 35.3597 31.2134C35.3942 30.978 35.4701 30.7505 35.5839 30.5415C35.6631 30.3952 35.7806 30.2731 35.9239 30.1884C36.055 30.1184 36.2017 30.0825 36.3504 30.0841C36.5337 30.0814 36.713 30.1386 36.8608 30.2472C37.0235 30.3734 37.1473 30.543 37.2179 30.7364C37.3098 30.9961 37.3521 31.2708 37.3427 31.5461Z" fill="#0F681D"/>
<path d="M17.1046 28.4859C18.3066 28.4859 19.2809 27.5115 19.2809 26.3096C19.2809 25.1077 18.3066 24.1333 17.1046 24.1333C15.9027 24.1333 14.9283 25.1077 14.9283 26.3096C14.9283 27.5115 15.9027 28.4859 17.1046 28.4859Z" fill="#FCA100"/>
<path d="M26.8877 28.4859C28.0897 28.4859 29.064 27.5115 29.064 26.3096C29.064 25.1077 28.0897 24.1333 26.8877 24.1333C25.6858 24.1333 24.7114 25.1077 24.7114 26.3096C24.7114 27.5115 25.6858 28.4859 26.8877 28.4859Z" fill="#FCA100"/>
<path d="M16.03 43.869C15.9646 43.8714 15.8994 43.8605 15.8384 43.8368C15.7774 43.8131 15.7219 43.7772 15.6753 43.7312C15.6305 43.6878 15.5951 43.6357 15.5713 43.578C15.5474 43.5204 15.5357 43.4585 15.5367 43.3961V30.5732C15.5344 30.508 15.5456 30.443 15.5696 30.3823C15.5936 30.3216 15.6299 30.2666 15.6763 30.2206C15.7226 30.1747 15.778 30.1388 15.8388 30.1153C15.8997 30.0918 15.9648 30.0811 16.03 30.0839H17.5849C17.6604 30.078 17.7363 30.0881 17.8076 30.1137C17.8789 30.1393 17.9439 30.1797 17.9984 30.2323C18.067 30.3 18.127 30.3758 18.1769 30.4582L21.9775 37.5481L25.818 30.4582C25.867 30.3756 25.9264 30.2997 25.995 30.2323C26.0495 30.1798 26.1145 30.1395 26.1858 30.1139C26.257 30.0883 26.3329 30.0781 26.4084 30.0839H27.9454C28.0103 30.0815 28.075 30.0926 28.1354 30.1163C28.1958 30.14 28.2507 30.176 28.2967 30.2219C28.3426 30.2678 28.3785 30.3227 28.4023 30.3832C28.426 30.4436 28.437 30.5083 28.4346 30.5732V43.3961C28.4356 43.4584 28.4239 43.5202 28.4002 43.5778C28.3765 43.6355 28.3413 43.6876 28.2968 43.7312C28.2502 43.7769 28.1948 43.8127 28.134 43.8364C28.0732 43.8601 28.0082 43.8712 27.9429 43.869H26.2877C26.2238 43.8719 26.1601 43.861 26.1008 43.8373C26.0414 43.8135 25.9878 43.7774 25.9436 43.7312C25.8583 43.6408 25.8123 43.5203 25.8156 43.3961V34.8679L23.0587 40.1272C22.9933 40.2443 22.9061 40.3478 22.8019 40.4321C22.6834 40.5221 22.537 40.5674 22.3885 40.5602H21.5804C21.4285 40.5704 21.278 40.5248 21.1572 40.4321C21.0583 40.3458 20.9754 40.2425 20.9126 40.1272L18.1549 34.8679V43.3961C18.1552 43.4583 18.1432 43.5199 18.1196 43.5775C18.0959 43.635 18.0611 43.6873 18.0171 43.7312C17.9731 43.7752 17.9209 43.81 17.8633 43.8337C17.8058 43.8574 17.7442 43.8694 17.682 43.869H16.03Z" fill="#7221BF"/>
<path d="M33.998 68C15.2512 68 0 52.7521 0 33.998C0 15.2438 15.2479 0 34.002 0C52.7562 0 68.0041 15.2479 68.0041 34.002C68.0041 52.7562 52.7439 68 33.998 68ZM33.998 3.61547C17.2424 3.61465 3.61058 17.2456 3.61058 33.998C3.61058 50.7503 17.2424 64.3886 33.998 64.3886C50.7535 64.3886 64.3845 50.7568 64.3845 33.998C64.3845 17.2391 50.7535 3.61465 33.998 3.61465V3.61547Z" fill="#7221BF"/>
</svg>
