<svg width="25" height="25" viewBox="0 0 25 25" fill="none" xmlns="http://www.w3.org/2000/svg">
<path fill-rule="evenodd" clip-rule="evenodd" d="M12.5 9.375C10.7741 9.375 9.375 10.7741 9.375 12.5C9.375 14.2259 10.7741 15.625 12.5 15.625C14.2259 15.625 15.625 14.2259 15.625 12.5C15.625 10.7741 14.2259 9.375 12.5 9.375ZM7.8125 12.5C7.8125 9.91117 9.91117 7.8125 12.5 7.8125C15.0888 7.8125 17.1875 9.91117 17.1875 12.5C17.1875 15.0888 15.0888 17.1875 12.5 17.1875C9.91117 17.1875 7.8125 15.0888 7.8125 12.5Z" fill="white"/>
<path fill-rule="evenodd" clip-rule="evenodd" d="M8.20312 4.29688C6.04576 4.29688 4.29688 6.04576 4.29688 8.20312V16.7969C4.29688 18.9542 6.04576 20.7031 8.20312 20.7031H16.7969C18.9542 20.7031 20.7031 18.9542 20.7031 16.7969V8.20312C20.7031 6.04576 18.9542 4.29688 16.7969 4.29688H8.20312ZM2.73438 8.20312C2.73438 5.18282 5.18282 2.73438 8.20312 2.73438H16.7969C19.8172 2.73438 22.2656 5.18282 22.2656 8.20312V16.7969C22.2656 19.8172 19.8172 22.2656 16.7969 22.2656H8.20312C5.18282 22.2656 2.73438 19.8172 2.73438 16.7969V8.20312Z" fill="white"/>
<path d="M17.5781 8.59375C18.2253 8.59375 18.75 8.06908 18.75 7.42188C18.75 6.77467 18.2253 6.25 17.5781 6.25C16.9309 6.25 16.4062 6.77467 16.4062 7.42188C16.4062 8.06908 16.9309 8.59375 17.5781 8.59375Z" fill="white"/>
</svg>
