<svg width="25" height="25" viewBox="0 0 25 25" fill="none" xmlns="http://www.w3.org/2000/svg">
<path fill-rule="evenodd" clip-rule="evenodd" d="M8.25952 8.62106L5.22734 9.37707C4.22211 9.6277 3.35761 10.2674 2.82403 11.1554C2.29045 12.0434 2.13149 13.1071 2.38213 14.1123C2.63276 15.1175 3.27245 15.982 4.16048 16.5156C4.82298 16.9137 5.58321 17.1032 6.34401 17.0698C6.35658 17.1564 6.38404 17.2423 6.42746 17.3241L8.93037 22.0343L8.93131 22.036C9.04932 22.2567 9.2186 22.4458 9.42492 22.5875C9.63125 22.7291 9.86857 22.8191 10.1169 22.8499C10.3653 22.8807 10.6174 22.8514 10.8521 22.7644C11.0862 22.6777 11.2962 22.5361 11.4644 22.3514L11.4654 22.3503L12.3316 21.4027C12.5082 21.2123 12.6342 20.9807 12.6981 20.729C12.7621 20.4771 12.7618 20.2131 12.6973 19.9614L11.6783 15.8745C13.3338 15.6425 17.4559 15.3987 22.0741 17.6467C22.2073 17.7106 22.3559 17.7353 22.5026 17.7182C22.6494 17.701 22.7882 17.6425 22.9031 17.5496C23.0179 17.4567 23.1041 17.3331 23.1516 17.1932C23.199 17.0533 23.2059 16.9029 23.1713 16.7592L19.4952 2.01528C19.4583 1.87222 19.3816 1.74255 19.274 1.64131C19.1664 1.54007 19.0323 1.47142 18.8873 1.44331C18.7423 1.4152 18.5922 1.42879 18.4546 1.4825C18.317 1.53621 18.1974 1.62784 18.1098 1.74676C15.0865 5.90122 11.3309 7.62087 9.76126 8.19264C9.63665 7.80419 9.23014 7.57386 8.82856 7.67398C8.4099 7.77837 8.15514 8.20237 8.25952 8.62103L8.25952 8.62106ZM10.1428 9.7156C10.2333 9.68382 10.3311 9.64841 10.4356 9.60913C11.0444 9.38029 11.8851 9.01875 12.8533 8.47728C14.4895 7.56225 16.5004 6.12712 18.3656 3.94348L21.2687 15.587C18.5966 14.5347 16.1473 14.2116 14.2731 14.1718C13.164 14.1482 12.252 14.2237 11.607 14.3075C11.4963 14.3219 11.3933 14.3365 11.2985 14.3509L10.1428 9.7156ZM9.77154 14.6854L8.63753 10.1371L5.60534 10.8932C5.0022 11.0435 4.4835 11.4273 4.16336 11.9602C3.84321 12.493 3.74783 13.1312 3.89821 13.7343C4.04859 14.3374 4.43241 14.8561 4.96522 15.1763C5.49804 15.4964 6.13621 15.5918 6.73935 15.4414L9.77154 14.6854ZM10.1495 16.2015L7.89857 16.7627L10.3092 21.2993L10.3107 21.2977L11.1805 20.3461L11.1824 20.344L10.1495 16.2015Z" fill="black"/>
</svg>
