<svg width="25" height="25" viewBox="0 0 25 25" fill="none" xmlns="http://www.w3.org/2000/svg">
<path fill-rule="evenodd" clip-rule="evenodd" d="M16.4768 4.35574C15.259 3.52046 13.8092 3.08978 12.333 3.12477C8.52313 3.21256 5.45115 6.38633 5.46873 10.2015L5.46874 10.2025C5.47221 11.2621 5.71679 12.307 6.18395 13.2581C6.65111 14.2092 7.3286 15.0414 8.16509 15.6918L7.68553 16.3086L8.169 15.6949C8.54202 15.9888 8.84411 16.3628 9.05287 16.7893C9.26164 17.2158 9.37173 17.6839 9.37497 18.1587L9.37501 18.1641L9.37499 18.75H15.625L15.625 18.1625C15.6259 17.6831 15.7365 17.2103 15.9482 16.7801C16.1594 16.351 16.4657 15.9756 16.8438 15.6827C18.0042 14.7709 18.8483 13.5171 19.2565 12.0989C19.665 10.6798 19.6163 9.16817 19.1173 7.77833C18.6184 6.38849 17.6945 5.19102 16.4768 4.35574ZM7.2038 16.9236C6.18113 16.1279 5.3528 15.11 4.7815 13.947C4.2098 12.7831 3.91049 11.5043 3.90625 10.2076L4.68749 10.2051L3.90625 10.2087L3.90625 10.2076C3.88533 5.54673 7.62995 1.67033 12.2962 1.56271C14.1004 1.52005 15.8724 2.04643 17.3606 3.06723C18.849 4.08812 19.9781 5.5517 20.5879 7.25039C21.1978 8.94909 21.2573 10.7967 20.7581 12.5311C20.2588 14.2655 19.2262 15.7987 17.8067 16.9133L17.802 16.917C17.6112 17.0645 17.4566 17.2536 17.3501 17.4701C17.2437 17.6863 17.1881 17.9239 17.1875 18.1649V18.75C17.1875 19.1644 17.0229 19.5618 16.7298 19.8548C16.4368 20.1479 16.0394 20.3125 15.625 20.3125H9.37499C8.96059 20.3125 8.56316 20.1479 8.27014 19.8548C7.97711 19.5618 7.81249 19.1644 7.81249 18.75V18.167C7.81049 17.9275 7.75479 17.6914 7.64947 17.4762C7.54412 17.261 7.39182 17.0722 7.2038 16.9236ZM7.8125 22.6562C7.8125 22.2248 8.16228 21.875 8.59375 21.875H16.4063C16.8377 21.875 17.1875 22.2248 17.1875 22.6562C17.1875 23.0877 16.8377 23.4375 16.4063 23.4375H8.59375C8.16228 23.4375 7.8125 23.0877 7.8125 22.6562ZM13.4215 4.77657C12.9961 4.70446 12.5928 4.99086 12.5207 5.41626C12.4486 5.84166 12.735 6.24498 13.1604 6.31709C13.9558 6.45193 14.6897 6.83031 15.2609 7.40003C15.832 7.96974 16.2123 8.7027 16.3492 9.49773C16.4224 9.92295 16.8264 10.2083 17.2516 10.1351C17.6768 10.0619 17.9622 9.65787 17.889 9.23265C17.6973 8.11881 17.1645 7.09193 16.3643 6.29376C15.5641 5.49559 14.5359 4.96547 13.4215 4.77657Z" fill="black"/>
</svg>
