<svg width="25" height="25" viewBox="0 0 25 25" fill="none" xmlns="http://www.w3.org/2000/svg">
<path fill-rule="evenodd" clip-rule="evenodd" d="M12.5 3.90625C7.7538 3.90625 3.90625 7.7538 3.90625 12.5C3.90625 17.2462 7.7538 21.0938 12.5 21.0938C17.2462 21.0938 21.0938 17.2462 21.0938 12.5C21.0938 7.7538 17.2462 3.90625 12.5 3.90625ZM2.34375 12.5C2.34375 6.89086 6.89086 2.34375 12.5 2.34375C18.1091 2.34375 22.6562 6.89086 22.6562 12.5C22.6562 18.1091 18.1091 22.6562 12.5 22.6562C6.89086 22.6562 2.34375 18.1091 2.34375 12.5ZM10.9375 11.7188C10.9375 11.2873 11.2873 10.9375 11.7188 10.9375H12.5C12.9315 10.9375 13.2812 11.2873 13.2812 11.7188V16.4062C13.7127 16.4062 14.0625 16.756 14.0625 17.1875C14.0625 17.619 13.7127 17.9688 13.2812 17.9688H12.5C12.0685 17.9688 11.7188 17.619 11.7188 17.1875V12.5C11.2873 12.5 10.9375 12.1502 10.9375 11.7188ZM13.4766 8.20312C13.4766 8.85033 12.9519 9.375 12.3047 9.375C11.6575 9.375 11.1328 8.85033 11.1328 8.20312C11.1328 7.55592 11.6575 7.03125 12.3047 7.03125C12.9519 7.03125 13.4766 7.55592 13.4766 8.20312Z" fill="black"/>
</svg>
