<svg width="32" height="32" viewBox="0 0 32 32" fill="none" xmlns="http://www.w3.org/2000/svg">
<path d="M12.7685 16.1996C13.6119 17.9646 15.0373 19.3858 16.8053 20.2244L16.979 20.1121L19.6771 18.3142C19.9287 18.1407 20.2211 18.0354 20.5256 18.0085C20.8301 17.9817 21.1363 18.0342 21.4145 18.1609L26.7288 20.4389C27.1371 20.5971 27.4752 20.8965 27.6815 21.2826C27.8878 21.6688 27.9486 22.1161 27.853 22.5433C27.6453 23.8629 27.0319 25.0852 26.098 26.0407C25.1641 26.9961 23.9558 27.6375 22.6408 27.8757C21.8032 27.9881 20.9542 27.9881 20.1165 27.8757C18.2049 27.7196 16.3362 27.225 14.5978 26.4149C11.889 25.1743 9.57075 23.2174 7.8936 20.7556C6.56507 18.8345 5.66579 16.65 5.25688 14.3506C5.03613 13.2345 4.95716 12.095 5.02183 10.9592C5.0852 9.96858 5.38212 9.00703 5.88834 8.15307C6.39455 7.2991 7.09569 6.57695 7.93448 6.04561C8.72167 5.51139 9.61959 5.16216 10.561 5.02408C10.9518 4.95987 11.3528 5.02489 11.7033 5.20926C12.0538 5.39363 12.3345 5.68728 12.5028 6.04561C13.2931 7.85712 14.0698 9.67204 14.8329 11.4904C14.9733 11.7685 15.0334 12.0803 15.0063 12.3907C14.9792 12.701 14.8661 12.9977 14.6796 13.2474C14.1073 14.1463 13.5145 15.0351 12.932 15.9238L12.7685 16.1996ZM20.6889 19.8465L20.4742 19.9895L17.8375 21.7465C17.5733 21.9368 17.2614 22.05 16.9366 22.0734C16.6117 22.0969 16.2868 22.0297 15.9979 21.8793C13.9174 20.8872 12.2272 19.2301 11.1946 17.1701C11.0075 16.8456 10.9195 16.4735 10.9413 16.0996C10.9631 15.7257 11.0938 15.3663 11.3173 15.0657C11.7567 14.4221 12.1757 13.7684 12.605 13.1146C12.7787 12.8388 12.9626 12.5732 13.1364 12.3076L11.9815 9.61075C11.5932 8.72202 11.2151 7.83329 10.8369 6.93434H10.6427C9.60428 7.11042 8.65859 7.63978 7.96578 8.43281C7.27297 9.22583 6.87561 10.2338 6.84096 11.2861C6.83399 12.0655 6.88866 12.8443 7.00448 13.6151C7.47637 16.9924 9.14001 20.09 11.6954 22.3492C14.3756 24.8055 17.8909 26.1496 21.5269 26.1084C22.6113 26.1242 23.6633 25.7385 24.4804 25.0256C25.3509 24.2904 25.9127 23.2548 26.0543 22.1245L20.6889 19.8465Z" fill="white"/>
</svg>
