<svg width="32" height="32" viewBox="0 0 32 32" fill="none" xmlns="http://www.w3.org/2000/svg">
<path fill-rule="evenodd" clip-rule="evenodd" d="M13.5 6C9.91015 6 7 8.91015 7 12.5C7 16.0511 9.84762 18.9371 13.3839 18.999C13.4226 18.9987 13.4613 18.9985 13.5 18.9985C13.5387 18.9985 13.5774 18.9987 13.6161 18.999C17.1524 18.9371 20 16.0511 20 12.5C20 8.91015 17.0899 6 13.5 6ZM5 12.5C5 15.5316 6.58704 18.1924 8.97561 19.6971C8.3574 19.8927 7.75101 20.1286 7.16043 20.4041C5.17521 21.3298 3.41685 22.6792 2.00892 24.3572C1.65393 24.7803 1.70914 25.411 2.13223 25.766C2.55532 26.121 3.18607 26.0658 3.54106 25.6427C4.76127 24.1884 6.28518 23.019 8.0057 22.2167C9.68891 21.4317 11.5203 21.0167 13.3765 20.9991C13.4176 20.9997 13.4588 21 13.5 21C13.5412 21 13.5824 20.9997 13.6234 20.9991C15.4796 21.0168 17.3111 21.4317 18.9943 22.2167C20.7148 23.019 22.2387 24.1884 23.4589 25.6427C23.8139 26.0658 24.4447 26.121 24.8677 25.766C25.2908 25.411 25.346 24.7803 24.9911 24.3572C23.5831 22.6792 21.8248 21.3298 19.8395 20.4041C19.249 20.1286 18.6426 19.8927 18.0244 19.6971C20.413 18.1924 22 15.5316 22 12.5C22 7.80558 18.1944 4 13.5 4C8.80558 4 5 7.80558 5 12.5ZM28 13C28.5523 13 29 13.4477 29 14V16H31C31.5523 16 32 16.4477 32 17C32 17.5523 31.5523 18 31 18H29V20C29 20.5523 28.5523 21 28 21C27.4477 21 27 20.5523 27 20V18H25C24.4477 18 24 17.5523 24 17C24 16.4477 24.4477 16 25 16H27V14C27 13.4477 27.4477 13 28 13Z" fill="white"/>
</svg>
