<svg width="58" height="57" viewBox="0 0 58 57" fill="none" xmlns="http://www.w3.org/2000/svg">
<path d="M36.2878 36.543C36.2359 36.5432 36.1845 36.5331 36.1366 36.5133C36.0886 36.4936 36.045 36.4645 36.0083 36.4278C35.9717 36.3911 35.9426 36.3476 35.9228 36.2996C35.9031 36.2516 35.893 36.2002 35.8932 36.1484V25.4566C35.8913 25.402 35.9005 25.3476 35.9204 25.2967C35.9402 25.2458 35.9703 25.1995 36.0087 25.1607C36.045 25.1236 36.0884 25.0943 36.1364 25.0746C36.1844 25.0549 36.2359 25.0451 36.2878 25.0459H37.5527C37.6132 25.0407 37.674 25.0474 37.7318 25.0657C37.7896 25.084 37.8433 25.1135 37.8896 25.1526C37.94 25.2009 37.9867 25.2529 38.0292 25.3083L42.7601 32.6685V25.4566C42.756 25.3479 42.7942 25.2417 42.8668 25.1607C42.9039 25.1222 42.9488 25.0921 42.9984 25.0724C43.0481 25.0526 43.1014 25.0436 43.1547 25.0459H44.5344C44.589 25.0434 44.6435 25.0524 44.6945 25.0721C44.7454 25.0919 44.7917 25.122 44.8304 25.1607C44.869 25.1993 44.8992 25.2456 44.9189 25.2966C44.9387 25.3475 44.9476 25.402 44.9451 25.4566V36.1323C44.9465 36.1862 44.9371 36.2398 44.9173 36.29C44.8976 36.3403 44.8681 36.386 44.8304 36.4246C44.794 36.4618 44.7504 36.4912 44.7023 36.5109C44.6542 36.5307 44.6025 36.5403 44.5505 36.5393H43.2695C43.116 36.5393 43.0064 36.5011 42.9406 36.4246C42.8979 36.3702 42.8489 36.3211 42.7945 36.2784L38.0796 29.0826V36.1462C38.0806 36.1982 38.071 36.2498 38.0512 36.298C38.0315 36.3461 38.0021 36.3897 37.9649 36.426C37.9264 36.4639 37.8807 36.4935 37.8305 36.5132C37.7802 36.533 37.7265 36.5423 37.6726 36.5408L36.2878 36.543Z" fill="#7221BF"/>
<path d="M32.4126 34.7102C32.4181 34.9667 32.383 35.2225 32.3088 35.468C32.2519 35.6533 32.1642 35.8278 32.0494 35.984C31.9632 36.1003 31.8577 36.2009 31.7373 36.2814C31.6598 36.3354 31.5707 36.3707 31.4772 36.3844C31.4533 36.3876 31.429 36.3849 31.4065 36.3765C31.3839 36.3681 31.3638 36.3543 31.3479 36.3362C31.317 36.303 31.2998 36.2594 31.2996 36.2141V35.6295C31.2992 35.6117 31.3016 35.5939 31.3069 35.5769C31.3176 35.5544 31.3328 35.5343 31.3515 35.5177C31.4056 35.4534 31.4626 35.3855 31.5218 35.3138C31.5848 35.2365 31.6363 35.1503 31.6745 35.0581C31.7197 34.9397 31.741 34.8135 31.7373 34.6869C31.7429 34.5175 31.703 34.3497 31.6219 34.2009C31.5907 34.1407 31.5433 34.0903 31.4851 34.0554C31.4269 34.0206 31.3602 34.0026 31.2923 34.0036C31.2003 33.9992 31.11 34.0297 31.0395 34.0891C30.9565 34.1786 30.8966 34.287 30.8648 34.4048C30.7971 34.6193 30.7415 34.8374 30.6982 35.0581C30.6473 35.2978 30.5649 35.5297 30.4534 35.7479C30.3689 35.9152 30.2406 36.0563 30.0822 36.1564C29.9173 36.2502 29.7295 36.2961 29.54 36.2889C29.3504 36.2816 29.1667 36.2216 29.0094 36.1155C28.8211 35.984 28.6712 35.8047 28.5754 35.5959C28.4537 35.3265 28.3954 35.0328 28.4051 34.7373C28.4003 34.5008 28.4341 34.265 28.5052 34.0394C28.5611 33.8627 28.6449 33.6962 28.7537 33.5461C28.8372 33.4305 28.9385 33.3288 29.054 33.2451C29.131 33.1861 29.2218 33.1479 29.3178 33.134C29.3415 33.1302 29.3657 33.1323 29.3884 33.14C29.4111 33.1478 29.4315 33.161 29.4479 33.1786C29.479 33.2104 29.4963 33.2532 29.4961 33.2977V33.8465C29.4966 33.8696 29.4913 33.8924 29.4808 33.913C29.4707 33.9343 29.4582 33.9544 29.4435 33.9729C29.3945 34.027 29.3427 34.0869 29.2878 34.1512C29.2289 34.222 29.1797 34.3004 29.1417 34.3843C29.0957 34.4987 29.0742 34.6214 29.0788 34.7446C29.0685 34.8979 29.1117 35.05 29.2009 35.175C29.2375 35.2216 29.2844 35.259 29.3379 35.2843C29.3914 35.3097 29.4501 35.3223 29.5093 35.3212C29.5885 35.322 29.6656 35.2962 29.7285 35.2481C29.8103 35.1696 29.8703 35.0711 29.9024 34.9624C29.9758 34.7492 30.0329 34.5308 30.0734 34.3091C30.1139 34.0321 30.203 33.7644 30.3365 33.5184C30.4302 33.3461 30.5688 33.2024 30.7377 33.1026C30.8916 33.0205 31.0638 32.9786 31.2382 32.9805C31.4548 32.9786 31.666 33.0477 31.8397 33.1771C32.0315 33.3264 32.177 33.5271 32.2591 33.7559C32.3698 34.0615 32.4219 34.3853 32.4126 34.7102V34.7102Z" fill="#0F681D"/>
<path d="M32.4126 31.1032C32.416 31.3444 32.364 31.5832 32.2606 31.8011C32.1684 31.9975 32.0278 32.1672 31.8521 32.2944C31.6848 32.4151 31.4832 32.4788 31.277 32.4763C31.1151 32.4808 30.9546 32.4447 30.8102 32.3715C30.6657 32.2982 30.5419 32.1901 30.4498 32.0569C30.2442 31.7777 30.1068 31.408 30.0376 30.9476L29.8915 29.9311H29.7351C29.5604 29.9201 29.388 29.9757 29.2528 30.0868C29.1393 30.1905 29.0825 30.3686 29.0825 30.6209C29.0757 30.773 29.113 30.9237 29.1899 31.055C29.2588 31.163 29.3572 31.249 29.4735 31.3027C29.5036 31.3196 29.5285 31.3444 29.5455 31.3744C29.5625 31.4044 29.571 31.4385 29.5699 31.473V32.0576C29.5717 32.08 29.5686 32.1024 29.5609 32.1235C29.5532 32.1445 29.5411 32.1637 29.5254 32.1797C29.4926 32.208 29.4502 32.2226 29.407 32.2206C29.304 32.2087 29.2045 32.1759 29.1147 32.1241C28.9869 32.053 28.8746 31.9571 28.7844 31.842C28.6662 31.6929 28.5745 31.5246 28.5132 31.3444C28.4336 31.108 28.396 30.8594 28.4022 30.61C28.3954 30.3418 28.4342 30.0745 28.5169 29.8193C28.5802 29.6268 28.6855 29.4508 28.8253 29.3041C28.9523 29.1763 29.1071 29.0795 29.2776 29.0213C29.4546 28.9616 29.6403 28.9317 29.8272 28.9329H32.1575C32.2047 28.9329 32.2499 28.9516 32.2834 28.9849C32.3168 29.0181 32.3357 29.0633 32.3358 29.1105V29.7119C32.337 29.7361 32.3329 29.7602 32.3238 29.7827C32.3147 29.8052 32.3009 29.8254 32.2832 29.842C32.2492 29.8738 32.2041 29.8912 32.1575 29.8902H31.8652C31.9662 29.962 32.0551 30.0496 32.1283 30.1496C32.2162 30.2704 32.2838 30.4047 32.3285 30.5471C32.3867 30.7267 32.4151 30.9145 32.4126 31.1032V31.1032ZM31.7074 30.8511C31.7095 30.6873 31.6714 30.5255 31.5963 30.3798C31.5185 30.2354 31.3977 30.1187 31.2507 30.0458C31.0669 29.9578 30.8646 29.9157 30.6609 29.9231H30.5053L30.6237 30.6655C30.6683 30.9578 30.7399 31.1771 30.8429 31.3188C30.8803 31.383 30.9335 31.4364 30.9975 31.4741C31.0615 31.5117 31.1341 31.5322 31.2083 31.5337C31.3104 31.5365 31.4098 31.5007 31.4867 31.4336C31.565 31.3646 31.6239 31.2765 31.6577 31.1778C31.693 31.0726 31.7099 30.9621 31.7074 30.8511V30.8511Z" fill="#0F681D"/>
<path d="M32.3388 27.8082C32.3388 27.8555 32.32 27.9008 32.2866 27.9342C32.2531 27.9677 32.2078 27.9865 32.1605 27.9865H28.6572C28.6338 27.9867 28.6105 27.9822 28.5888 27.9733C28.567 27.9644 28.5473 27.9513 28.5307 27.9347C28.5141 27.9181 28.501 27.8984 28.4921 27.8766C28.4832 27.8549 28.4787 27.8316 28.4789 27.8082V27.1994C28.4786 27.176 28.4831 27.1527 28.492 27.131C28.5009 27.1092 28.5141 27.0895 28.5308 27.073C28.5473 27.0564 28.567 27.0433 28.5888 27.0345C28.6105 27.0257 28.6338 27.0214 28.6572 27.0219H28.9612C28.7974 26.8853 28.6625 26.7173 28.5644 26.5279C28.4509 26.296 28.3962 26.0398 28.4051 25.7818C28.3983 25.5058 28.4689 25.2334 28.609 24.9955C28.7464 24.7712 28.9463 24.5919 29.1841 24.4796C29.4632 24.3516 29.7679 24.2893 30.0749 24.2976H32.1605C32.2078 24.2976 32.2531 24.3164 32.2866 24.3498C32.32 24.3833 32.3388 24.4286 32.3388 24.4759V25.1285C32.3388 25.1758 32.32 25.2211 32.2866 25.2546C32.2531 25.288 32.2078 25.3068 32.1605 25.3068H30.1195C29.832 25.3068 29.6067 25.3774 29.4435 25.5187C29.2803 25.66 29.1987 25.8641 29.1987 26.1311C29.1934 26.2453 29.2124 26.3593 29.2547 26.4655C29.2969 26.5717 29.3613 26.6677 29.4435 26.7471C29.6072 26.9006 29.8325 26.9771 30.1195 26.9766H32.1605C32.2078 26.9766 32.2531 26.9953 32.2866 27.0288C32.32 27.0622 32.3388 27.1076 32.3388 27.1549V27.8082Z" fill="#0F681D"/>
<path d="M32.4126 21.8929C32.4184 22.1503 32.3834 22.4071 32.3088 22.6536C32.2519 22.8389 32.1642 23.0133 32.0494 23.1695C31.9633 23.2859 31.8577 23.3865 31.7374 23.4669C31.6598 23.5211 31.5708 23.5566 31.4772 23.5707C31.4533 23.5739 31.4291 23.5712 31.4065 23.5628C31.3839 23.5544 31.3638 23.5405 31.3479 23.5225C31.3172 23.4889 31.3 23.4452 31.2996 23.3997V22.8151C31.2992 22.7975 31.3017 22.78 31.3069 22.7632C31.3174 22.7403 31.3326 22.7199 31.3515 22.7033C31.4056 22.6397 31.4626 22.571 31.5218 22.4994C31.5849 22.422 31.6363 22.3359 31.6745 22.2436C31.7197 22.1252 31.7411 21.9991 31.7374 21.8724C31.7429 21.703 31.703 21.5352 31.6219 21.3865C31.591 21.326 31.5437 21.2755 31.4854 21.2408C31.4271 21.206 31.3602 21.1884 31.2923 21.1899C31.2004 21.1857 31.1103 21.2159 31.0395 21.2747C30.9565 21.3642 30.8966 21.4725 30.8648 21.5903C30.7971 21.8048 30.7415 22.0229 30.6982 22.2436C30.6473 22.4833 30.565 22.7153 30.4534 22.9335C30.3689 23.1007 30.2406 23.2419 30.0822 23.342C29.9175 23.4362 29.7296 23.4823 29.54 23.4751C29.3503 23.4678 29.1665 23.4075 29.0094 23.301C28.8211 23.1696 28.6712 22.9902 28.5754 22.7815C28.4539 22.5125 28.3956 22.2193 28.4051 21.9243C28.4003 21.6878 28.4341 21.4521 28.5052 21.2264C28.5612 21.0498 28.6451 20.8833 28.7537 20.7332C28.837 20.6175 28.9384 20.5161 29.054 20.4328C29.1308 20.3734 29.2217 20.3349 29.3178 20.321C29.3415 20.3176 29.3656 20.3199 29.3882 20.3277C29.4108 20.3354 29.4313 20.3484 29.4479 20.3656C29.479 20.3974 29.4963 20.4402 29.4961 20.4847V21.0335C29.4966 21.0566 29.4913 21.0794 29.4808 21.1C29.4707 21.1213 29.4582 21.1414 29.4435 21.1599C29.3946 21.214 29.3427 21.2739 29.2879 21.3382C29.2289 21.4093 29.1797 21.4879 29.1417 21.5721C29.0958 21.6862 29.0744 21.8087 29.0789 21.9316C29.0684 22.0849 29.1116 22.237 29.2009 22.362C29.2375 22.4086 29.2844 22.446 29.3379 22.4713C29.3914 22.4967 29.4501 22.5093 29.5093 22.5082C29.5885 22.509 29.6656 22.4833 29.7285 22.4351C29.8103 22.3566 29.8703 22.2581 29.9024 22.1494C29.9759 21.9362 30.0331 21.7179 30.0734 21.4961C30.1141 21.2191 30.2031 20.9515 30.3365 20.7054C30.43 20.5331 30.5687 20.3896 30.7377 20.2903C30.8915 20.2077 31.0637 20.1655 31.2383 20.1676C31.4548 20.1656 31.666 20.2347 31.8397 20.3641C32.0314 20.5138 32.1768 20.7148 32.2591 20.9436C32.3693 21.2476 32.4214 21.5696 32.4126 21.8929Z" fill="#0F681D"/>
<path d="M14.9489 23.8016C15.9514 23.8016 16.7641 22.9889 16.7641 21.9863C16.7641 20.9838 15.9514 20.1711 14.9489 20.1711C13.9464 20.1711 13.1337 20.9838 13.1337 21.9863C13.1337 22.9889 13.9464 23.8016 14.9489 23.8016Z" fill="#FCA100"/>
<path d="M23.1093 23.8016C24.1118 23.8016 24.9245 22.9889 24.9245 21.9863C24.9245 20.9838 24.1118 20.1711 23.1093 20.1711C22.1068 20.1711 21.2941 20.9838 21.2941 21.9863C21.2941 22.9889 22.1068 23.8016 23.1093 23.8016Z" fill="#FCA100"/>
<path d="M14.129 36.543C14.0751 36.5452 14.0214 36.5362 13.9711 36.5168C13.9208 36.4973 13.875 36.4676 13.8367 36.4297C13.8005 36.3939 13.772 36.351 13.7529 36.3038C13.7338 36.2565 13.7245 36.2059 13.7256 36.155V25.6262C13.7236 25.5725 13.7326 25.5189 13.7523 25.4689C13.7719 25.4188 13.8016 25.3734 13.8396 25.3354C13.8776 25.2974 13.9231 25.2676 13.9731 25.248C14.0232 25.2284 14.0768 25.2193 14.1305 25.2214H15.4064C15.4684 25.2164 15.5308 25.2247 15.5894 25.2458C15.648 25.2668 15.7014 25.3001 15.7462 25.3434C15.8024 25.3989 15.8515 25.4613 15.8923 25.529L19.0134 31.351L22.1673 25.5297C22.2076 25.4616 22.2567 25.3992 22.3135 25.3441C22.3583 25.3011 22.4116 25.268 22.47 25.247C22.5285 25.226 22.5907 25.2175 22.6526 25.2221H23.9153C23.969 25.2199 24.0225 25.2289 24.0726 25.2485C24.1226 25.2681 24.168 25.2979 24.2059 25.3359C24.2438 25.374 24.2734 25.4195 24.2929 25.4696C24.3123 25.5197 24.3211 25.5733 24.3187 25.6269V36.155C24.3195 36.206 24.31 36.2567 24.2906 36.3039C24.2713 36.3511 24.2425 36.3939 24.2062 36.4297C24.1677 36.4675 24.1219 36.497 24.0717 36.5165C24.0214 36.5359 23.9677 36.545 23.9139 36.543H22.5546C22.5021 36.5456 22.4497 36.5368 22.4009 36.5172C22.3521 36.4977 22.3081 36.4678 22.2718 36.4297C22.2019 36.3556 22.164 36.2569 22.1666 36.155V29.1514L19.9013 33.4702C19.8476 33.5665 19.7759 33.6516 19.6901 33.7208C19.593 33.7947 19.4729 33.832 19.351 33.826H18.6875C18.5628 33.8345 18.4393 33.7971 18.3404 33.7208C18.2584 33.6501 18.1899 33.5652 18.1379 33.4702L15.8726 29.1514V36.155C15.8728 36.206 15.8629 36.2566 15.8434 36.3039C15.8239 36.3511 15.7953 36.394 15.7591 36.43C15.723 36.4661 15.68 36.4947 15.6328 36.5141C15.5855 36.5335 15.5349 36.5433 15.4838 36.543H14.129Z" fill="#7221BF"/>
<path d="M29.0394 56.7142C13.4012 56.7142 0.685974 43.9931 0.685974 28.3608C0.685974 12.7284 13.407 0.00732422 29.0394 0.00732422C44.6718 0.00732422 57.3965 12.7211 57.3965 28.3571C57.3965 43.9931 44.6754 56.7142 29.0394 56.7142ZM29.0394 3.01147C15.0636 3.01147 3.69378 14.3813 3.69378 28.3571C3.69378 42.3329 15.0636 53.7027 29.0394 53.7027C43.0152 53.7027 54.385 42.3329 54.385 28.3571C54.385 14.3813 43.0152 3.01147 29.0394 3.01147V3.01147Z" fill="#7221BF"/>
</svg>
